G04 EAGLE Gerber RS-274X export*
G75*
%MOMM*%
%FSLAX34Y34*%
%LPD*%
%INSoldermask Top*%
%IPPOS*%
%AMOC8*
5,1,8,0,0,1.08239X$1,22.5*%
G01*
%ADD10R,2.203200X1.403200*%
%ADD11R,1.553200X0.803200*%
%ADD12C,3.378200*%
%ADD13C,2.133600*%
%ADD14C,2.082800*%
%ADD15R,2.082800X2.082800*%
%ADD16C,4.521200*%
%ADD17C,1.854200*%
%ADD18R,1.854200X1.854200*%
%ADD19R,1.403200X1.403200*%
%ADD20C,1.016000*%
%ADD21R,1.203200X2.203200*%
%ADD22R,1.303200X1.203200*%
%ADD23C,0.505344*%
%ADD24C,1.625600*%
%ADD25C,2.743200*%
%ADD26R,1.403200X2.203200*%
%ADD27R,0.803200X1.553200*%
%ADD28R,1.203200X1.303200*%
%ADD29R,1.103200X1.003200*%
%ADD30R,1.003200X1.103200*%
%ADD31R,1.353200X1.203200*%
%ADD32C,1.053200*%
%ADD33C,0.853200*%
%ADD34C,0.803200*%


D10*
X671750Y111700D03*
X671750Y167700D03*
D11*
X635000Y124700D03*
X635000Y134700D03*
X635000Y144700D03*
X635000Y154700D03*
D12*
X152400Y508000D03*
X660400Y355600D03*
X660400Y76200D03*
X139700Y25400D03*
D13*
X279400Y25400D03*
X304800Y25400D03*
X330200Y25400D03*
X355600Y25400D03*
X381000Y25400D03*
X406400Y25400D03*
X431800Y25400D03*
X457200Y25400D03*
X508000Y25400D03*
X533400Y25400D03*
X558800Y25400D03*
X584200Y25400D03*
X609600Y25400D03*
X635000Y25400D03*
X635000Y508000D03*
X609600Y508000D03*
X584200Y508000D03*
X558800Y508000D03*
X533400Y508000D03*
X508000Y508000D03*
X482600Y508000D03*
X457200Y508000D03*
X416560Y508000D03*
X391160Y508000D03*
X365760Y508000D03*
X340360Y508000D03*
X314960Y508000D03*
X289560Y508000D03*
X264160Y508000D03*
X238760Y508000D03*
X213360Y508000D03*
X187960Y508000D03*
X636400Y304300D03*
X661800Y304300D03*
X636400Y278900D03*
X661800Y278900D03*
X636400Y253500D03*
X661800Y253500D03*
D14*
X25400Y419100D03*
X50800Y419100D03*
X76200Y419100D03*
X101600Y419100D03*
X127000Y419100D03*
X152400Y419100D03*
X177800Y419100D03*
X203200Y419100D03*
X228600Y419100D03*
X254000Y419100D03*
X279400Y419100D03*
X304800Y419100D03*
X330200Y419100D03*
X355600Y419100D03*
X381000Y419100D03*
X406400Y419100D03*
X431800Y419100D03*
X457200Y419100D03*
X482600Y419100D03*
X508000Y419100D03*
X25400Y190500D03*
X50800Y190500D03*
X76200Y190500D03*
X101600Y190500D03*
X127000Y190500D03*
X152400Y190500D03*
X177800Y190500D03*
X203200Y190500D03*
X228600Y190500D03*
X254000Y190500D03*
X279400Y190500D03*
X304800Y190500D03*
X330200Y190500D03*
X355600Y190500D03*
X381000Y190500D03*
X406400Y190500D03*
X431800Y190500D03*
X457200Y190500D03*
X482600Y190500D03*
X508000Y190500D03*
D15*
X161925Y101600D03*
D14*
X161925Y76200D03*
X161925Y50800D03*
D16*
X114140Y81280D03*
X54140Y81280D03*
X84140Y34280D03*
D17*
X304600Y139700D03*
D18*
X279600Y139700D03*
D14*
X38100Y152400D03*
X88900Y152400D03*
D19*
X663575Y199050D03*
X663575Y220050D03*
D20*
X127000Y152400D03*
X228600Y152400D03*
D21*
X344300Y142875D03*
X392300Y142875D03*
D22*
X585225Y203200D03*
X602225Y203200D03*
D23*
X587690Y534470D02*
X580710Y534470D01*
X587690Y534470D02*
X587690Y527490D01*
X580710Y527490D01*
X580710Y534470D01*
X580710Y532290D02*
X587690Y532290D01*
X587690Y552010D02*
X580710Y552010D01*
X587690Y552010D02*
X587690Y545030D01*
X580710Y545030D01*
X580710Y552010D01*
X580710Y549830D02*
X587690Y549830D01*
X562290Y534470D02*
X555310Y534470D01*
X562290Y534470D02*
X562290Y527490D01*
X555310Y527490D01*
X555310Y534470D01*
X555310Y532290D02*
X562290Y532290D01*
X562290Y552010D02*
X555310Y552010D01*
X562290Y552010D02*
X562290Y545030D01*
X555310Y545030D01*
X555310Y552010D01*
X555310Y549830D02*
X562290Y549830D01*
X536890Y534470D02*
X529910Y534470D01*
X536890Y534470D02*
X536890Y527490D01*
X529910Y527490D01*
X529910Y534470D01*
X529910Y532290D02*
X536890Y532290D01*
X536890Y552010D02*
X529910Y552010D01*
X536890Y552010D02*
X536890Y545030D01*
X529910Y545030D01*
X529910Y552010D01*
X529910Y549830D02*
X536890Y549830D01*
X511490Y534470D02*
X504510Y534470D01*
X511490Y534470D02*
X511490Y527490D01*
X504510Y527490D01*
X504510Y534470D01*
X504510Y532290D02*
X511490Y532290D01*
X511490Y552010D02*
X504510Y552010D01*
X511490Y552010D02*
X511490Y545030D01*
X504510Y545030D01*
X504510Y552010D01*
X504510Y549830D02*
X511490Y549830D01*
X486090Y534470D02*
X479110Y534470D01*
X486090Y534470D02*
X486090Y527490D01*
X479110Y527490D01*
X479110Y534470D01*
X479110Y532290D02*
X486090Y532290D01*
X486090Y552010D02*
X479110Y552010D01*
X486090Y552010D02*
X486090Y545030D01*
X479110Y545030D01*
X479110Y552010D01*
X479110Y549830D02*
X486090Y549830D01*
X460690Y534470D02*
X453710Y534470D01*
X460690Y534470D02*
X460690Y527490D01*
X453710Y527490D01*
X453710Y534470D01*
X453710Y532290D02*
X460690Y532290D01*
X460690Y552010D02*
X453710Y552010D01*
X460690Y552010D02*
X460690Y545030D01*
X453710Y545030D01*
X453710Y552010D01*
X453710Y549830D02*
X460690Y549830D01*
X420050Y534470D02*
X413070Y534470D01*
X420050Y534470D02*
X420050Y527490D01*
X413070Y527490D01*
X413070Y534470D01*
X413070Y532290D02*
X420050Y532290D01*
X420050Y552010D02*
X413070Y552010D01*
X420050Y552010D02*
X420050Y545030D01*
X413070Y545030D01*
X413070Y552010D01*
X413070Y549830D02*
X420050Y549830D01*
X394650Y534470D02*
X387670Y534470D01*
X394650Y534470D02*
X394650Y527490D01*
X387670Y527490D01*
X387670Y534470D01*
X387670Y532290D02*
X394650Y532290D01*
X394650Y552010D02*
X387670Y552010D01*
X394650Y552010D02*
X394650Y545030D01*
X387670Y545030D01*
X387670Y552010D01*
X387670Y549830D02*
X394650Y549830D01*
X369250Y534470D02*
X362270Y534470D01*
X369250Y534470D02*
X369250Y527490D01*
X362270Y527490D01*
X362270Y534470D01*
X362270Y532290D02*
X369250Y532290D01*
X369250Y552010D02*
X362270Y552010D01*
X369250Y552010D02*
X369250Y545030D01*
X362270Y545030D01*
X362270Y552010D01*
X362270Y549830D02*
X369250Y549830D01*
X343850Y534470D02*
X336870Y534470D01*
X343850Y534470D02*
X343850Y527490D01*
X336870Y527490D01*
X336870Y534470D01*
X336870Y532290D02*
X343850Y532290D01*
X343850Y552010D02*
X336870Y552010D01*
X343850Y552010D02*
X343850Y545030D01*
X336870Y545030D01*
X336870Y552010D01*
X336870Y549830D02*
X343850Y549830D01*
X318450Y534470D02*
X311470Y534470D01*
X318450Y534470D02*
X318450Y527490D01*
X311470Y527490D01*
X311470Y534470D01*
X311470Y532290D02*
X318450Y532290D01*
X318450Y552010D02*
X311470Y552010D01*
X318450Y552010D02*
X318450Y545030D01*
X311470Y545030D01*
X311470Y552010D01*
X311470Y549830D02*
X318450Y549830D01*
X293050Y534470D02*
X286070Y534470D01*
X293050Y534470D02*
X293050Y527490D01*
X286070Y527490D01*
X286070Y534470D01*
X286070Y532290D02*
X293050Y532290D01*
X293050Y552010D02*
X286070Y552010D01*
X293050Y552010D02*
X293050Y545030D01*
X286070Y545030D01*
X286070Y552010D01*
X286070Y549830D02*
X293050Y549830D01*
D17*
X266500Y76200D03*
D18*
X241500Y76200D03*
D24*
X38100Y279400D03*
D25*
X38100Y231400D03*
X38100Y327400D03*
D24*
X38100Y299400D03*
X38100Y260400D03*
D26*
X69275Y541575D03*
X13275Y541575D03*
D27*
X56275Y504825D03*
X46275Y504825D03*
X36275Y504825D03*
X26275Y504825D03*
D28*
X482600Y338700D03*
X482600Y321700D03*
X482600Y376800D03*
X482600Y359800D03*
X406400Y338700D03*
X406400Y321700D03*
X406400Y376800D03*
X406400Y359800D03*
X330200Y338700D03*
X330200Y321700D03*
X330200Y376800D03*
X330200Y359800D03*
X254000Y338700D03*
X254000Y321700D03*
X254000Y376800D03*
X254000Y359800D03*
X177800Y338700D03*
X177800Y321700D03*
X177800Y376800D03*
X177800Y359800D03*
X101600Y338700D03*
X101600Y321700D03*
X101600Y376800D03*
X101600Y359800D03*
X533400Y338700D03*
X533400Y321700D03*
X533400Y376800D03*
X533400Y359800D03*
X457200Y338700D03*
X457200Y321700D03*
X457200Y376800D03*
X457200Y359800D03*
X381000Y338700D03*
X381000Y321700D03*
X381000Y376800D03*
X381000Y359800D03*
X304800Y338700D03*
X304800Y321700D03*
X304800Y376800D03*
X304800Y359800D03*
X228600Y338700D03*
X228600Y321700D03*
X228600Y376800D03*
X228600Y359800D03*
X152400Y338700D03*
X152400Y321700D03*
X152400Y376800D03*
X152400Y359800D03*
D29*
X498000Y339700D03*
X498000Y320700D03*
X519000Y330200D03*
X498000Y377800D03*
X498000Y358800D03*
X519000Y368300D03*
X421800Y339700D03*
X421800Y320700D03*
X442800Y330200D03*
X421800Y377800D03*
X421800Y358800D03*
X442800Y368300D03*
X345600Y339700D03*
X345600Y320700D03*
X366600Y330200D03*
X345600Y377800D03*
X345600Y358800D03*
X366600Y368300D03*
X269400Y339700D03*
X269400Y320700D03*
X290400Y330200D03*
X269400Y377800D03*
X269400Y358800D03*
X290400Y368300D03*
X193200Y339700D03*
X193200Y320700D03*
X214200Y330200D03*
X193200Y377800D03*
X193200Y358800D03*
X214200Y368300D03*
X117000Y339700D03*
X117000Y320700D03*
X138000Y330200D03*
X117000Y377800D03*
X117000Y358800D03*
X138000Y368300D03*
D30*
X549300Y91600D03*
X568300Y91600D03*
X558800Y112600D03*
X549300Y129700D03*
X568300Y129700D03*
X558800Y150700D03*
D22*
X602225Y88900D03*
X585225Y88900D03*
X602225Y174625D03*
X585225Y174625D03*
D28*
X533400Y116450D03*
X533400Y99450D03*
X533400Y151375D03*
X533400Y134375D03*
D31*
X565475Y380600D03*
X565475Y355600D03*
X565475Y330600D03*
X621975Y380600D03*
X621975Y355600D03*
X621975Y330600D03*
D32*
X593725Y370600D03*
X593725Y340600D03*
D33*
X165100Y349250D03*
X263525Y349250D03*
X292100Y349250D03*
X628650Y114300D03*
X492125Y349250D03*
X415925Y349250D03*
X342900Y69850D03*
X631825Y85725D03*
X520700Y168275D03*
X558800Y203200D03*
X339725Y349250D03*
X139700Y349250D03*
X584200Y393700D03*
X469900Y349250D03*
X469900Y377825D03*
X393700Y349250D03*
X393700Y377825D03*
X317500Y342900D03*
X317500Y381000D03*
X241300Y349250D03*
X241300Y374650D03*
X201370Y349250D03*
X203200Y387350D03*
D34*
X127000Y349250D03*
D33*
X542925Y165100D03*
X520700Y107950D03*
X444500Y238125D03*
X622300Y317500D03*
X431800Y234950D03*
X565150Y311150D03*
X584200Y139700D03*
X457200Y247650D03*
X476250Y88900D03*
X609600Y266700D03*
M02*
