G04 EAGLE Gerber RS-274X export*
G75*
%MOMM*%
%FSLAX34Y34*%
%LPD*%
%INBottom Copper*%
%IPPOS*%
%AMOC8*
5,1,8,0,0,1.08239X$1,22.5*%
G01*
%ADD10C,1.930400*%
%ADD11C,1.879600*%
%ADD12R,1.879600X1.879600*%
%ADD13C,4.318000*%
%ADD14C,1.651000*%
%ADD15R,1.651000X1.651000*%
%ADD16C,1.422400*%
%ADD17C,2.540000*%
%ADD18C,0.650000*%
%ADD19C,0.304800*%
%ADD20C,0.254000*%
%ADD21C,0.600000*%
%ADD22C,1.016000*%
%ADD23C,0.812800*%

G36*
X655020Y4079D02*
X655020Y4079D01*
X655134Y4085D01*
X655177Y4099D01*
X655222Y4105D01*
X655328Y4147D01*
X655437Y4181D01*
X655476Y4205D01*
X655518Y4222D01*
X655610Y4289D01*
X655707Y4349D01*
X655738Y4382D01*
X655775Y4408D01*
X655848Y4496D01*
X655927Y4579D01*
X655949Y4618D01*
X655978Y4653D01*
X656027Y4757D01*
X656082Y4856D01*
X656094Y4900D01*
X656114Y4941D01*
X656135Y5053D01*
X656164Y5163D01*
X656169Y5233D01*
X656173Y5253D01*
X656172Y5272D01*
X656176Y5324D01*
X656335Y25413D01*
X656335Y25416D01*
X656335Y25423D01*
X656335Y27103D01*
X657534Y28282D01*
X657536Y28285D01*
X657541Y28289D01*
X681364Y52112D01*
X681424Y52190D01*
X681492Y52262D01*
X681521Y52315D01*
X681558Y52363D01*
X681598Y52454D01*
X681646Y52541D01*
X681661Y52599D01*
X681685Y52655D01*
X681700Y52753D01*
X681725Y52849D01*
X681731Y52949D01*
X681735Y52969D01*
X681733Y52981D01*
X681735Y53009D01*
X681735Y69222D01*
X681727Y69291D01*
X681728Y69361D01*
X681707Y69448D01*
X681695Y69538D01*
X681670Y69602D01*
X681653Y69670D01*
X681611Y69750D01*
X681578Y69833D01*
X681537Y69890D01*
X681505Y69951D01*
X681444Y70018D01*
X681392Y70091D01*
X681338Y70135D01*
X681291Y70187D01*
X681216Y70236D01*
X681147Y70293D01*
X681083Y70323D01*
X681025Y70361D01*
X680940Y70391D01*
X680859Y70429D01*
X680790Y70442D01*
X680724Y70465D01*
X680635Y70472D01*
X680547Y70489D01*
X680477Y70484D01*
X680407Y70490D01*
X680319Y70474D01*
X680229Y70469D01*
X680163Y70447D01*
X680094Y70435D01*
X680012Y70399D01*
X679927Y70371D01*
X679868Y70334D01*
X679804Y70305D01*
X679734Y70249D01*
X679658Y70201D01*
X679610Y70150D01*
X679556Y70106D01*
X679501Y70035D01*
X679440Y69969D01*
X679406Y69908D01*
X679364Y69852D01*
X679293Y69708D01*
X677304Y64905D01*
X671695Y59296D01*
X664366Y56260D01*
X656434Y56260D01*
X649105Y59296D01*
X643496Y64905D01*
X640460Y72234D01*
X640460Y80166D01*
X643496Y87495D01*
X649105Y93104D01*
X656434Y96140D01*
X664366Y96140D01*
X671695Y93104D01*
X677304Y87495D01*
X679293Y82692D01*
X679328Y82632D01*
X679354Y82567D01*
X679406Y82494D01*
X679451Y82416D01*
X679499Y82366D01*
X679540Y82309D01*
X679610Y82252D01*
X679672Y82188D01*
X679732Y82151D01*
X679785Y82107D01*
X679867Y82068D01*
X679943Y82021D01*
X680010Y82001D01*
X680073Y81971D01*
X680161Y81954D01*
X680247Y81928D01*
X680317Y81924D01*
X680386Y81911D01*
X680475Y81917D01*
X680565Y81913D01*
X680633Y81927D01*
X680703Y81931D01*
X680788Y81959D01*
X680876Y81977D01*
X680939Y82008D01*
X681005Y82029D01*
X681081Y82077D01*
X681162Y82117D01*
X681215Y82162D01*
X681274Y82199D01*
X681336Y82265D01*
X681404Y82323D01*
X681444Y82380D01*
X681492Y82431D01*
X681535Y82509D01*
X681587Y82583D01*
X681612Y82648D01*
X681646Y82709D01*
X681668Y82796D01*
X681700Y82880D01*
X681708Y82950D01*
X681725Y83017D01*
X681735Y83178D01*
X681735Y348622D01*
X681727Y348691D01*
X681728Y348761D01*
X681707Y348848D01*
X681695Y348938D01*
X681670Y349002D01*
X681653Y349070D01*
X681611Y349150D01*
X681578Y349233D01*
X681537Y349290D01*
X681505Y349351D01*
X681444Y349418D01*
X681392Y349491D01*
X681338Y349535D01*
X681291Y349587D01*
X681216Y349636D01*
X681147Y349693D01*
X681083Y349723D01*
X681025Y349761D01*
X680940Y349791D01*
X680859Y349829D01*
X680790Y349842D01*
X680724Y349865D01*
X680635Y349872D01*
X680547Y349889D01*
X680477Y349884D01*
X680407Y349890D01*
X680319Y349874D01*
X680229Y349869D01*
X680163Y349847D01*
X680094Y349835D01*
X680012Y349799D01*
X679927Y349771D01*
X679868Y349734D01*
X679804Y349705D01*
X679734Y349649D01*
X679658Y349601D01*
X679610Y349550D01*
X679556Y349506D01*
X679501Y349435D01*
X679440Y349369D01*
X679406Y349308D01*
X679364Y349252D01*
X679293Y349108D01*
X677304Y344305D01*
X671695Y338696D01*
X664366Y335660D01*
X656434Y335660D01*
X649105Y338696D01*
X643496Y344305D01*
X640460Y351634D01*
X640460Y359566D01*
X643496Y366895D01*
X649105Y372504D01*
X656434Y375540D01*
X664366Y375540D01*
X671695Y372504D01*
X677304Y366895D01*
X679293Y362092D01*
X679328Y362032D01*
X679354Y361967D01*
X679406Y361894D01*
X679451Y361816D01*
X679499Y361766D01*
X679540Y361709D01*
X679610Y361652D01*
X679672Y361588D01*
X679732Y361551D01*
X679785Y361507D01*
X679867Y361468D01*
X679943Y361421D01*
X680010Y361401D01*
X680073Y361371D01*
X680161Y361354D01*
X680247Y361328D01*
X680317Y361324D01*
X680386Y361311D01*
X680475Y361317D01*
X680565Y361313D01*
X680633Y361327D01*
X680703Y361331D01*
X680788Y361359D01*
X680876Y361377D01*
X680939Y361408D01*
X681005Y361429D01*
X681081Y361477D01*
X681162Y361517D01*
X681215Y361562D01*
X681274Y361599D01*
X681336Y361665D01*
X681404Y361723D01*
X681444Y361780D01*
X681492Y361831D01*
X681535Y361909D01*
X681587Y361983D01*
X681612Y362048D01*
X681646Y362109D01*
X681668Y362196D01*
X681700Y362280D01*
X681708Y362350D01*
X681725Y362417D01*
X681735Y362578D01*
X681735Y378791D01*
X681723Y378889D01*
X681720Y378988D01*
X681703Y379046D01*
X681695Y379106D01*
X681659Y379198D01*
X681631Y379293D01*
X681601Y379345D01*
X681578Y379402D01*
X681520Y379482D01*
X681470Y379567D01*
X681404Y379643D01*
X681392Y379659D01*
X681382Y379667D01*
X681364Y379688D01*
X657541Y403511D01*
X657538Y403513D01*
X657534Y403518D01*
X656335Y404697D01*
X656335Y406377D01*
X656335Y406380D01*
X656335Y406387D01*
X656153Y429390D01*
X656140Y429483D01*
X656138Y429576D01*
X656131Y429599D01*
X656135Y431580D01*
X656135Y431585D01*
X656135Y431593D01*
X656119Y433587D01*
X656130Y433626D01*
X656137Y433741D01*
X656140Y433758D01*
X656139Y433767D01*
X656140Y433787D01*
X656330Y518493D01*
X656318Y518592D01*
X656315Y518693D01*
X656298Y518750D01*
X656291Y518808D01*
X656254Y518902D01*
X656227Y518998D01*
X656196Y519049D01*
X656175Y519104D01*
X656116Y519186D01*
X656065Y519272D01*
X656001Y519345D01*
X655989Y519362D01*
X655979Y519370D01*
X655959Y519393D01*
X644855Y530497D01*
X644850Y530501D01*
X644841Y530511D01*
X633505Y541494D01*
X633438Y541545D01*
X633377Y541603D01*
X633312Y541640D01*
X633251Y541685D01*
X633241Y541689D01*
X631948Y543003D01*
X631941Y543009D01*
X631927Y543024D01*
X630604Y544306D01*
X630603Y544309D01*
X630552Y544376D01*
X630510Y544449D01*
X630417Y544556D01*
X630412Y544563D01*
X630409Y544565D01*
X630405Y544571D01*
X620771Y554356D01*
X620689Y554421D01*
X620613Y554492D01*
X620565Y554519D01*
X620521Y554553D01*
X620426Y554595D01*
X620335Y554646D01*
X620281Y554659D01*
X620230Y554682D01*
X620127Y554699D01*
X620027Y554725D01*
X619938Y554731D01*
X619916Y554734D01*
X619902Y554733D01*
X619866Y554735D01*
X5334Y554735D01*
X5216Y554720D01*
X5097Y554713D01*
X5059Y554700D01*
X5018Y554695D01*
X4908Y554652D01*
X4795Y554615D01*
X4760Y554593D01*
X4723Y554578D01*
X4627Y554509D01*
X4526Y554445D01*
X4498Y554415D01*
X4465Y554392D01*
X4389Y554300D01*
X4308Y554213D01*
X4288Y554178D01*
X4263Y554147D01*
X4212Y554039D01*
X4154Y553935D01*
X4144Y553895D01*
X4127Y553859D01*
X4105Y553742D01*
X4075Y553627D01*
X4071Y553567D01*
X4067Y553547D01*
X4069Y553526D01*
X4065Y553466D01*
X4065Y272625D01*
X4082Y272487D01*
X4095Y272348D01*
X4102Y272329D01*
X4105Y272309D01*
X4156Y272180D01*
X4203Y272049D01*
X4214Y272032D01*
X4222Y272014D01*
X4303Y271901D01*
X4381Y271786D01*
X4397Y271773D01*
X4408Y271756D01*
X4516Y271668D01*
X4620Y271575D01*
X4638Y271566D01*
X4653Y271553D01*
X4779Y271494D01*
X4903Y271431D01*
X4923Y271426D01*
X4941Y271418D01*
X5077Y271392D01*
X5213Y271361D01*
X5234Y271362D01*
X5253Y271358D01*
X5392Y271367D01*
X5531Y271371D01*
X5551Y271377D01*
X5571Y271378D01*
X5703Y271421D01*
X5837Y271459D01*
X5854Y271470D01*
X5873Y271476D01*
X5991Y271550D01*
X6111Y271621D01*
X6132Y271639D01*
X6142Y271646D01*
X6156Y271661D01*
X6231Y271727D01*
X18330Y283826D01*
X20795Y286291D01*
X23783Y287529D01*
X29897Y287529D01*
X29995Y287541D01*
X30094Y287544D01*
X30152Y287561D01*
X30212Y287569D01*
X30304Y287605D01*
X30399Y287633D01*
X30452Y287663D01*
X30508Y287686D01*
X30588Y287744D01*
X30673Y287794D01*
X30749Y287860D01*
X30765Y287872D01*
X30773Y287882D01*
X30794Y287900D01*
X31396Y288502D01*
X31469Y288597D01*
X31548Y288686D01*
X31566Y288722D01*
X31591Y288754D01*
X31639Y288863D01*
X31693Y288969D01*
X31701Y289008D01*
X31718Y289046D01*
X31736Y289163D01*
X31762Y289279D01*
X31761Y289320D01*
X31767Y289360D01*
X31756Y289478D01*
X31753Y289597D01*
X31741Y289636D01*
X31738Y289676D01*
X31697Y289789D01*
X31664Y289903D01*
X31644Y289937D01*
X31630Y289976D01*
X31563Y290074D01*
X31503Y290177D01*
X31463Y290222D01*
X31451Y290239D01*
X31436Y290252D01*
X31396Y290297D01*
X28625Y293069D01*
X26923Y297177D01*
X26923Y301623D01*
X28625Y305731D01*
X31769Y308875D01*
X32561Y309203D01*
X32681Y309272D01*
X32804Y309337D01*
X32819Y309351D01*
X32837Y309361D01*
X32937Y309457D01*
X33040Y309551D01*
X33051Y309568D01*
X33065Y309582D01*
X33138Y309700D01*
X33214Y309817D01*
X33221Y309836D01*
X33232Y309853D01*
X33272Y309986D01*
X33318Y310117D01*
X33319Y310138D01*
X33325Y310157D01*
X33332Y310296D01*
X33343Y310435D01*
X33339Y310454D01*
X33340Y310475D01*
X33312Y310611D01*
X33289Y310748D01*
X33280Y310766D01*
X33276Y310786D01*
X33215Y310911D01*
X33158Y311038D01*
X33145Y311054D01*
X33136Y311072D01*
X33046Y311178D01*
X32959Y311286D01*
X32943Y311298D01*
X32930Y311314D01*
X32816Y311394D01*
X32705Y311478D01*
X32680Y311490D01*
X32670Y311497D01*
X32651Y311504D01*
X32561Y311548D01*
X28604Y313188D01*
X23888Y317904D01*
X21335Y324065D01*
X21335Y330735D01*
X23888Y336896D01*
X28604Y341612D01*
X34765Y344165D01*
X41435Y344165D01*
X47596Y341612D01*
X52312Y336896D01*
X54865Y330735D01*
X54865Y324065D01*
X52312Y317904D01*
X47596Y313188D01*
X43639Y311548D01*
X43519Y311480D01*
X43396Y311415D01*
X43381Y311401D01*
X43363Y311391D01*
X43263Y311294D01*
X43160Y311201D01*
X43149Y311184D01*
X43135Y311170D01*
X43062Y311051D01*
X42986Y310935D01*
X42979Y310916D01*
X42968Y310898D01*
X42927Y310766D01*
X42882Y310634D01*
X42881Y310614D01*
X42875Y310595D01*
X42868Y310456D01*
X42857Y310317D01*
X42861Y310297D01*
X42860Y310277D01*
X42888Y310141D01*
X42911Y310004D01*
X42920Y309985D01*
X42924Y309965D01*
X42985Y309840D01*
X43042Y309714D01*
X43055Y309698D01*
X43064Y309680D01*
X43154Y309574D01*
X43241Y309465D01*
X43257Y309453D01*
X43270Y309438D01*
X43384Y309358D01*
X43495Y309274D01*
X43520Y309262D01*
X43530Y309255D01*
X43549Y309247D01*
X43639Y309203D01*
X44431Y308875D01*
X47575Y305731D01*
X49277Y301623D01*
X49277Y297177D01*
X47575Y293069D01*
X44804Y290297D01*
X44731Y290203D01*
X44652Y290114D01*
X44634Y290078D01*
X44609Y290046D01*
X44561Y289937D01*
X44507Y289831D01*
X44499Y289792D01*
X44482Y289754D01*
X44464Y289637D01*
X44438Y289521D01*
X44439Y289480D01*
X44433Y289440D01*
X44444Y289322D01*
X44447Y289203D01*
X44459Y289164D01*
X44462Y289124D01*
X44503Y289011D01*
X44536Y288897D01*
X44556Y288862D01*
X44570Y288824D01*
X44637Y288726D01*
X44697Y288623D01*
X44737Y288578D01*
X44749Y288561D01*
X44764Y288548D01*
X44804Y288502D01*
X47575Y285731D01*
X49277Y281623D01*
X49277Y277177D01*
X47575Y273069D01*
X45304Y270798D01*
X45231Y270703D01*
X45152Y270614D01*
X45134Y270578D01*
X45109Y270546D01*
X45061Y270437D01*
X45007Y270331D01*
X44999Y270292D01*
X44982Y270254D01*
X44964Y270137D01*
X44938Y270021D01*
X44939Y269980D01*
X44933Y269940D01*
X44944Y269822D01*
X44947Y269703D01*
X44959Y269664D01*
X44962Y269624D01*
X45003Y269511D01*
X45036Y269397D01*
X45056Y269363D01*
X45070Y269324D01*
X45137Y269226D01*
X45197Y269123D01*
X45237Y269078D01*
X45249Y269061D01*
X45264Y269048D01*
X45304Y269003D01*
X47575Y266731D01*
X49277Y262623D01*
X49277Y258177D01*
X47575Y254069D01*
X44431Y250925D01*
X42432Y250097D01*
X42311Y250028D01*
X42189Y249963D01*
X42174Y249949D01*
X42156Y249939D01*
X42056Y249842D01*
X41953Y249749D01*
X41942Y249732D01*
X41927Y249718D01*
X41855Y249599D01*
X41778Y249483D01*
X41772Y249464D01*
X41761Y249447D01*
X41720Y249314D01*
X41675Y249183D01*
X41674Y249162D01*
X41668Y249143D01*
X41661Y249005D01*
X41650Y248865D01*
X41653Y248845D01*
X41653Y248825D01*
X41681Y248690D01*
X41704Y248552D01*
X41713Y248534D01*
X41717Y248514D01*
X41778Y248389D01*
X41835Y248262D01*
X41848Y248246D01*
X41857Y248228D01*
X41947Y248122D01*
X42034Y248014D01*
X42050Y248002D01*
X42063Y247986D01*
X42177Y247906D01*
X42288Y247822D01*
X42313Y247810D01*
X42323Y247803D01*
X42342Y247796D01*
X42432Y247752D01*
X47596Y245612D01*
X52312Y240896D01*
X54865Y234735D01*
X54865Y228065D01*
X52312Y221904D01*
X47596Y217188D01*
X41435Y214635D01*
X34765Y214635D01*
X28604Y217188D01*
X23888Y221904D01*
X21335Y228065D01*
X21335Y234735D01*
X23888Y240896D01*
X28604Y245612D01*
X33768Y247752D01*
X33888Y247820D01*
X34011Y247885D01*
X34026Y247899D01*
X34044Y247909D01*
X34144Y248006D01*
X34247Y248099D01*
X34258Y248116D01*
X34272Y248130D01*
X34345Y248249D01*
X34422Y248365D01*
X34428Y248384D01*
X34439Y248402D01*
X34480Y248534D01*
X34525Y248666D01*
X34526Y248686D01*
X34532Y248705D01*
X34539Y248844D01*
X34550Y248983D01*
X34547Y249003D01*
X34547Y249023D01*
X34519Y249159D01*
X34496Y249296D01*
X34487Y249315D01*
X34483Y249335D01*
X34422Y249460D01*
X34365Y249586D01*
X34352Y249602D01*
X34343Y249620D01*
X34253Y249726D01*
X34166Y249835D01*
X34150Y249847D01*
X34137Y249862D01*
X34023Y249942D01*
X33912Y250026D01*
X33887Y250038D01*
X33877Y250045D01*
X33858Y250053D01*
X33768Y250097D01*
X31769Y250925D01*
X28625Y254069D01*
X26923Y258177D01*
X26923Y262623D01*
X28625Y266731D01*
X30896Y269003D01*
X30969Y269097D01*
X31048Y269186D01*
X31066Y269222D01*
X31091Y269254D01*
X31139Y269363D01*
X31193Y269469D01*
X31201Y269508D01*
X31218Y269546D01*
X31236Y269663D01*
X31262Y269779D01*
X31261Y269820D01*
X31267Y269860D01*
X31256Y269978D01*
X31253Y270097D01*
X31241Y270136D01*
X31238Y270176D01*
X31197Y270289D01*
X31164Y270403D01*
X31144Y270438D01*
X31130Y270476D01*
X31063Y270574D01*
X31003Y270677D01*
X30963Y270722D01*
X30951Y270739D01*
X30936Y270752D01*
X30896Y270798D01*
X30794Y270900D01*
X30716Y270960D01*
X30644Y271028D01*
X30591Y271057D01*
X30543Y271094D01*
X30452Y271134D01*
X30365Y271182D01*
X30307Y271197D01*
X30251Y271221D01*
X30153Y271236D01*
X30057Y271261D01*
X29957Y271267D01*
X29937Y271271D01*
X29925Y271269D01*
X29897Y271271D01*
X29293Y271271D01*
X29195Y271259D01*
X29096Y271256D01*
X29037Y271239D01*
X28977Y271231D01*
X28885Y271195D01*
X28790Y271167D01*
X28738Y271137D01*
X28682Y271114D01*
X28602Y271056D01*
X28516Y271006D01*
X28441Y270940D01*
X28424Y270928D01*
X28416Y270918D01*
X28395Y270900D01*
X18025Y260530D01*
X17965Y260451D01*
X17897Y260379D01*
X17868Y260326D01*
X17831Y260278D01*
X17791Y260187D01*
X17743Y260101D01*
X17728Y260042D01*
X17704Y259987D01*
X17689Y259889D01*
X17664Y259793D01*
X17658Y259693D01*
X17654Y259672D01*
X17656Y259660D01*
X17654Y259632D01*
X17654Y203763D01*
X17660Y203714D01*
X17658Y203664D01*
X17680Y203556D01*
X17694Y203447D01*
X17712Y203401D01*
X17722Y203353D01*
X17770Y203254D01*
X17811Y203152D01*
X17840Y203112D01*
X17862Y203067D01*
X17933Y202983D01*
X17997Y202894D01*
X18036Y202863D01*
X18068Y202825D01*
X18158Y202762D01*
X18242Y202692D01*
X18287Y202670D01*
X18328Y202642D01*
X18431Y202603D01*
X18530Y202556D01*
X18579Y202547D01*
X18625Y202529D01*
X18735Y202517D01*
X18842Y202496D01*
X18892Y202499D01*
X18941Y202494D01*
X19050Y202509D01*
X19160Y202516D01*
X19207Y202531D01*
X19256Y202538D01*
X19409Y202590D01*
X22722Y203963D01*
X28078Y203963D01*
X33026Y201913D01*
X36813Y198126D01*
X36927Y197850D01*
X36996Y197730D01*
X37061Y197607D01*
X37075Y197592D01*
X37085Y197574D01*
X37181Y197475D01*
X37275Y197371D01*
X37292Y197360D01*
X37306Y197346D01*
X37425Y197273D01*
X37541Y197197D01*
X37560Y197190D01*
X37577Y197179D01*
X37710Y197138D01*
X37842Y197093D01*
X37862Y197092D01*
X37881Y197086D01*
X38020Y197079D01*
X38159Y197068D01*
X38179Y197072D01*
X38199Y197071D01*
X38335Y197099D01*
X38472Y197122D01*
X38491Y197131D01*
X38510Y197135D01*
X38635Y197196D01*
X38762Y197253D01*
X38778Y197266D01*
X38796Y197275D01*
X38902Y197365D01*
X39010Y197452D01*
X39023Y197468D01*
X39038Y197481D01*
X39118Y197595D01*
X39202Y197706D01*
X39214Y197731D01*
X39221Y197741D01*
X39228Y197760D01*
X39273Y197850D01*
X39387Y198126D01*
X43174Y201913D01*
X48122Y203963D01*
X53478Y203963D01*
X58426Y201913D01*
X62213Y198126D01*
X62327Y197850D01*
X62396Y197730D01*
X62461Y197607D01*
X62475Y197592D01*
X62485Y197574D01*
X62582Y197474D01*
X62675Y197371D01*
X62692Y197360D01*
X62706Y197346D01*
X62825Y197273D01*
X62941Y197197D01*
X62960Y197190D01*
X62977Y197179D01*
X63110Y197138D01*
X63242Y197093D01*
X63262Y197092D01*
X63281Y197086D01*
X63420Y197079D01*
X63559Y197068D01*
X63579Y197072D01*
X63599Y197071D01*
X63735Y197099D01*
X63872Y197123D01*
X63890Y197131D01*
X63910Y197135D01*
X64035Y197196D01*
X64162Y197253D01*
X64178Y197266D01*
X64196Y197275D01*
X64302Y197365D01*
X64410Y197452D01*
X64423Y197468D01*
X64438Y197481D01*
X64518Y197595D01*
X64602Y197706D01*
X64614Y197731D01*
X64621Y197741D01*
X64628Y197760D01*
X64673Y197850D01*
X64787Y198126D01*
X68574Y201913D01*
X73522Y203963D01*
X78878Y203963D01*
X83826Y201913D01*
X87613Y198126D01*
X87727Y197850D01*
X87796Y197730D01*
X87861Y197607D01*
X87875Y197592D01*
X87885Y197574D01*
X87982Y197474D01*
X88075Y197371D01*
X88092Y197360D01*
X88106Y197346D01*
X88225Y197273D01*
X88341Y197197D01*
X88360Y197190D01*
X88377Y197179D01*
X88510Y197138D01*
X88642Y197093D01*
X88662Y197092D01*
X88681Y197086D01*
X88820Y197079D01*
X88959Y197068D01*
X88979Y197072D01*
X88999Y197071D01*
X89135Y197099D01*
X89272Y197123D01*
X89290Y197131D01*
X89310Y197135D01*
X89435Y197196D01*
X89562Y197253D01*
X89578Y197266D01*
X89596Y197275D01*
X89702Y197365D01*
X89810Y197452D01*
X89823Y197468D01*
X89838Y197481D01*
X89918Y197595D01*
X90002Y197706D01*
X90014Y197731D01*
X90021Y197741D01*
X90028Y197760D01*
X90073Y197850D01*
X90187Y198126D01*
X93974Y201913D01*
X98922Y203963D01*
X104278Y203963D01*
X109226Y201913D01*
X113013Y198126D01*
X113127Y197850D01*
X113196Y197730D01*
X113261Y197607D01*
X113275Y197592D01*
X113285Y197574D01*
X113382Y197474D01*
X113475Y197371D01*
X113492Y197360D01*
X113506Y197346D01*
X113625Y197273D01*
X113741Y197197D01*
X113760Y197190D01*
X113777Y197179D01*
X113910Y197138D01*
X114042Y197093D01*
X114062Y197092D01*
X114081Y197086D01*
X114220Y197079D01*
X114359Y197068D01*
X114379Y197072D01*
X114399Y197071D01*
X114535Y197099D01*
X114672Y197123D01*
X114690Y197131D01*
X114710Y197135D01*
X114835Y197196D01*
X114962Y197253D01*
X114978Y197266D01*
X114996Y197275D01*
X115102Y197365D01*
X115210Y197452D01*
X115223Y197468D01*
X115238Y197481D01*
X115318Y197595D01*
X115402Y197706D01*
X115414Y197731D01*
X115421Y197741D01*
X115428Y197760D01*
X115473Y197850D01*
X115587Y198126D01*
X119374Y201913D01*
X124322Y203963D01*
X129678Y203963D01*
X134626Y201913D01*
X138413Y198126D01*
X138527Y197850D01*
X138596Y197730D01*
X138661Y197607D01*
X138675Y197592D01*
X138685Y197574D01*
X138782Y197474D01*
X138875Y197371D01*
X138892Y197360D01*
X138906Y197346D01*
X139025Y197273D01*
X139141Y197197D01*
X139160Y197190D01*
X139177Y197179D01*
X139310Y197138D01*
X139442Y197093D01*
X139462Y197092D01*
X139481Y197086D01*
X139620Y197079D01*
X139759Y197068D01*
X139779Y197072D01*
X139799Y197071D01*
X139935Y197099D01*
X140072Y197123D01*
X140090Y197131D01*
X140110Y197135D01*
X140235Y197196D01*
X140362Y197253D01*
X140378Y197266D01*
X140396Y197275D01*
X140502Y197365D01*
X140610Y197452D01*
X140623Y197468D01*
X140638Y197481D01*
X140718Y197595D01*
X140802Y197706D01*
X140814Y197731D01*
X140821Y197741D01*
X140828Y197760D01*
X140873Y197850D01*
X140987Y198126D01*
X144774Y201913D01*
X149722Y203963D01*
X155078Y203963D01*
X160026Y201913D01*
X163813Y198126D01*
X163927Y197850D01*
X163996Y197730D01*
X164061Y197607D01*
X164075Y197592D01*
X164085Y197574D01*
X164182Y197474D01*
X164275Y197371D01*
X164292Y197360D01*
X164306Y197346D01*
X164425Y197273D01*
X164541Y197197D01*
X164560Y197190D01*
X164577Y197179D01*
X164710Y197138D01*
X164842Y197093D01*
X164862Y197092D01*
X164881Y197086D01*
X165020Y197079D01*
X165159Y197068D01*
X165179Y197072D01*
X165199Y197071D01*
X165335Y197099D01*
X165472Y197123D01*
X165490Y197131D01*
X165510Y197135D01*
X165635Y197196D01*
X165762Y197253D01*
X165778Y197266D01*
X165796Y197275D01*
X165902Y197365D01*
X166010Y197452D01*
X166023Y197468D01*
X166038Y197481D01*
X166118Y197595D01*
X166202Y197706D01*
X166214Y197731D01*
X166221Y197741D01*
X166228Y197760D01*
X166273Y197850D01*
X166387Y198126D01*
X170174Y201913D01*
X175122Y203963D01*
X180478Y203963D01*
X185426Y201913D01*
X189213Y198126D01*
X189327Y197850D01*
X189396Y197730D01*
X189461Y197607D01*
X189475Y197592D01*
X189485Y197574D01*
X189582Y197474D01*
X189675Y197371D01*
X189692Y197360D01*
X189706Y197346D01*
X189825Y197273D01*
X189941Y197197D01*
X189960Y197190D01*
X189977Y197179D01*
X190110Y197138D01*
X190242Y197093D01*
X190262Y197092D01*
X190281Y197086D01*
X190420Y197079D01*
X190559Y197068D01*
X190579Y197072D01*
X190599Y197071D01*
X190735Y197099D01*
X190872Y197123D01*
X190890Y197131D01*
X190910Y197135D01*
X191035Y197196D01*
X191162Y197253D01*
X191178Y197266D01*
X191196Y197275D01*
X191302Y197365D01*
X191410Y197452D01*
X191423Y197468D01*
X191438Y197481D01*
X191518Y197595D01*
X191602Y197706D01*
X191614Y197731D01*
X191621Y197741D01*
X191628Y197760D01*
X191673Y197850D01*
X191787Y198126D01*
X195574Y201913D01*
X200522Y203963D01*
X205878Y203963D01*
X210826Y201913D01*
X214613Y198126D01*
X214727Y197850D01*
X214796Y197730D01*
X214861Y197607D01*
X214875Y197592D01*
X214885Y197574D01*
X214982Y197474D01*
X215075Y197371D01*
X215092Y197360D01*
X215106Y197346D01*
X215225Y197273D01*
X215341Y197197D01*
X215360Y197190D01*
X215377Y197179D01*
X215510Y197138D01*
X215642Y197093D01*
X215662Y197092D01*
X215681Y197086D01*
X215820Y197079D01*
X215959Y197068D01*
X215979Y197072D01*
X215999Y197071D01*
X216135Y197099D01*
X216272Y197123D01*
X216290Y197131D01*
X216310Y197135D01*
X216435Y197196D01*
X216562Y197253D01*
X216578Y197266D01*
X216596Y197275D01*
X216702Y197365D01*
X216810Y197452D01*
X216823Y197468D01*
X216838Y197481D01*
X216918Y197595D01*
X217002Y197706D01*
X217014Y197731D01*
X217021Y197741D01*
X217028Y197760D01*
X217073Y197850D01*
X217187Y198126D01*
X220974Y201913D01*
X225922Y203963D01*
X231278Y203963D01*
X236226Y201913D01*
X240013Y198126D01*
X240127Y197850D01*
X240196Y197730D01*
X240261Y197607D01*
X240275Y197592D01*
X240285Y197574D01*
X240382Y197474D01*
X240475Y197371D01*
X240492Y197360D01*
X240506Y197346D01*
X240625Y197273D01*
X240741Y197197D01*
X240760Y197190D01*
X240777Y197179D01*
X240910Y197138D01*
X241042Y197093D01*
X241062Y197092D01*
X241081Y197086D01*
X241220Y197079D01*
X241359Y197068D01*
X241379Y197072D01*
X241399Y197071D01*
X241535Y197099D01*
X241672Y197123D01*
X241690Y197131D01*
X241710Y197135D01*
X241835Y197196D01*
X241962Y197253D01*
X241978Y197266D01*
X241996Y197275D01*
X242102Y197365D01*
X242210Y197452D01*
X242223Y197468D01*
X242238Y197481D01*
X242318Y197595D01*
X242402Y197706D01*
X242414Y197731D01*
X242421Y197741D01*
X242428Y197760D01*
X242473Y197850D01*
X242587Y198126D01*
X246374Y201913D01*
X251322Y203963D01*
X256678Y203963D01*
X257932Y203443D01*
X257960Y203436D01*
X257986Y203422D01*
X258113Y203394D01*
X258238Y203359D01*
X258268Y203359D01*
X258297Y203353D01*
X258427Y203356D01*
X258556Y203354D01*
X258585Y203361D01*
X258615Y203362D01*
X258739Y203398D01*
X258866Y203429D01*
X258892Y203442D01*
X258920Y203451D01*
X259032Y203516D01*
X259147Y203577D01*
X259169Y203597D01*
X259194Y203612D01*
X259315Y203719D01*
X263741Y208145D01*
X263826Y208254D01*
X263915Y208361D01*
X263923Y208380D01*
X263936Y208396D01*
X263991Y208524D01*
X264050Y208649D01*
X264054Y208669D01*
X264062Y208688D01*
X264084Y208826D01*
X264110Y208962D01*
X264109Y208982D01*
X264112Y209002D01*
X264099Y209141D01*
X264090Y209279D01*
X264084Y209298D01*
X264082Y209318D01*
X264035Y209450D01*
X263992Y209581D01*
X263981Y209599D01*
X263975Y209618D01*
X263897Y209733D01*
X263822Y209850D01*
X263807Y209864D01*
X263796Y209881D01*
X263692Y209973D01*
X263591Y210068D01*
X263573Y210078D01*
X263558Y210091D01*
X263433Y210155D01*
X263312Y210222D01*
X263292Y210227D01*
X263274Y210236D01*
X263139Y210266D01*
X263004Y210301D01*
X262976Y210303D01*
X262964Y210306D01*
X262944Y210305D01*
X262843Y210311D01*
X167163Y210311D01*
X165109Y211162D01*
X84162Y292109D01*
X83311Y294163D01*
X83311Y405574D01*
X83305Y405623D01*
X83307Y405673D01*
X83285Y405780D01*
X83271Y405890D01*
X83253Y405936D01*
X83243Y405984D01*
X83195Y406083D01*
X83154Y406185D01*
X83125Y406226D01*
X83103Y406270D01*
X83032Y406354D01*
X82968Y406443D01*
X82929Y406474D01*
X82897Y406512D01*
X82807Y406575D01*
X82723Y406645D01*
X82678Y406667D01*
X82637Y406695D01*
X82534Y406734D01*
X82435Y406781D01*
X82386Y406790D01*
X82340Y406808D01*
X82230Y406820D01*
X82123Y406841D01*
X82073Y406838D01*
X82024Y406843D01*
X81915Y406828D01*
X81805Y406821D01*
X81758Y406806D01*
X81709Y406799D01*
X81556Y406747D01*
X78878Y405637D01*
X73522Y405637D01*
X68574Y407687D01*
X64787Y411474D01*
X64673Y411750D01*
X64604Y411870D01*
X64539Y411993D01*
X64525Y412008D01*
X64515Y412026D01*
X64419Y412125D01*
X64325Y412229D01*
X64308Y412240D01*
X64294Y412254D01*
X64175Y412327D01*
X64059Y412403D01*
X64040Y412410D01*
X64023Y412421D01*
X63890Y412462D01*
X63758Y412507D01*
X63738Y412508D01*
X63719Y412514D01*
X63580Y412521D01*
X63441Y412532D01*
X63421Y412528D01*
X63401Y412529D01*
X63265Y412501D01*
X63128Y412478D01*
X63109Y412469D01*
X63090Y412465D01*
X62965Y412404D01*
X62838Y412347D01*
X62822Y412334D01*
X62804Y412325D01*
X62698Y412235D01*
X62590Y412148D01*
X62577Y412132D01*
X62562Y412119D01*
X62482Y412005D01*
X62398Y411894D01*
X62386Y411869D01*
X62379Y411859D01*
X62372Y411840D01*
X62327Y411750D01*
X62213Y411474D01*
X58426Y407687D01*
X53478Y405637D01*
X48122Y405637D01*
X43174Y407687D01*
X39387Y411474D01*
X39273Y411750D01*
X39204Y411870D01*
X39139Y411993D01*
X39125Y412008D01*
X39115Y412026D01*
X39018Y412126D01*
X38925Y412229D01*
X38908Y412240D01*
X38894Y412254D01*
X38775Y412327D01*
X38659Y412403D01*
X38640Y412410D01*
X38623Y412421D01*
X38490Y412462D01*
X38358Y412507D01*
X38338Y412508D01*
X38319Y412514D01*
X38180Y412521D01*
X38041Y412532D01*
X38021Y412528D01*
X38001Y412529D01*
X37865Y412501D01*
X37728Y412477D01*
X37709Y412469D01*
X37690Y412465D01*
X37565Y412404D01*
X37438Y412347D01*
X37422Y412334D01*
X37404Y412325D01*
X37298Y412235D01*
X37189Y412148D01*
X37177Y412132D01*
X37162Y412119D01*
X37082Y412006D01*
X36998Y411894D01*
X36986Y411869D01*
X36979Y411859D01*
X36972Y411840D01*
X36927Y411750D01*
X36813Y411474D01*
X33026Y407687D01*
X28078Y405637D01*
X22722Y405637D01*
X17774Y407687D01*
X13987Y411474D01*
X11937Y416422D01*
X11937Y421778D01*
X13987Y426726D01*
X17774Y430513D01*
X22722Y432563D01*
X28078Y432563D01*
X33026Y430513D01*
X36813Y426726D01*
X36927Y426450D01*
X36996Y426330D01*
X37061Y426207D01*
X37075Y426192D01*
X37085Y426174D01*
X37182Y426074D01*
X37275Y425971D01*
X37292Y425960D01*
X37306Y425946D01*
X37425Y425873D01*
X37541Y425797D01*
X37560Y425790D01*
X37577Y425779D01*
X37710Y425738D01*
X37842Y425693D01*
X37862Y425692D01*
X37881Y425686D01*
X38020Y425679D01*
X38159Y425668D01*
X38179Y425672D01*
X38199Y425671D01*
X38335Y425699D01*
X38472Y425723D01*
X38490Y425731D01*
X38510Y425735D01*
X38635Y425796D01*
X38762Y425853D01*
X38778Y425866D01*
X38796Y425875D01*
X38902Y425965D01*
X39010Y426052D01*
X39023Y426068D01*
X39038Y426081D01*
X39118Y426195D01*
X39202Y426306D01*
X39214Y426331D01*
X39221Y426341D01*
X39228Y426360D01*
X39273Y426450D01*
X39387Y426726D01*
X43174Y430513D01*
X48122Y432563D01*
X53478Y432563D01*
X58426Y430513D01*
X62213Y426726D01*
X62327Y426450D01*
X62396Y426329D01*
X62461Y426207D01*
X62475Y426192D01*
X62485Y426174D01*
X62582Y426074D01*
X62675Y425971D01*
X62692Y425960D01*
X62706Y425946D01*
X62824Y425873D01*
X62941Y425796D01*
X62960Y425790D01*
X62977Y425779D01*
X63110Y425738D01*
X63242Y425693D01*
X63262Y425692D01*
X63281Y425686D01*
X63420Y425679D01*
X63559Y425668D01*
X63579Y425672D01*
X63599Y425671D01*
X63735Y425699D01*
X63872Y425723D01*
X63891Y425731D01*
X63910Y425735D01*
X64036Y425796D01*
X64162Y425853D01*
X64178Y425866D01*
X64196Y425875D01*
X64302Y425965D01*
X64411Y426052D01*
X64423Y426068D01*
X64438Y426081D01*
X64519Y426195D01*
X64602Y426306D01*
X64614Y426331D01*
X64621Y426341D01*
X64628Y426360D01*
X64673Y426450D01*
X64787Y426726D01*
X68574Y430513D01*
X73522Y432563D01*
X78878Y432563D01*
X83826Y430513D01*
X84590Y429749D01*
X84684Y429676D01*
X84773Y429597D01*
X84809Y429579D01*
X84841Y429554D01*
X84950Y429507D01*
X85057Y429453D01*
X85096Y429444D01*
X85133Y429428D01*
X85251Y429409D01*
X85367Y429383D01*
X85407Y429384D01*
X85447Y429378D01*
X85566Y429389D01*
X85685Y429393D01*
X85724Y429404D01*
X85764Y429408D01*
X85876Y429448D01*
X85990Y429481D01*
X86025Y429502D01*
X86063Y429515D01*
X86162Y429582D01*
X86264Y429643D01*
X86309Y429683D01*
X86326Y429694D01*
X86340Y429709D01*
X86385Y429749D01*
X116823Y460187D01*
X118574Y461938D01*
X120628Y462789D01*
X140669Y462789D01*
X140768Y462801D01*
X140867Y462804D01*
X140925Y462821D01*
X140985Y462829D01*
X141077Y462865D01*
X141172Y462893D01*
X141224Y462923D01*
X141281Y462946D01*
X141361Y463004D01*
X141446Y463054D01*
X141521Y463120D01*
X141538Y463132D01*
X141546Y463142D01*
X141567Y463160D01*
X176586Y498180D01*
X176659Y498274D01*
X176738Y498363D01*
X176749Y498384D01*
X176755Y498392D01*
X176762Y498406D01*
X176781Y498431D01*
X176829Y498541D01*
X176883Y498647D01*
X176890Y498678D01*
X176890Y498679D01*
X176892Y498686D01*
X176908Y498723D01*
X176926Y498841D01*
X176952Y498957D01*
X176951Y498997D01*
X176958Y499037D01*
X176946Y499156D01*
X176943Y499275D01*
X176932Y499314D01*
X176928Y499354D01*
X176888Y499466D01*
X176854Y499580D01*
X176834Y499615D01*
X176820Y499653D01*
X176753Y499752D01*
X176693Y499854D01*
X176653Y499900D01*
X176642Y499916D01*
X176626Y499930D01*
X176586Y499975D01*
X176331Y500230D01*
X174720Y504119D01*
X174652Y504240D01*
X174587Y504363D01*
X174573Y504378D01*
X174563Y504396D01*
X174466Y504496D01*
X174373Y504598D01*
X174356Y504610D01*
X174342Y504624D01*
X174223Y504697D01*
X174107Y504773D01*
X174088Y504780D01*
X174071Y504790D01*
X173938Y504831D01*
X173806Y504876D01*
X173786Y504878D01*
X173767Y504884D01*
X173628Y504891D01*
X173489Y504902D01*
X173469Y504898D01*
X173449Y504899D01*
X173313Y504871D01*
X173176Y504847D01*
X173157Y504839D01*
X173137Y504835D01*
X173012Y504774D01*
X172886Y504717D01*
X172870Y504704D01*
X172852Y504695D01*
X172746Y504605D01*
X172637Y504518D01*
X172625Y504502D01*
X172610Y504489D01*
X172530Y504375D01*
X172446Y504264D01*
X172434Y504239D01*
X172427Y504229D01*
X172419Y504210D01*
X172375Y504119D01*
X169304Y496705D01*
X163695Y491096D01*
X156366Y488060D01*
X148434Y488060D01*
X141105Y491096D01*
X135496Y496705D01*
X132460Y504034D01*
X132460Y511966D01*
X135496Y519295D01*
X141105Y524904D01*
X148434Y527940D01*
X156366Y527940D01*
X163695Y524904D01*
X169304Y519295D01*
X172375Y511881D01*
X172444Y511760D01*
X172509Y511637D01*
X172523Y511622D01*
X172533Y511604D01*
X172630Y511504D01*
X172723Y511402D01*
X172740Y511390D01*
X172754Y511376D01*
X172873Y511303D01*
X172989Y511227D01*
X173008Y511220D01*
X173025Y511210D01*
X173158Y511169D01*
X173290Y511124D01*
X173310Y511122D01*
X173329Y511116D01*
X173467Y511109D01*
X173607Y511098D01*
X173627Y511102D01*
X173647Y511101D01*
X173783Y511129D01*
X173920Y511153D01*
X173938Y511161D01*
X173958Y511165D01*
X174084Y511226D01*
X174210Y511283D01*
X174226Y511296D01*
X174244Y511305D01*
X174350Y511395D01*
X174458Y511482D01*
X174470Y511498D01*
X174486Y511511D01*
X174566Y511625D01*
X174650Y511736D01*
X174662Y511761D01*
X174669Y511771D01*
X174676Y511790D01*
X174720Y511881D01*
X176331Y515770D01*
X180190Y519629D01*
X185232Y521717D01*
X190688Y521717D01*
X195730Y519629D01*
X199763Y515596D01*
X199857Y515523D01*
X199946Y515444D01*
X199982Y515426D01*
X200014Y515401D01*
X200123Y515354D01*
X200229Y515300D01*
X200268Y515291D01*
X200306Y515275D01*
X200423Y515256D01*
X200539Y515230D01*
X200580Y515231D01*
X200620Y515225D01*
X200738Y515236D01*
X200857Y515240D01*
X200896Y515251D01*
X200936Y515255D01*
X201049Y515295D01*
X201163Y515328D01*
X201198Y515348D01*
X201236Y515362D01*
X201334Y515429D01*
X201437Y515490D01*
X201482Y515529D01*
X201499Y515541D01*
X201512Y515556D01*
X201558Y515596D01*
X205590Y519629D01*
X210632Y521717D01*
X216088Y521717D01*
X221130Y519629D01*
X225163Y515596D01*
X225257Y515523D01*
X225346Y515444D01*
X225382Y515426D01*
X225414Y515401D01*
X225523Y515354D01*
X225629Y515300D01*
X225668Y515291D01*
X225706Y515275D01*
X225823Y515256D01*
X225939Y515230D01*
X225980Y515231D01*
X226020Y515225D01*
X226138Y515236D01*
X226257Y515240D01*
X226296Y515251D01*
X226336Y515255D01*
X226449Y515295D01*
X226563Y515328D01*
X226598Y515348D01*
X226636Y515362D01*
X226734Y515429D01*
X226837Y515490D01*
X226882Y515529D01*
X226899Y515541D01*
X226912Y515556D01*
X226958Y515596D01*
X230990Y519629D01*
X236032Y521717D01*
X241488Y521717D01*
X246530Y519629D01*
X250389Y515770D01*
X251149Y513933D01*
X251194Y513856D01*
X251229Y513773D01*
X251272Y513718D01*
X251307Y513657D01*
X251369Y513593D01*
X251424Y513522D01*
X251479Y513479D01*
X251528Y513429D01*
X251604Y513382D01*
X251675Y513327D01*
X251740Y513299D01*
X251799Y513262D01*
X251885Y513236D01*
X251967Y513200D01*
X252036Y513189D01*
X252103Y513169D01*
X252193Y513164D01*
X252281Y513150D01*
X252351Y513157D01*
X252421Y513154D01*
X252509Y513172D01*
X252598Y513180D01*
X252664Y513204D01*
X252732Y513218D01*
X252813Y513257D01*
X252897Y513287D01*
X252955Y513327D01*
X253018Y513358D01*
X253086Y513416D01*
X253160Y513466D01*
X253207Y513519D01*
X253260Y513564D01*
X253311Y513637D01*
X253371Y513704D01*
X253435Y513812D01*
X253443Y513824D01*
X253445Y513830D01*
X253453Y513843D01*
X253732Y514390D01*
X254860Y515943D01*
X256217Y517300D01*
X257770Y518428D01*
X259480Y519299D01*
X261305Y519893D01*
X261621Y519943D01*
X261621Y509270D01*
X261636Y509152D01*
X261643Y509033D01*
X261656Y508995D01*
X261661Y508955D01*
X261704Y508844D01*
X261741Y508731D01*
X261763Y508697D01*
X261778Y508659D01*
X261848Y508563D01*
X261911Y508462D01*
X261941Y508434D01*
X261964Y508402D01*
X262056Y508326D01*
X262143Y508244D01*
X262178Y508225D01*
X262209Y508199D01*
X262317Y508148D01*
X262421Y508091D01*
X262461Y508080D01*
X262497Y508063D01*
X262614Y508041D01*
X262729Y508011D01*
X262790Y508007D01*
X262810Y508003D01*
X262830Y508005D01*
X262890Y508001D01*
X265430Y508001D01*
X265548Y508016D01*
X265667Y508023D01*
X265705Y508036D01*
X265745Y508041D01*
X265856Y508085D01*
X265969Y508121D01*
X266004Y508143D01*
X266041Y508158D01*
X266137Y508228D01*
X266238Y508291D01*
X266266Y508321D01*
X266299Y508345D01*
X266374Y508436D01*
X266456Y508523D01*
X266476Y508558D01*
X266501Y508590D01*
X266552Y508697D01*
X266610Y508802D01*
X266620Y508841D01*
X266637Y508877D01*
X266659Y508994D01*
X266689Y509109D01*
X266693Y509170D01*
X266697Y509190D01*
X266695Y509210D01*
X266699Y509270D01*
X266699Y519943D01*
X267015Y519893D01*
X268840Y519299D01*
X270550Y518428D01*
X272103Y517300D01*
X273460Y515943D01*
X274588Y514390D01*
X274867Y513843D01*
X274917Y513769D01*
X274959Y513690D01*
X275007Y513638D01*
X275046Y513580D01*
X275113Y513521D01*
X275173Y513454D01*
X275232Y513416D01*
X275284Y513369D01*
X275364Y513329D01*
X275439Y513279D01*
X275505Y513257D01*
X275568Y513225D01*
X275655Y513205D01*
X275740Y513176D01*
X275810Y513171D01*
X275878Y513155D01*
X275968Y513158D01*
X276057Y513151D01*
X276126Y513163D01*
X276196Y513165D01*
X276282Y513190D01*
X276370Y513205D01*
X276434Y513234D01*
X276501Y513254D01*
X276578Y513299D01*
X276660Y513336D01*
X276715Y513380D01*
X276775Y513415D01*
X276839Y513479D01*
X276909Y513535D01*
X276951Y513591D01*
X277000Y513640D01*
X277046Y513717D01*
X277100Y513789D01*
X277155Y513901D01*
X277162Y513914D01*
X277164Y513920D01*
X277171Y513933D01*
X277931Y515770D01*
X281790Y519629D01*
X286832Y521717D01*
X292288Y521717D01*
X297330Y519629D01*
X301363Y515596D01*
X301457Y515523D01*
X301546Y515444D01*
X301582Y515426D01*
X301614Y515401D01*
X301723Y515354D01*
X301829Y515300D01*
X301868Y515291D01*
X301906Y515275D01*
X302023Y515256D01*
X302139Y515230D01*
X302180Y515231D01*
X302220Y515225D01*
X302338Y515236D01*
X302457Y515240D01*
X302496Y515251D01*
X302536Y515255D01*
X302649Y515295D01*
X302763Y515328D01*
X302798Y515348D01*
X302836Y515362D01*
X302934Y515429D01*
X303037Y515490D01*
X303082Y515529D01*
X303099Y515541D01*
X303112Y515556D01*
X303158Y515596D01*
X307190Y519629D01*
X312232Y521717D01*
X317688Y521717D01*
X322730Y519629D01*
X326763Y515596D01*
X326857Y515523D01*
X326946Y515444D01*
X326982Y515426D01*
X327014Y515401D01*
X327123Y515354D01*
X327229Y515300D01*
X327268Y515291D01*
X327306Y515275D01*
X327423Y515256D01*
X327539Y515230D01*
X327580Y515231D01*
X327620Y515225D01*
X327738Y515236D01*
X327857Y515240D01*
X327896Y515251D01*
X327936Y515255D01*
X328049Y515295D01*
X328163Y515328D01*
X328198Y515348D01*
X328236Y515362D01*
X328334Y515429D01*
X328437Y515490D01*
X328482Y515529D01*
X328499Y515541D01*
X328512Y515556D01*
X328558Y515596D01*
X332590Y519629D01*
X337632Y521717D01*
X343088Y521717D01*
X348130Y519629D01*
X352163Y515596D01*
X352257Y515523D01*
X352346Y515444D01*
X352382Y515426D01*
X352414Y515401D01*
X352523Y515354D01*
X352629Y515300D01*
X352668Y515291D01*
X352706Y515275D01*
X352823Y515256D01*
X352939Y515230D01*
X352980Y515231D01*
X353020Y515225D01*
X353138Y515236D01*
X353257Y515240D01*
X353296Y515251D01*
X353336Y515255D01*
X353449Y515295D01*
X353563Y515328D01*
X353598Y515348D01*
X353636Y515362D01*
X353734Y515429D01*
X353837Y515490D01*
X353882Y515529D01*
X353899Y515541D01*
X353912Y515556D01*
X353958Y515596D01*
X357990Y519629D01*
X363032Y521717D01*
X368488Y521717D01*
X373530Y519629D01*
X377563Y515596D01*
X377657Y515523D01*
X377746Y515444D01*
X377782Y515426D01*
X377814Y515401D01*
X377923Y515354D01*
X378029Y515300D01*
X378068Y515291D01*
X378106Y515275D01*
X378223Y515256D01*
X378339Y515230D01*
X378380Y515231D01*
X378420Y515225D01*
X378538Y515236D01*
X378657Y515240D01*
X378696Y515251D01*
X378736Y515255D01*
X378849Y515295D01*
X378963Y515328D01*
X378998Y515348D01*
X379036Y515362D01*
X379134Y515429D01*
X379237Y515490D01*
X379282Y515529D01*
X379299Y515541D01*
X379312Y515556D01*
X379358Y515596D01*
X383390Y519629D01*
X388432Y521717D01*
X393888Y521717D01*
X398930Y519629D01*
X402963Y515596D01*
X403057Y515523D01*
X403146Y515444D01*
X403182Y515426D01*
X403214Y515401D01*
X403323Y515354D01*
X403429Y515300D01*
X403468Y515291D01*
X403506Y515275D01*
X403623Y515256D01*
X403739Y515230D01*
X403780Y515231D01*
X403820Y515225D01*
X403938Y515236D01*
X404057Y515240D01*
X404096Y515251D01*
X404136Y515255D01*
X404249Y515295D01*
X404363Y515328D01*
X404398Y515348D01*
X404436Y515362D01*
X404534Y515429D01*
X404637Y515490D01*
X404682Y515529D01*
X404699Y515541D01*
X404712Y515556D01*
X404758Y515596D01*
X408790Y519629D01*
X413832Y521717D01*
X419288Y521717D01*
X424330Y519629D01*
X428189Y515770D01*
X430277Y510728D01*
X430277Y505272D01*
X428189Y500230D01*
X424330Y496371D01*
X422932Y495793D01*
X422907Y495778D01*
X422879Y495769D01*
X422769Y495699D01*
X422656Y495635D01*
X422635Y495615D01*
X422610Y495599D01*
X422521Y495504D01*
X422428Y495414D01*
X422412Y495389D01*
X422392Y495367D01*
X422329Y495253D01*
X422261Y495143D01*
X422253Y495114D01*
X422238Y495089D01*
X422206Y494963D01*
X422168Y494839D01*
X422166Y494809D01*
X422159Y494781D01*
X422149Y494620D01*
X422149Y481488D01*
X421298Y479434D01*
X416979Y475115D01*
X416894Y475006D01*
X416805Y474899D01*
X416797Y474880D01*
X416784Y474864D01*
X416729Y474736D01*
X416670Y474611D01*
X416666Y474591D01*
X416658Y474572D01*
X416636Y474434D01*
X416610Y474298D01*
X416611Y474278D01*
X416608Y474258D01*
X416621Y474119D01*
X416630Y473981D01*
X416636Y473962D01*
X416638Y473942D01*
X416685Y473810D01*
X416728Y473679D01*
X416739Y473661D01*
X416745Y473642D01*
X416823Y473527D01*
X416898Y473410D01*
X416913Y473396D01*
X416924Y473379D01*
X417028Y473287D01*
X417129Y473192D01*
X417147Y473182D01*
X417162Y473169D01*
X417287Y473105D01*
X417408Y473038D01*
X417428Y473033D01*
X417446Y473024D01*
X417581Y472994D01*
X417716Y472959D01*
X417744Y472957D01*
X417756Y472954D01*
X417776Y472955D01*
X417877Y472949D01*
X445469Y472949D01*
X445568Y472961D01*
X445667Y472964D01*
X445725Y472981D01*
X445785Y472989D01*
X445877Y473025D01*
X445972Y473053D01*
X446024Y473083D01*
X446081Y473106D01*
X446161Y473164D01*
X446246Y473214D01*
X446321Y473280D01*
X446338Y473292D01*
X446346Y473302D01*
X446367Y473320D01*
X451240Y478193D01*
X451300Y478271D01*
X451368Y478344D01*
X451397Y478397D01*
X451434Y478444D01*
X451474Y478535D01*
X451522Y478622D01*
X451537Y478681D01*
X451561Y478736D01*
X451576Y478834D01*
X451601Y478930D01*
X451607Y479030D01*
X451611Y479050D01*
X451609Y479063D01*
X451611Y479091D01*
X451611Y494620D01*
X451608Y494649D01*
X451610Y494679D01*
X451588Y494807D01*
X451571Y494935D01*
X451561Y494963D01*
X451556Y494992D01*
X451502Y495111D01*
X451454Y495231D01*
X451437Y495255D01*
X451425Y495282D01*
X451344Y495383D01*
X451268Y495489D01*
X451245Y495507D01*
X451226Y495530D01*
X451123Y495609D01*
X451023Y495691D01*
X450996Y495704D01*
X450972Y495722D01*
X450828Y495793D01*
X449430Y496371D01*
X445571Y500230D01*
X443483Y505272D01*
X443483Y510728D01*
X445571Y515770D01*
X449430Y519629D01*
X454472Y521717D01*
X459928Y521717D01*
X464970Y519629D01*
X469003Y515596D01*
X469097Y515523D01*
X469186Y515444D01*
X469222Y515426D01*
X469254Y515401D01*
X469363Y515354D01*
X469469Y515300D01*
X469508Y515291D01*
X469546Y515275D01*
X469663Y515256D01*
X469779Y515230D01*
X469820Y515231D01*
X469860Y515225D01*
X469978Y515236D01*
X470097Y515240D01*
X470136Y515251D01*
X470176Y515255D01*
X470289Y515295D01*
X470403Y515328D01*
X470438Y515348D01*
X470476Y515362D01*
X470574Y515429D01*
X470677Y515490D01*
X470722Y515529D01*
X470739Y515541D01*
X470752Y515556D01*
X470798Y515596D01*
X474830Y519629D01*
X479872Y521717D01*
X485328Y521717D01*
X490370Y519629D01*
X494403Y515596D01*
X494497Y515523D01*
X494586Y515444D01*
X494622Y515426D01*
X494654Y515401D01*
X494763Y515354D01*
X494869Y515300D01*
X494908Y515291D01*
X494946Y515275D01*
X495063Y515256D01*
X495179Y515230D01*
X495220Y515231D01*
X495260Y515225D01*
X495378Y515236D01*
X495497Y515240D01*
X495536Y515251D01*
X495576Y515255D01*
X495689Y515295D01*
X495803Y515328D01*
X495838Y515348D01*
X495876Y515362D01*
X495974Y515429D01*
X496077Y515490D01*
X496122Y515529D01*
X496139Y515541D01*
X496152Y515556D01*
X496198Y515596D01*
X500230Y519629D01*
X505272Y521717D01*
X510728Y521717D01*
X515770Y519629D01*
X519803Y515596D01*
X519897Y515523D01*
X519986Y515444D01*
X520022Y515426D01*
X520054Y515401D01*
X520163Y515354D01*
X520269Y515300D01*
X520308Y515291D01*
X520346Y515275D01*
X520463Y515256D01*
X520579Y515230D01*
X520620Y515231D01*
X520660Y515225D01*
X520778Y515236D01*
X520897Y515240D01*
X520936Y515251D01*
X520976Y515255D01*
X521089Y515295D01*
X521203Y515328D01*
X521238Y515348D01*
X521276Y515362D01*
X521374Y515429D01*
X521477Y515490D01*
X521522Y515529D01*
X521539Y515541D01*
X521552Y515556D01*
X521598Y515596D01*
X525630Y519629D01*
X530672Y521717D01*
X536128Y521717D01*
X541170Y519629D01*
X545203Y515596D01*
X545297Y515523D01*
X545386Y515444D01*
X545422Y515426D01*
X545454Y515401D01*
X545563Y515354D01*
X545669Y515300D01*
X545708Y515291D01*
X545746Y515275D01*
X545863Y515256D01*
X545979Y515230D01*
X546020Y515231D01*
X546060Y515225D01*
X546178Y515236D01*
X546297Y515240D01*
X546336Y515251D01*
X546376Y515255D01*
X546489Y515295D01*
X546603Y515328D01*
X546638Y515348D01*
X546676Y515362D01*
X546774Y515429D01*
X546877Y515490D01*
X546922Y515529D01*
X546939Y515541D01*
X546952Y515556D01*
X546998Y515596D01*
X551030Y519629D01*
X556072Y521717D01*
X561528Y521717D01*
X566570Y519629D01*
X570603Y515596D01*
X570697Y515523D01*
X570786Y515444D01*
X570822Y515426D01*
X570854Y515401D01*
X570963Y515354D01*
X571069Y515300D01*
X571108Y515291D01*
X571146Y515275D01*
X571263Y515256D01*
X571379Y515230D01*
X571420Y515231D01*
X571460Y515225D01*
X571578Y515236D01*
X571697Y515240D01*
X571736Y515251D01*
X571776Y515255D01*
X571889Y515295D01*
X572003Y515328D01*
X572038Y515348D01*
X572076Y515362D01*
X572174Y515429D01*
X572277Y515490D01*
X572322Y515529D01*
X572339Y515541D01*
X572352Y515556D01*
X572398Y515596D01*
X576430Y519629D01*
X581472Y521717D01*
X586928Y521717D01*
X591970Y519629D01*
X596003Y515596D01*
X596097Y515523D01*
X596186Y515444D01*
X596222Y515426D01*
X596254Y515401D01*
X596363Y515354D01*
X596469Y515300D01*
X596508Y515291D01*
X596546Y515275D01*
X596663Y515256D01*
X596779Y515230D01*
X596820Y515231D01*
X596860Y515225D01*
X596978Y515236D01*
X597097Y515240D01*
X597136Y515251D01*
X597176Y515255D01*
X597289Y515295D01*
X597403Y515328D01*
X597438Y515348D01*
X597476Y515362D01*
X597574Y515429D01*
X597677Y515490D01*
X597722Y515529D01*
X597739Y515541D01*
X597752Y515556D01*
X597798Y515596D01*
X601830Y519629D01*
X606872Y521717D01*
X612328Y521717D01*
X617370Y519629D01*
X621403Y515596D01*
X621497Y515523D01*
X621586Y515444D01*
X621622Y515426D01*
X621654Y515401D01*
X621763Y515354D01*
X621869Y515300D01*
X621908Y515291D01*
X621946Y515275D01*
X622063Y515256D01*
X622179Y515230D01*
X622220Y515231D01*
X622260Y515225D01*
X622378Y515236D01*
X622497Y515240D01*
X622536Y515251D01*
X622576Y515255D01*
X622689Y515295D01*
X622803Y515328D01*
X622838Y515348D01*
X622876Y515362D01*
X622974Y515429D01*
X623077Y515490D01*
X623122Y515529D01*
X623139Y515541D01*
X623152Y515556D01*
X623198Y515596D01*
X627230Y519629D01*
X632272Y521717D01*
X637728Y521717D01*
X642770Y519629D01*
X646629Y515770D01*
X648717Y510728D01*
X648717Y505272D01*
X646629Y500230D01*
X642770Y496371D01*
X641372Y495793D01*
X641347Y495778D01*
X641319Y495769D01*
X641209Y495699D01*
X641096Y495635D01*
X641075Y495615D01*
X641050Y495599D01*
X640961Y495504D01*
X640868Y495414D01*
X640852Y495389D01*
X640832Y495367D01*
X640769Y495253D01*
X640701Y495143D01*
X640693Y495114D01*
X640678Y495089D01*
X640646Y494963D01*
X640608Y494839D01*
X640606Y494809D01*
X640599Y494781D01*
X640589Y494620D01*
X640589Y443388D01*
X639738Y441334D01*
X625466Y427062D01*
X623412Y426211D01*
X521526Y426211D01*
X521477Y426205D01*
X521427Y426207D01*
X521320Y426185D01*
X521210Y426171D01*
X521164Y426153D01*
X521116Y426143D01*
X521017Y426095D01*
X520915Y426054D01*
X520874Y426025D01*
X520830Y426003D01*
X520746Y425932D01*
X520657Y425868D01*
X520626Y425829D01*
X520588Y425797D01*
X520525Y425707D01*
X520455Y425623D01*
X520433Y425578D01*
X520405Y425537D01*
X520366Y425434D01*
X520319Y425335D01*
X520310Y425286D01*
X520292Y425240D01*
X520280Y425130D01*
X520259Y425023D01*
X520262Y424973D01*
X520257Y424924D01*
X520272Y424815D01*
X520279Y424705D01*
X520294Y424658D01*
X520301Y424609D01*
X520353Y424456D01*
X521463Y421778D01*
X521463Y416422D01*
X519413Y411474D01*
X515626Y407687D01*
X510678Y405637D01*
X507031Y405637D01*
X506893Y405620D01*
X506754Y405607D01*
X506735Y405600D01*
X506715Y405597D01*
X506586Y405546D01*
X506455Y405499D01*
X506438Y405488D01*
X506419Y405480D01*
X506307Y405399D01*
X506192Y405321D01*
X506178Y405305D01*
X506162Y405294D01*
X506073Y405186D01*
X505981Y405082D01*
X505972Y405064D01*
X505959Y405049D01*
X505900Y404923D01*
X505837Y404799D01*
X505832Y404779D01*
X505824Y404761D01*
X505798Y404625D01*
X505767Y404489D01*
X505768Y404468D01*
X505764Y404449D01*
X505773Y404310D01*
X505777Y404171D01*
X505782Y404151D01*
X505784Y404131D01*
X505826Y403999D01*
X505865Y403865D01*
X505875Y403848D01*
X505882Y403829D01*
X505956Y403711D01*
X506027Y403591D01*
X506045Y403570D01*
X506052Y403560D01*
X506067Y403546D01*
X506133Y403471D01*
X509943Y399660D01*
X510021Y399600D01*
X510094Y399532D01*
X510147Y399503D01*
X510194Y399466D01*
X510285Y399426D01*
X510372Y399378D01*
X510431Y399363D01*
X510486Y399339D01*
X510584Y399324D01*
X510680Y399299D01*
X510780Y399293D01*
X510800Y399289D01*
X510813Y399291D01*
X510841Y399289D01*
X578918Y399289D01*
X579017Y399301D01*
X579116Y399304D01*
X579174Y399321D01*
X579234Y399329D01*
X579326Y399365D01*
X579421Y399393D01*
X579473Y399423D01*
X579530Y399446D01*
X579610Y399504D01*
X579695Y399554D01*
X579770Y399620D01*
X579787Y399632D01*
X579795Y399642D01*
X579816Y399660D01*
X580057Y399901D01*
X582745Y401015D01*
X585655Y401015D01*
X588343Y399901D01*
X590401Y397843D01*
X591515Y395155D01*
X591515Y392245D01*
X590401Y389557D01*
X588343Y387499D01*
X585655Y386385D01*
X582745Y386385D01*
X580057Y387499D01*
X579816Y387740D01*
X579738Y387800D01*
X579666Y387868D01*
X579613Y387897D01*
X579565Y387934D01*
X579474Y387974D01*
X579387Y388022D01*
X579328Y388037D01*
X579273Y388061D01*
X579175Y388076D01*
X579079Y388101D01*
X578979Y388107D01*
X578959Y388111D01*
X578946Y388109D01*
X578918Y388111D01*
X506888Y388111D01*
X504834Y388962D01*
X487915Y405881D01*
X487892Y405900D01*
X487872Y405922D01*
X487766Y405997D01*
X487664Y406076D01*
X487637Y406088D01*
X487612Y406105D01*
X487491Y406151D01*
X487372Y406203D01*
X487343Y406207D01*
X487315Y406218D01*
X487186Y406232D01*
X487058Y406253D01*
X487028Y406250D01*
X486999Y406253D01*
X486870Y406235D01*
X486741Y406223D01*
X486713Y406213D01*
X486684Y406209D01*
X486532Y406157D01*
X485278Y405637D01*
X479922Y405637D01*
X474974Y407687D01*
X471187Y411474D01*
X471073Y411750D01*
X471004Y411871D01*
X470939Y411993D01*
X470925Y412008D01*
X470915Y412026D01*
X470818Y412126D01*
X470725Y412229D01*
X470708Y412240D01*
X470694Y412254D01*
X470576Y412327D01*
X470459Y412404D01*
X470440Y412410D01*
X470423Y412421D01*
X470290Y412462D01*
X470158Y412507D01*
X470138Y412508D01*
X470119Y412514D01*
X469980Y412521D01*
X469841Y412532D01*
X469821Y412528D01*
X469801Y412529D01*
X469665Y412501D01*
X469528Y412477D01*
X469509Y412469D01*
X469490Y412465D01*
X469364Y412404D01*
X469238Y412347D01*
X469222Y412334D01*
X469204Y412325D01*
X469098Y412235D01*
X468989Y412148D01*
X468977Y412132D01*
X468962Y412119D01*
X468881Y412005D01*
X468798Y411894D01*
X468786Y411869D01*
X468779Y411859D01*
X468772Y411840D01*
X468727Y411750D01*
X468613Y411474D01*
X464826Y407687D01*
X459878Y405637D01*
X455871Y405637D01*
X455734Y405620D01*
X455595Y405607D01*
X455576Y405600D01*
X455556Y405597D01*
X455427Y405546D01*
X455296Y405499D01*
X455279Y405488D01*
X455260Y405480D01*
X455148Y405399D01*
X455033Y405321D01*
X455019Y405305D01*
X455003Y405294D01*
X454914Y405186D01*
X454822Y405082D01*
X454813Y405064D01*
X454800Y405049D01*
X454741Y404923D01*
X454678Y404799D01*
X454673Y404779D01*
X454664Y404761D01*
X454638Y404625D01*
X454608Y404489D01*
X454609Y404468D01*
X454605Y404449D01*
X454613Y404310D01*
X454618Y404171D01*
X454623Y404151D01*
X454624Y404131D01*
X454667Y403999D01*
X454706Y403865D01*
X454716Y403848D01*
X454722Y403829D01*
X454797Y403711D01*
X454868Y403591D01*
X454886Y403570D01*
X454893Y403560D01*
X454908Y403546D01*
X454974Y403471D01*
X465388Y393056D01*
X465466Y392996D01*
X465538Y392928D01*
X465591Y392899D01*
X465639Y392862D01*
X465730Y392822D01*
X465817Y392774D01*
X465875Y392759D01*
X465931Y392735D01*
X466029Y392720D01*
X466125Y392695D01*
X466225Y392689D01*
X466245Y392685D01*
X466257Y392687D01*
X466285Y392685D01*
X477311Y392685D01*
X479272Y391873D01*
X487123Y384022D01*
X487935Y382061D01*
X487935Y360889D01*
X487123Y358928D01*
X477586Y349392D01*
X477526Y349314D01*
X477458Y349242D01*
X477429Y349189D01*
X477392Y349141D01*
X477352Y349050D01*
X477304Y348963D01*
X477289Y348905D01*
X477265Y348849D01*
X477250Y348751D01*
X477225Y348655D01*
X477219Y348555D01*
X477215Y348535D01*
X477217Y348523D01*
X477215Y348495D01*
X477215Y347795D01*
X476101Y345107D01*
X474043Y343049D01*
X471355Y341935D01*
X468445Y341935D01*
X465757Y343049D01*
X463699Y345107D01*
X462585Y347795D01*
X462585Y350705D01*
X463699Y353393D01*
X465757Y355451D01*
X468445Y356565D01*
X469145Y356565D01*
X469243Y356577D01*
X469342Y356580D01*
X469400Y356597D01*
X469460Y356605D01*
X469552Y356641D01*
X469647Y356669D01*
X469699Y356699D01*
X469756Y356722D01*
X469836Y356780D01*
X469921Y356830D01*
X469997Y356896D01*
X470013Y356908D01*
X470021Y356918D01*
X470042Y356936D01*
X476894Y363788D01*
X476954Y363866D01*
X477022Y363938D01*
X477051Y363991D01*
X477088Y364039D01*
X477128Y364130D01*
X477176Y364217D01*
X477191Y364275D01*
X477215Y364331D01*
X477230Y364429D01*
X477255Y364525D01*
X477261Y364625D01*
X477265Y364645D01*
X477263Y364657D01*
X477265Y364685D01*
X477265Y371781D01*
X477248Y371919D01*
X477235Y372058D01*
X477228Y372077D01*
X477225Y372097D01*
X477174Y372226D01*
X477127Y372357D01*
X477116Y372374D01*
X477108Y372393D01*
X477027Y372505D01*
X476949Y372620D01*
X476933Y372634D01*
X476922Y372650D01*
X476814Y372739D01*
X476710Y372831D01*
X476692Y372840D01*
X476677Y372853D01*
X476551Y372912D01*
X476427Y372975D01*
X476407Y372980D01*
X476389Y372988D01*
X476252Y373014D01*
X476117Y373045D01*
X476096Y373044D01*
X476077Y373048D01*
X475938Y373040D01*
X475799Y373035D01*
X475779Y373030D01*
X475759Y373028D01*
X475627Y372986D01*
X475493Y372947D01*
X475476Y372937D01*
X475457Y372930D01*
X475339Y372856D01*
X475219Y372785D01*
X475198Y372767D01*
X475188Y372760D01*
X475174Y372745D01*
X475099Y372679D01*
X474043Y371624D01*
X471355Y370510D01*
X468445Y370510D01*
X465757Y371624D01*
X465262Y372119D01*
X465184Y372179D01*
X465112Y372247D01*
X465059Y372276D01*
X465011Y372313D01*
X464920Y372353D01*
X464833Y372401D01*
X464774Y372416D01*
X464719Y372440D01*
X464621Y372455D01*
X464525Y372480D01*
X464425Y372486D01*
X464405Y372490D01*
X464392Y372488D01*
X464364Y372490D01*
X446614Y372490D01*
X444653Y373302D01*
X442974Y374982D01*
X411969Y405987D01*
X411946Y406005D01*
X411926Y406027D01*
X411820Y406102D01*
X411718Y406182D01*
X411691Y406193D01*
X411666Y406210D01*
X411545Y406256D01*
X411426Y406308D01*
X411397Y406313D01*
X411369Y406323D01*
X411240Y406337D01*
X411112Y406358D01*
X411082Y406355D01*
X411053Y406358D01*
X410924Y406340D01*
X410795Y406328D01*
X410767Y406318D01*
X410738Y406314D01*
X410586Y406262D01*
X409078Y405637D01*
X405071Y405637D01*
X404933Y405620D01*
X404795Y405607D01*
X404776Y405600D01*
X404756Y405597D01*
X404627Y405546D01*
X404496Y405499D01*
X404479Y405488D01*
X404460Y405480D01*
X404348Y405399D01*
X404233Y405321D01*
X404219Y405305D01*
X404203Y405294D01*
X404114Y405186D01*
X404022Y405082D01*
X404013Y405064D01*
X404000Y405049D01*
X403941Y404923D01*
X403878Y404799D01*
X403873Y404779D01*
X403864Y404761D01*
X403838Y404624D01*
X403808Y404489D01*
X403809Y404468D01*
X403805Y404449D01*
X403813Y404310D01*
X403818Y404171D01*
X403823Y404151D01*
X403824Y404131D01*
X403867Y403999D01*
X403906Y403865D01*
X403916Y403848D01*
X403922Y403829D01*
X403997Y403711D01*
X404068Y403591D01*
X404086Y403570D01*
X404093Y403560D01*
X404108Y403546D01*
X404174Y403471D01*
X405508Y402136D01*
X407188Y400457D01*
X408000Y398496D01*
X408000Y371190D01*
X407188Y369230D01*
X399406Y361449D01*
X399346Y361370D01*
X399278Y361298D01*
X399249Y361245D01*
X399212Y361197D01*
X399172Y361106D01*
X399124Y361020D01*
X399109Y360961D01*
X399085Y360906D01*
X399070Y360808D01*
X399045Y360712D01*
X399039Y360612D01*
X399035Y360592D01*
X399037Y360579D01*
X399035Y360551D01*
X399035Y354786D01*
X399047Y354687D01*
X399050Y354588D01*
X399067Y354530D01*
X399075Y354470D01*
X399111Y354378D01*
X399139Y354283D01*
X399169Y354231D01*
X399192Y354174D01*
X399250Y354094D01*
X399300Y354009D01*
X399367Y353933D01*
X399378Y353917D01*
X399388Y353909D01*
X399406Y353888D01*
X399901Y353393D01*
X401015Y350705D01*
X401015Y347795D01*
X399901Y345107D01*
X397843Y343049D01*
X395155Y341935D01*
X392245Y341935D01*
X389557Y343049D01*
X387499Y345107D01*
X386385Y347795D01*
X386385Y350705D01*
X387499Y353393D01*
X387994Y353888D01*
X388054Y353966D01*
X388122Y354038D01*
X388151Y354091D01*
X388188Y354139D01*
X388228Y354230D01*
X388276Y354317D01*
X388291Y354376D01*
X388315Y354431D01*
X388330Y354529D01*
X388355Y354625D01*
X388361Y354725D01*
X388365Y354745D01*
X388363Y354758D01*
X388365Y354786D01*
X388365Y364348D01*
X389177Y366309D01*
X391704Y368835D01*
X391734Y368874D01*
X391771Y368908D01*
X391831Y368999D01*
X391899Y369086D01*
X391918Y369132D01*
X391946Y369173D01*
X391981Y369277D01*
X392025Y369378D01*
X392033Y369427D01*
X392049Y369474D01*
X392058Y369584D01*
X392075Y369692D01*
X392070Y369742D01*
X392074Y369791D01*
X392055Y369899D01*
X392045Y370009D01*
X392028Y370056D01*
X392020Y370104D01*
X391975Y370205D01*
X391938Y370308D01*
X391910Y370349D01*
X391889Y370394D01*
X391821Y370480D01*
X391759Y370571D01*
X391722Y370604D01*
X391691Y370643D01*
X391603Y370709D01*
X391521Y370782D01*
X391476Y370804D01*
X391437Y370834D01*
X391292Y370905D01*
X389557Y371624D01*
X387499Y373682D01*
X386385Y376370D01*
X386385Y379280D01*
X386497Y379550D01*
X386505Y379579D01*
X386518Y379605D01*
X386547Y379732D01*
X386581Y379857D01*
X386582Y379887D01*
X386588Y379915D01*
X386584Y380045D01*
X386586Y380175D01*
X386579Y380204D01*
X386578Y380233D01*
X386542Y380358D01*
X386512Y380484D01*
X386498Y380510D01*
X386490Y380539D01*
X386424Y380651D01*
X386363Y380765D01*
X386344Y380787D01*
X386328Y380813D01*
X386222Y380933D01*
X361169Y405987D01*
X361146Y406005D01*
X361126Y406027D01*
X361020Y406102D01*
X360918Y406182D01*
X360890Y406193D01*
X360866Y406210D01*
X360745Y406256D01*
X360626Y406308D01*
X360597Y406313D01*
X360569Y406323D01*
X360440Y406337D01*
X360312Y406358D01*
X360282Y406355D01*
X360253Y406358D01*
X360124Y406340D01*
X359995Y406328D01*
X359967Y406318D01*
X359938Y406314D01*
X359786Y406262D01*
X358278Y405637D01*
X352922Y405637D01*
X347974Y407687D01*
X344187Y411474D01*
X344073Y411750D01*
X344004Y411871D01*
X343939Y411993D01*
X343925Y412008D01*
X343915Y412026D01*
X343818Y412126D01*
X343725Y412229D01*
X343708Y412240D01*
X343694Y412254D01*
X343576Y412327D01*
X343459Y412404D01*
X343440Y412410D01*
X343423Y412421D01*
X343290Y412462D01*
X343158Y412507D01*
X343138Y412508D01*
X343119Y412514D01*
X342980Y412521D01*
X342841Y412532D01*
X342821Y412528D01*
X342801Y412529D01*
X342665Y412501D01*
X342528Y412477D01*
X342509Y412469D01*
X342490Y412465D01*
X342364Y412404D01*
X342238Y412347D01*
X342222Y412334D01*
X342204Y412325D01*
X342098Y412235D01*
X341989Y412148D01*
X341977Y412132D01*
X341962Y412119D01*
X341881Y412005D01*
X341798Y411894D01*
X341786Y411869D01*
X341779Y411859D01*
X341772Y411840D01*
X341727Y411750D01*
X341613Y411474D01*
X337826Y407687D01*
X332795Y405603D01*
X332794Y405602D01*
X332753Y405597D01*
X332643Y405554D01*
X332530Y405517D01*
X332495Y405495D01*
X332458Y405480D01*
X332362Y405411D01*
X332261Y405347D01*
X332233Y405317D01*
X332200Y405294D01*
X332124Y405202D01*
X332043Y405115D01*
X332023Y405080D01*
X331998Y405049D01*
X331947Y404941D01*
X331889Y404837D01*
X331879Y404797D01*
X331862Y404761D01*
X331840Y404644D01*
X331810Y404529D01*
X331806Y404469D01*
X331802Y404449D01*
X331804Y404428D01*
X331800Y404368D01*
X331800Y374365D01*
X330988Y372405D01*
X323206Y364624D01*
X323146Y364545D01*
X323078Y364473D01*
X323049Y364420D01*
X323012Y364372D01*
X322972Y364281D01*
X322924Y364195D01*
X322909Y364136D01*
X322885Y364081D01*
X322870Y363983D01*
X322845Y363887D01*
X322839Y363787D01*
X322835Y363767D01*
X322837Y363754D01*
X322835Y363726D01*
X322835Y348436D01*
X322847Y348337D01*
X322850Y348238D01*
X322867Y348180D01*
X322875Y348120D01*
X322911Y348028D01*
X322939Y347933D01*
X322969Y347881D01*
X322992Y347824D01*
X323050Y347744D01*
X323100Y347659D01*
X323167Y347583D01*
X323178Y347567D01*
X323188Y347559D01*
X323206Y347538D01*
X323701Y347043D01*
X324815Y344355D01*
X324815Y341445D01*
X323701Y338757D01*
X321643Y336699D01*
X318955Y335585D01*
X316045Y335585D01*
X313357Y336699D01*
X311299Y338757D01*
X310185Y341445D01*
X310185Y344355D01*
X311299Y347043D01*
X311794Y347538D01*
X311854Y347616D01*
X311922Y347688D01*
X311951Y347741D01*
X311988Y347789D01*
X312028Y347880D01*
X312076Y347967D01*
X312091Y348026D01*
X312115Y348081D01*
X312130Y348179D01*
X312155Y348275D01*
X312161Y348375D01*
X312165Y348395D01*
X312163Y348408D01*
X312165Y348436D01*
X312165Y367523D01*
X312977Y369484D01*
X315504Y372010D01*
X315534Y372049D01*
X315571Y372083D01*
X315631Y372174D01*
X315699Y372261D01*
X315718Y372307D01*
X315746Y372348D01*
X315781Y372452D01*
X315825Y372553D01*
X315833Y372602D01*
X315849Y372649D01*
X315858Y372759D01*
X315875Y372867D01*
X315870Y372917D01*
X315874Y372966D01*
X315855Y373074D01*
X315845Y373184D01*
X315828Y373231D01*
X315820Y373279D01*
X315775Y373380D01*
X315738Y373483D01*
X315710Y373524D01*
X315689Y373569D01*
X315621Y373655D01*
X315559Y373746D01*
X315522Y373779D01*
X315491Y373818D01*
X315403Y373884D01*
X315321Y373957D01*
X315276Y373979D01*
X315237Y374009D01*
X315092Y374080D01*
X313357Y374799D01*
X311299Y376857D01*
X310185Y379545D01*
X310185Y382455D01*
X311299Y385143D01*
X311794Y385638D01*
X311854Y385716D01*
X311922Y385788D01*
X311951Y385841D01*
X311988Y385889D01*
X312028Y385980D01*
X312076Y386067D01*
X312091Y386126D01*
X312115Y386181D01*
X312130Y386279D01*
X312155Y386375D01*
X312161Y386475D01*
X312165Y386495D01*
X312163Y386508D01*
X312165Y386536D01*
X312165Y403665D01*
X312153Y403763D01*
X312150Y403862D01*
X312133Y403920D01*
X312125Y403980D01*
X312089Y404072D01*
X312061Y404167D01*
X312031Y404219D01*
X312008Y404276D01*
X311950Y404356D01*
X311900Y404441D01*
X311834Y404517D01*
X311822Y404533D01*
X311812Y404541D01*
X311794Y404562D01*
X310369Y405987D01*
X310346Y406005D01*
X310326Y406027D01*
X310220Y406102D01*
X310118Y406182D01*
X310091Y406193D01*
X310066Y406210D01*
X309945Y406256D01*
X309826Y406308D01*
X309797Y406313D01*
X309769Y406323D01*
X309640Y406337D01*
X309512Y406358D01*
X309482Y406355D01*
X309453Y406358D01*
X309324Y406340D01*
X309195Y406328D01*
X309167Y406318D01*
X309138Y406314D01*
X308986Y406262D01*
X307478Y405637D01*
X302122Y405637D01*
X297174Y407687D01*
X293387Y411474D01*
X293273Y411750D01*
X293204Y411871D01*
X293139Y411993D01*
X293125Y412008D01*
X293115Y412026D01*
X293018Y412126D01*
X292925Y412229D01*
X292908Y412240D01*
X292894Y412254D01*
X292776Y412327D01*
X292659Y412404D01*
X292640Y412410D01*
X292623Y412421D01*
X292490Y412462D01*
X292358Y412507D01*
X292338Y412508D01*
X292319Y412514D01*
X292180Y412521D01*
X292041Y412532D01*
X292021Y412528D01*
X292001Y412529D01*
X291865Y412501D01*
X291728Y412477D01*
X291709Y412469D01*
X291690Y412465D01*
X291564Y412404D01*
X291438Y412347D01*
X291422Y412334D01*
X291404Y412325D01*
X291298Y412235D01*
X291189Y412148D01*
X291177Y412132D01*
X291162Y412119D01*
X291081Y412005D01*
X290998Y411894D01*
X290986Y411869D01*
X290979Y411859D01*
X290972Y411840D01*
X290927Y411750D01*
X290813Y411474D01*
X287026Y407687D01*
X282078Y405637D01*
X276722Y405637D01*
X275214Y406262D01*
X275186Y406270D01*
X275160Y406283D01*
X275033Y406311D01*
X274908Y406346D01*
X274878Y406346D01*
X274849Y406353D01*
X274719Y406349D01*
X274590Y406351D01*
X274561Y406344D01*
X274531Y406343D01*
X274407Y406307D01*
X274280Y406277D01*
X274254Y406263D01*
X274226Y406255D01*
X274114Y406189D01*
X273999Y406128D01*
X273977Y406108D01*
X273952Y406093D01*
X273831Y405987D01*
X264278Y396434D01*
X264218Y396356D01*
X264150Y396284D01*
X264121Y396231D01*
X264084Y396183D01*
X264044Y396092D01*
X263996Y396005D01*
X263981Y395947D01*
X263957Y395891D01*
X263942Y395793D01*
X263917Y395697D01*
X263911Y395597D01*
X263907Y395577D01*
X263909Y395565D01*
X263907Y395537D01*
X263907Y379497D01*
X263095Y377537D01*
X247006Y361449D01*
X246946Y361370D01*
X246878Y361298D01*
X246849Y361245D01*
X246812Y361197D01*
X246772Y361106D01*
X246724Y361020D01*
X246709Y360961D01*
X246685Y360906D01*
X246670Y360808D01*
X246645Y360712D01*
X246639Y360612D01*
X246635Y360592D01*
X246637Y360579D01*
X246635Y360551D01*
X246635Y354786D01*
X246647Y354687D01*
X246650Y354588D01*
X246667Y354530D01*
X246675Y354470D01*
X246711Y354378D01*
X246739Y354283D01*
X246769Y354231D01*
X246792Y354174D01*
X246850Y354094D01*
X246900Y354009D01*
X246967Y353933D01*
X246978Y353917D01*
X246988Y353909D01*
X247006Y353888D01*
X247501Y353393D01*
X248615Y350705D01*
X248615Y347795D01*
X247501Y345107D01*
X245443Y343049D01*
X242755Y341935D01*
X239845Y341935D01*
X237157Y343049D01*
X235099Y345107D01*
X233985Y347795D01*
X233985Y350705D01*
X235099Y353393D01*
X235594Y353888D01*
X235654Y353966D01*
X235722Y354038D01*
X235751Y354091D01*
X235788Y354139D01*
X235828Y354230D01*
X235876Y354317D01*
X235891Y354376D01*
X235915Y354431D01*
X235930Y354529D01*
X235955Y354625D01*
X235961Y354725D01*
X235965Y354745D01*
X235963Y354758D01*
X235965Y354786D01*
X235965Y364348D01*
X236777Y366309D01*
X237140Y366671D01*
X237213Y366765D01*
X237291Y366854D01*
X237310Y366890D01*
X237335Y366922D01*
X237382Y367031D01*
X237436Y367137D01*
X237445Y367177D01*
X237461Y367214D01*
X237480Y367332D01*
X237506Y367448D01*
X237504Y367488D01*
X237511Y367528D01*
X237500Y367647D01*
X237496Y367766D01*
X237485Y367804D01*
X237481Y367845D01*
X237441Y367957D01*
X237408Y368071D01*
X237387Y368106D01*
X237373Y368144D01*
X237306Y368242D01*
X237246Y368345D01*
X237206Y368390D01*
X237195Y368407D01*
X237180Y368421D01*
X237140Y368466D01*
X235099Y370507D01*
X233985Y373195D01*
X233985Y376105D01*
X235099Y378793D01*
X237157Y380851D01*
X239845Y381965D01*
X240545Y381965D01*
X240643Y381977D01*
X240742Y381980D01*
X240800Y381997D01*
X240860Y382005D01*
X240952Y382041D01*
X241047Y382069D01*
X241099Y382099D01*
X241156Y382122D01*
X241236Y382180D01*
X241321Y382230D01*
X241397Y382296D01*
X241413Y382308D01*
X241421Y382318D01*
X241442Y382336D01*
X248294Y389188D01*
X248354Y389266D01*
X248422Y389338D01*
X248451Y389391D01*
X248488Y389439D01*
X248528Y389530D01*
X248576Y389617D01*
X248591Y389675D01*
X248615Y389731D01*
X248630Y389829D01*
X248655Y389925D01*
X248661Y390025D01*
X248665Y390045D01*
X248663Y390057D01*
X248665Y390085D01*
X248665Y405890D01*
X248662Y405919D01*
X248664Y405948D01*
X248642Y406076D01*
X248625Y406205D01*
X248615Y406233D01*
X248610Y406262D01*
X248556Y406380D01*
X248508Y406501D01*
X248491Y406525D01*
X248479Y406552D01*
X248398Y406653D01*
X248322Y406758D01*
X248299Y406777D01*
X248280Y406800D01*
X248177Y406878D01*
X248077Y406961D01*
X248050Y406974D01*
X248026Y406991D01*
X247882Y407062D01*
X246374Y407687D01*
X242587Y411474D01*
X242473Y411750D01*
X242404Y411871D01*
X242339Y411993D01*
X242325Y412008D01*
X242315Y412026D01*
X242218Y412126D01*
X242125Y412229D01*
X242108Y412240D01*
X242094Y412254D01*
X241976Y412327D01*
X241859Y412404D01*
X241840Y412410D01*
X241823Y412421D01*
X241690Y412462D01*
X241558Y412507D01*
X241538Y412508D01*
X241519Y412514D01*
X241380Y412521D01*
X241241Y412532D01*
X241221Y412528D01*
X241201Y412529D01*
X241065Y412501D01*
X240928Y412477D01*
X240909Y412469D01*
X240890Y412465D01*
X240764Y412404D01*
X240638Y412347D01*
X240622Y412334D01*
X240604Y412325D01*
X240498Y412235D01*
X240389Y412148D01*
X240377Y412132D01*
X240362Y412119D01*
X240281Y412005D01*
X240198Y411894D01*
X240186Y411869D01*
X240179Y411859D01*
X240172Y411840D01*
X240127Y411750D01*
X240013Y411474D01*
X236226Y407687D01*
X231278Y405637D01*
X225922Y405637D01*
X224414Y406262D01*
X224386Y406270D01*
X224360Y406283D01*
X224233Y406311D01*
X224108Y406346D01*
X224078Y406346D01*
X224049Y406353D01*
X223919Y406349D01*
X223790Y406351D01*
X223761Y406344D01*
X223731Y406343D01*
X223607Y406307D01*
X223480Y406277D01*
X223454Y406263D01*
X223426Y406255D01*
X223314Y406189D01*
X223199Y406128D01*
X223177Y406108D01*
X223152Y406093D01*
X223031Y405987D01*
X217871Y400827D01*
X217811Y400749D01*
X217743Y400677D01*
X217714Y400624D01*
X217677Y400576D01*
X217637Y400485D01*
X217589Y400398D01*
X217574Y400340D01*
X217550Y400284D01*
X217535Y400186D01*
X217510Y400090D01*
X217504Y399990D01*
X217500Y399970D01*
X217502Y399958D01*
X217500Y399930D01*
X217500Y383890D01*
X216688Y381930D01*
X207076Y372319D01*
X207016Y372240D01*
X206948Y372168D01*
X206919Y372115D01*
X206882Y372067D01*
X206842Y371976D01*
X206794Y371890D01*
X206779Y371831D01*
X206755Y371776D01*
X206740Y371678D01*
X206715Y371582D01*
X206709Y371482D01*
X206705Y371462D01*
X206707Y371449D01*
X206705Y371421D01*
X206705Y354786D01*
X206717Y354687D01*
X206720Y354588D01*
X206737Y354530D01*
X206745Y354470D01*
X206781Y354378D01*
X206809Y354283D01*
X206839Y354231D01*
X206862Y354174D01*
X206920Y354094D01*
X206970Y354009D01*
X207037Y353933D01*
X207048Y353917D01*
X207058Y353909D01*
X207076Y353888D01*
X207571Y353393D01*
X208685Y350705D01*
X208685Y347795D01*
X207571Y345107D01*
X205513Y343049D01*
X202825Y341935D01*
X199915Y341935D01*
X197227Y343049D01*
X195169Y345107D01*
X194055Y347795D01*
X194055Y350705D01*
X195169Y353393D01*
X195664Y353888D01*
X195724Y353966D01*
X195792Y354038D01*
X195821Y354091D01*
X195858Y354139D01*
X195898Y354230D01*
X195946Y354317D01*
X195961Y354376D01*
X195985Y354431D01*
X196000Y354529D01*
X196025Y354625D01*
X196031Y354725D01*
X196035Y354745D01*
X196033Y354758D01*
X196035Y354786D01*
X196035Y375218D01*
X196847Y377179D01*
X199040Y379371D01*
X199113Y379465D01*
X199191Y379554D01*
X199210Y379590D01*
X199235Y379622D01*
X199282Y379732D01*
X199336Y379837D01*
X199345Y379877D01*
X199361Y379914D01*
X199380Y380032D01*
X199406Y380148D01*
X199404Y380188D01*
X199411Y380228D01*
X199400Y380347D01*
X199396Y380466D01*
X199385Y380504D01*
X199381Y380545D01*
X199341Y380657D01*
X199308Y380771D01*
X199287Y380806D01*
X199273Y380844D01*
X199206Y380943D01*
X199146Y381045D01*
X199106Y381090D01*
X199095Y381107D01*
X199079Y381121D01*
X199040Y381166D01*
X196999Y383207D01*
X195885Y385895D01*
X195885Y388805D01*
X196999Y391493D01*
X197494Y391988D01*
X197554Y392066D01*
X197622Y392138D01*
X197651Y392191D01*
X197688Y392239D01*
X197728Y392330D01*
X197776Y392417D01*
X197791Y392476D01*
X197815Y392531D01*
X197830Y392629D01*
X197855Y392725D01*
X197861Y392825D01*
X197865Y392845D01*
X197863Y392858D01*
X197865Y392886D01*
X197865Y405890D01*
X197862Y405919D01*
X197864Y405948D01*
X197842Y406076D01*
X197825Y406205D01*
X197815Y406233D01*
X197810Y406262D01*
X197756Y406380D01*
X197708Y406501D01*
X197691Y406525D01*
X197679Y406552D01*
X197598Y406653D01*
X197522Y406758D01*
X197499Y406777D01*
X197480Y406800D01*
X197377Y406878D01*
X197277Y406961D01*
X197250Y406974D01*
X197226Y406991D01*
X197082Y407062D01*
X195574Y407687D01*
X191787Y411474D01*
X191673Y411750D01*
X191604Y411871D01*
X191539Y411993D01*
X191525Y412008D01*
X191515Y412026D01*
X191418Y412126D01*
X191325Y412229D01*
X191308Y412240D01*
X191294Y412254D01*
X191176Y412327D01*
X191059Y412404D01*
X191040Y412410D01*
X191023Y412421D01*
X190890Y412462D01*
X190758Y412507D01*
X190738Y412508D01*
X190719Y412514D01*
X190580Y412521D01*
X190441Y412532D01*
X190421Y412528D01*
X190401Y412529D01*
X190265Y412501D01*
X190128Y412477D01*
X190109Y412469D01*
X190090Y412465D01*
X189964Y412404D01*
X189838Y412347D01*
X189822Y412334D01*
X189804Y412325D01*
X189698Y412235D01*
X189589Y412148D01*
X189577Y412132D01*
X189562Y412119D01*
X189481Y412005D01*
X189398Y411894D01*
X189386Y411869D01*
X189379Y411859D01*
X189372Y411840D01*
X189327Y411750D01*
X189213Y411474D01*
X185426Y407687D01*
X180478Y405637D01*
X175122Y405637D01*
X173614Y406262D01*
X173586Y406270D01*
X173560Y406283D01*
X173433Y406311D01*
X173308Y406346D01*
X173278Y406346D01*
X173249Y406353D01*
X173119Y406349D01*
X172990Y406351D01*
X172961Y406344D01*
X172931Y406343D01*
X172807Y406307D01*
X172680Y406277D01*
X172654Y406263D01*
X172626Y406255D01*
X172514Y406189D01*
X172399Y406128D01*
X172377Y406108D01*
X172352Y406093D01*
X172231Y405987D01*
X132706Y366462D01*
X132646Y366384D01*
X132578Y366312D01*
X132549Y366259D01*
X132512Y366211D01*
X132472Y366120D01*
X132424Y366033D01*
X132409Y365975D01*
X132385Y365919D01*
X132370Y365821D01*
X132345Y365725D01*
X132339Y365625D01*
X132335Y365605D01*
X132337Y365593D01*
X132335Y365565D01*
X132335Y354432D01*
X132347Y354334D01*
X132350Y354235D01*
X132367Y354177D01*
X132375Y354117D01*
X132411Y354024D01*
X132439Y353929D01*
X132469Y353877D01*
X132492Y353821D01*
X132550Y353741D01*
X132600Y353655D01*
X132666Y353580D01*
X132678Y353563D01*
X132688Y353556D01*
X132706Y353535D01*
X132989Y353252D01*
X134065Y350655D01*
X134065Y347845D01*
X132989Y345248D01*
X131002Y343261D01*
X128405Y342185D01*
X125595Y342185D01*
X122998Y343261D01*
X122055Y344203D01*
X121946Y344288D01*
X121839Y344377D01*
X121820Y344386D01*
X121804Y344398D01*
X121677Y344454D01*
X121551Y344513D01*
X121531Y344517D01*
X121512Y344525D01*
X121374Y344547D01*
X121238Y344573D01*
X121218Y344571D01*
X121198Y344575D01*
X121059Y344562D01*
X120921Y344553D01*
X120902Y344547D01*
X120882Y344545D01*
X120750Y344498D01*
X120619Y344455D01*
X120601Y344444D01*
X120582Y344437D01*
X120467Y344359D01*
X120350Y344285D01*
X120336Y344270D01*
X120319Y344259D01*
X120227Y344155D01*
X120132Y344053D01*
X120122Y344035D01*
X120109Y344020D01*
X120046Y343897D01*
X119978Y343775D01*
X119973Y343755D01*
X119964Y343737D01*
X119934Y343601D01*
X119899Y343467D01*
X119897Y343439D01*
X119894Y343427D01*
X119895Y343406D01*
X119889Y343306D01*
X119889Y294941D01*
X119901Y294842D01*
X119904Y294743D01*
X119921Y294685D01*
X119929Y294625D01*
X119965Y294533D01*
X119993Y294438D01*
X120023Y294386D01*
X120046Y294329D01*
X120104Y294249D01*
X120154Y294164D01*
X120220Y294089D01*
X120232Y294072D01*
X120242Y294064D01*
X120260Y294043D01*
X186093Y228210D01*
X186171Y228150D01*
X186244Y228082D01*
X186297Y228053D01*
X186344Y228016D01*
X186435Y227976D01*
X186522Y227928D01*
X186581Y227913D01*
X186636Y227889D01*
X186734Y227874D01*
X186830Y227849D01*
X186930Y227843D01*
X186950Y227839D01*
X186963Y227841D01*
X186991Y227839D01*
X425502Y227839D01*
X425640Y227856D01*
X425779Y227869D01*
X425798Y227876D01*
X425818Y227879D01*
X425947Y227930D01*
X426078Y227977D01*
X426095Y227988D01*
X426114Y227996D01*
X426226Y228077D01*
X426341Y228155D01*
X426355Y228171D01*
X426371Y228182D01*
X426460Y228290D01*
X426552Y228394D01*
X426561Y228412D01*
X426574Y228427D01*
X426633Y228553D01*
X426696Y228677D01*
X426701Y228697D01*
X426709Y228715D01*
X426735Y228852D01*
X426766Y228987D01*
X426765Y229008D01*
X426769Y229027D01*
X426761Y229166D01*
X426756Y229305D01*
X426751Y229325D01*
X426749Y229345D01*
X426707Y229477D01*
X426668Y229611D01*
X426658Y229628D01*
X426651Y229647D01*
X426577Y229765D01*
X426506Y229885D01*
X426488Y229906D01*
X426481Y229916D01*
X426466Y229930D01*
X426400Y230005D01*
X425599Y230807D01*
X424485Y233495D01*
X424485Y236405D01*
X425599Y239093D01*
X425840Y239334D01*
X425900Y239412D01*
X425968Y239484D01*
X425997Y239537D01*
X426034Y239585D01*
X426074Y239676D01*
X426122Y239763D01*
X426137Y239822D01*
X426161Y239877D01*
X426176Y239975D01*
X426201Y240071D01*
X426207Y240171D01*
X426211Y240191D01*
X426209Y240204D01*
X426211Y240232D01*
X426211Y245587D01*
X427062Y247641D01*
X463559Y284138D01*
X465613Y284989D01*
X555959Y284989D01*
X556058Y285001D01*
X556157Y285004D01*
X556215Y285021D01*
X556275Y285029D01*
X556367Y285065D01*
X556462Y285093D01*
X556514Y285123D01*
X556571Y285146D01*
X556651Y285204D01*
X556736Y285254D01*
X556811Y285320D01*
X556828Y285332D01*
X556836Y285342D01*
X556857Y285360D01*
X559190Y287693D01*
X559250Y287771D01*
X559318Y287844D01*
X559347Y287897D01*
X559384Y287944D01*
X559424Y288035D01*
X559472Y288122D01*
X559487Y288181D01*
X559511Y288236D01*
X559526Y288334D01*
X559551Y288430D01*
X559557Y288530D01*
X559561Y288550D01*
X559559Y288563D01*
X559561Y288591D01*
X559561Y305868D01*
X559549Y305967D01*
X559546Y306066D01*
X559529Y306124D01*
X559521Y306184D01*
X559485Y306276D01*
X559457Y306371D01*
X559427Y306423D01*
X559404Y306480D01*
X559346Y306560D01*
X559296Y306645D01*
X559230Y306720D01*
X559218Y306737D01*
X559208Y306745D01*
X559190Y306766D01*
X558949Y307007D01*
X557835Y309695D01*
X557835Y312605D01*
X558949Y315293D01*
X561007Y317351D01*
X563695Y318465D01*
X566605Y318465D01*
X569293Y317351D01*
X571351Y315293D01*
X572465Y312605D01*
X572465Y309695D01*
X571351Y307007D01*
X571110Y306766D01*
X571050Y306688D01*
X570982Y306616D01*
X570953Y306563D01*
X570916Y306515D01*
X570876Y306424D01*
X570828Y306337D01*
X570813Y306278D01*
X570789Y306223D01*
X570774Y306125D01*
X570749Y306029D01*
X570743Y305929D01*
X570739Y305909D01*
X570741Y305896D01*
X570739Y305868D01*
X570739Y284638D01*
X569888Y282584D01*
X561906Y274602D01*
X561855Y274573D01*
X561805Y274525D01*
X561748Y274484D01*
X561691Y274414D01*
X561627Y274352D01*
X561590Y274293D01*
X561545Y274239D01*
X561507Y274158D01*
X561460Y274081D01*
X561440Y274014D01*
X561410Y273951D01*
X561393Y273863D01*
X561367Y273777D01*
X561363Y273707D01*
X561350Y273638D01*
X561356Y273549D01*
X561351Y273460D01*
X561366Y273391D01*
X561370Y273321D01*
X561397Y273236D01*
X561416Y273148D01*
X561446Y273085D01*
X561468Y273019D01*
X561516Y272943D01*
X561555Y272862D01*
X561601Y272809D01*
X561638Y272750D01*
X561703Y272688D01*
X561761Y272620D01*
X561819Y272580D01*
X561870Y272532D01*
X561948Y272489D01*
X562021Y272437D01*
X562087Y272412D01*
X562148Y272378D01*
X562235Y272356D01*
X562319Y272324D01*
X562388Y272316D01*
X562456Y272299D01*
X562617Y272289D01*
X568659Y272289D01*
X568758Y272301D01*
X568857Y272304D01*
X568915Y272321D01*
X568975Y272329D01*
X569067Y272365D01*
X569162Y272393D01*
X569214Y272423D01*
X569271Y272446D01*
X569351Y272504D01*
X569436Y272554D01*
X569511Y272620D01*
X569528Y272632D01*
X569536Y272642D01*
X569557Y272660D01*
X614614Y317717D01*
X614674Y317795D01*
X614742Y317868D01*
X614771Y317921D01*
X614808Y317968D01*
X614848Y318059D01*
X614896Y318146D01*
X614911Y318205D01*
X614935Y318260D01*
X614950Y318358D01*
X614975Y318454D01*
X614981Y318554D01*
X614985Y318574D01*
X614983Y318587D01*
X614985Y318615D01*
X614985Y318955D01*
X616099Y321643D01*
X618157Y323701D01*
X620845Y324815D01*
X623755Y324815D01*
X626443Y323701D01*
X628501Y321643D01*
X629615Y318955D01*
X629615Y318236D01*
X629621Y318186D01*
X629619Y318137D01*
X629641Y318029D01*
X629655Y317920D01*
X629673Y317874D01*
X629683Y317825D01*
X629731Y317727D01*
X629772Y317625D01*
X629801Y317584D01*
X629823Y317540D01*
X629894Y317456D01*
X629958Y317367D01*
X629997Y317335D01*
X630029Y317298D01*
X630119Y317234D01*
X630203Y317164D01*
X630248Y317143D01*
X630289Y317115D01*
X630392Y317076D01*
X630491Y317029D01*
X630540Y317020D01*
X630586Y317002D01*
X630696Y316990D01*
X630803Y316969D01*
X630853Y316972D01*
X630902Y316967D01*
X631011Y316982D01*
X631121Y316989D01*
X631168Y317004D01*
X631217Y317011D01*
X631370Y317063D01*
X633672Y318017D01*
X639129Y318017D01*
X644170Y315928D01*
X648203Y311896D01*
X648297Y311823D01*
X648386Y311744D01*
X648422Y311726D01*
X648454Y311701D01*
X648563Y311653D01*
X648669Y311599D01*
X648709Y311591D01*
X648746Y311574D01*
X648863Y311556D01*
X648979Y311530D01*
X649020Y311531D01*
X649060Y311525D01*
X649178Y311536D01*
X649297Y311539D01*
X649336Y311551D01*
X649376Y311554D01*
X649489Y311595D01*
X649603Y311628D01*
X649638Y311648D01*
X649676Y311662D01*
X649774Y311729D01*
X649877Y311789D01*
X649922Y311829D01*
X649939Y311841D01*
X649952Y311856D01*
X649998Y311896D01*
X654030Y315928D01*
X659072Y318017D01*
X664529Y318017D01*
X669570Y315928D01*
X673429Y312070D01*
X675517Y307028D01*
X675517Y301571D01*
X673429Y296530D01*
X669396Y292497D01*
X669323Y292403D01*
X669244Y292314D01*
X669226Y292278D01*
X669201Y292246D01*
X669154Y292137D01*
X669100Y292031D01*
X669091Y291991D01*
X669075Y291954D01*
X669056Y291837D01*
X669030Y291721D01*
X669031Y291680D01*
X669025Y291640D01*
X669036Y291522D01*
X669040Y291403D01*
X669051Y291364D01*
X669055Y291324D01*
X669095Y291211D01*
X669128Y291097D01*
X669149Y291062D01*
X669162Y291024D01*
X669229Y290926D01*
X669290Y290823D01*
X669329Y290778D01*
X669341Y290761D01*
X669356Y290748D01*
X669396Y290702D01*
X673429Y286670D01*
X675517Y281628D01*
X675517Y276171D01*
X673429Y271130D01*
X669570Y267271D01*
X667733Y266511D01*
X667656Y266466D01*
X667573Y266431D01*
X667518Y266388D01*
X667457Y266353D01*
X667393Y266291D01*
X667322Y266236D01*
X667279Y266181D01*
X667229Y266132D01*
X667182Y266055D01*
X667127Y265985D01*
X667099Y265920D01*
X667062Y265861D01*
X667036Y265775D01*
X667000Y265693D01*
X666989Y265624D01*
X666969Y265557D01*
X666965Y265467D01*
X666950Y265379D01*
X666957Y265309D01*
X666954Y265239D01*
X666972Y265151D01*
X666980Y265062D01*
X667004Y264996D01*
X667018Y264928D01*
X667057Y264847D01*
X667088Y264763D01*
X667127Y264705D01*
X667158Y264642D01*
X667216Y264574D01*
X667266Y264500D01*
X667318Y264453D01*
X667364Y264400D01*
X667437Y264348D01*
X667504Y264289D01*
X667612Y264225D01*
X667624Y264217D01*
X667630Y264214D01*
X667643Y264207D01*
X668190Y263928D01*
X669743Y262800D01*
X671100Y261443D01*
X672228Y259890D01*
X673100Y258180D01*
X673693Y256355D01*
X673743Y256039D01*
X663070Y256039D01*
X662952Y256024D01*
X662833Y256017D01*
X662795Y256004D01*
X662755Y255999D01*
X662644Y255955D01*
X662531Y255919D01*
X662497Y255897D01*
X662459Y255882D01*
X662363Y255812D01*
X662262Y255749D01*
X662234Y255719D01*
X662202Y255695D01*
X662126Y255604D01*
X662044Y255517D01*
X662025Y255482D01*
X661999Y255450D01*
X661948Y255343D01*
X661891Y255238D01*
X661881Y255199D01*
X661863Y255163D01*
X661841Y255046D01*
X661811Y254931D01*
X661807Y254870D01*
X661804Y254850D01*
X661805Y254830D01*
X661801Y254770D01*
X661801Y253499D01*
X660530Y253499D01*
X660412Y253484D01*
X660293Y253477D01*
X660255Y253464D01*
X660215Y253459D01*
X660104Y253415D01*
X659991Y253379D01*
X659956Y253357D01*
X659919Y253342D01*
X659823Y253272D01*
X659722Y253208D01*
X659694Y253179D01*
X659662Y253155D01*
X659586Y253064D01*
X659504Y252977D01*
X659485Y252941D01*
X659459Y252910D01*
X659408Y252803D01*
X659351Y252698D01*
X659340Y252659D01*
X659323Y252623D01*
X659301Y252506D01*
X659271Y252390D01*
X659267Y252330D01*
X659263Y252310D01*
X659265Y252290D01*
X659261Y252230D01*
X659261Y241557D01*
X658945Y241607D01*
X657120Y242200D01*
X655410Y243072D01*
X653857Y244200D01*
X652500Y245557D01*
X651372Y247109D01*
X651093Y247657D01*
X651043Y247731D01*
X651001Y247810D01*
X650954Y247862D01*
X650914Y247920D01*
X650847Y247979D01*
X650787Y248046D01*
X650728Y248084D01*
X650676Y248130D01*
X650596Y248171D01*
X650521Y248220D01*
X650455Y248243D01*
X650392Y248275D01*
X650305Y248295D01*
X650220Y248324D01*
X650150Y248329D01*
X650082Y248344D01*
X649993Y248342D01*
X649903Y248349D01*
X649834Y248337D01*
X649764Y248335D01*
X649678Y248310D01*
X649590Y248294D01*
X649526Y248266D01*
X649459Y248246D01*
X649382Y248201D01*
X649300Y248164D01*
X649245Y248120D01*
X649185Y248084D01*
X649121Y248021D01*
X649051Y247965D01*
X649009Y247909D01*
X648960Y247860D01*
X648914Y247783D01*
X648860Y247711D01*
X648805Y247599D01*
X648798Y247586D01*
X648796Y247579D01*
X648789Y247567D01*
X648029Y245730D01*
X644170Y241871D01*
X639129Y239783D01*
X633672Y239783D01*
X628630Y241871D01*
X624772Y245730D01*
X624193Y247128D01*
X624178Y247153D01*
X624169Y247181D01*
X624099Y247291D01*
X624035Y247404D01*
X624015Y247425D01*
X623999Y247450D01*
X623904Y247539D01*
X623814Y247632D01*
X623789Y247648D01*
X623767Y247668D01*
X623653Y247731D01*
X623543Y247799D01*
X623514Y247807D01*
X623489Y247821D01*
X623363Y247854D01*
X623239Y247892D01*
X623209Y247894D01*
X623181Y247901D01*
X623020Y247911D01*
X465891Y247911D01*
X465792Y247899D01*
X465693Y247896D01*
X465635Y247879D01*
X465575Y247871D01*
X465483Y247835D01*
X465388Y247807D01*
X465336Y247777D01*
X465279Y247754D01*
X465199Y247696D01*
X465114Y247646D01*
X465038Y247579D01*
X465022Y247567D01*
X465014Y247558D01*
X464993Y247539D01*
X464886Y247433D01*
X464826Y247355D01*
X464758Y247282D01*
X464729Y247229D01*
X464692Y247182D01*
X464652Y247091D01*
X464604Y247004D01*
X464589Y246945D01*
X464565Y246890D01*
X464550Y246792D01*
X464525Y246696D01*
X464519Y246596D01*
X464515Y246576D01*
X464517Y246563D01*
X464515Y246535D01*
X464515Y246195D01*
X463401Y243507D01*
X461343Y241449D01*
X458655Y240335D01*
X455745Y240335D01*
X453454Y241284D01*
X453320Y241321D01*
X453187Y241362D01*
X453167Y241363D01*
X453147Y241368D01*
X453008Y241370D01*
X452869Y241377D01*
X452850Y241373D01*
X452829Y241373D01*
X452694Y241341D01*
X452558Y241313D01*
X452540Y241304D01*
X452520Y241299D01*
X452397Y241234D01*
X452272Y241173D01*
X452257Y241160D01*
X452239Y241150D01*
X452136Y241057D01*
X452030Y240967D01*
X452019Y240950D01*
X452004Y240936D01*
X451927Y240820D01*
X451847Y240706D01*
X451840Y240688D01*
X451829Y240671D01*
X451784Y240539D01*
X451734Y240409D01*
X451732Y240389D01*
X451726Y240370D01*
X451715Y240231D01*
X451699Y240093D01*
X451702Y240073D01*
X451700Y240053D01*
X451724Y239915D01*
X451744Y239778D01*
X451753Y239752D01*
X451755Y239740D01*
X451763Y239721D01*
X451796Y239626D01*
X451815Y239580D01*
X451815Y236670D01*
X450701Y233982D01*
X448643Y231924D01*
X445955Y230810D01*
X443045Y230810D01*
X440354Y231925D01*
X440322Y231949D01*
X440289Y231986D01*
X440197Y232046D01*
X440110Y232114D01*
X440064Y232134D01*
X440023Y232161D01*
X439919Y232197D01*
X439818Y232240D01*
X439769Y232248D01*
X439722Y232264D01*
X439613Y232273D01*
X439504Y232290D01*
X439455Y232285D01*
X439405Y232289D01*
X439297Y232271D01*
X439188Y232260D01*
X439141Y232243D01*
X439092Y232235D01*
X438992Y232190D01*
X438888Y232153D01*
X438847Y232125D01*
X438802Y232104D01*
X438716Y232036D01*
X438625Y231974D01*
X438592Y231937D01*
X438553Y231906D01*
X438487Y231818D01*
X438415Y231736D01*
X438392Y231691D01*
X438362Y231652D01*
X438291Y231507D01*
X438001Y230806D01*
X437200Y230005D01*
X437115Y229896D01*
X437026Y229789D01*
X437017Y229770D01*
X437005Y229754D01*
X436950Y229627D01*
X436891Y229501D01*
X436887Y229481D01*
X436879Y229462D01*
X436857Y229324D01*
X436831Y229188D01*
X436832Y229168D01*
X436829Y229148D01*
X436842Y229009D01*
X436851Y228871D01*
X436857Y228852D01*
X436859Y228832D01*
X436906Y228700D01*
X436949Y228569D01*
X436959Y228551D01*
X436966Y228532D01*
X437044Y228417D01*
X437119Y228300D01*
X437134Y228286D01*
X437145Y228269D01*
X437249Y228177D01*
X437350Y228082D01*
X437368Y228072D01*
X437383Y228059D01*
X437507Y227996D01*
X437629Y227928D01*
X437649Y227923D01*
X437667Y227914D01*
X437802Y227884D01*
X437937Y227849D01*
X437965Y227847D01*
X437977Y227844D01*
X437997Y227845D01*
X438098Y227839D01*
X528162Y227839D01*
X530216Y226988D01*
X547663Y209541D01*
X548514Y207487D01*
X548514Y170382D01*
X548526Y170283D01*
X548529Y170184D01*
X548546Y170126D01*
X548554Y170066D01*
X548590Y169974D01*
X548618Y169879D01*
X548648Y169827D01*
X548671Y169770D01*
X548729Y169690D01*
X548779Y169605D01*
X548845Y169530D01*
X548857Y169513D01*
X548867Y169505D01*
X548885Y169484D01*
X549126Y169243D01*
X550240Y166555D01*
X550240Y164842D01*
X550257Y164704D01*
X550270Y164566D01*
X550277Y164547D01*
X550280Y164527D01*
X550331Y164397D01*
X550378Y164266D01*
X550389Y164250D01*
X550397Y164231D01*
X550478Y164119D01*
X550556Y164003D01*
X550572Y163990D01*
X550583Y163973D01*
X550691Y163885D01*
X550795Y163793D01*
X550813Y163784D01*
X550828Y163771D01*
X550954Y163711D01*
X551078Y163648D01*
X551098Y163644D01*
X551116Y163635D01*
X551252Y163609D01*
X551388Y163579D01*
X551409Y163579D01*
X551428Y163575D01*
X551567Y163584D01*
X551706Y163588D01*
X551726Y163594D01*
X551746Y163595D01*
X551878Y163638D01*
X552012Y163677D01*
X552029Y163687D01*
X552048Y163693D01*
X552166Y163768D01*
X552286Y163838D01*
X552307Y163857D01*
X552317Y163863D01*
X552331Y163878D01*
X552406Y163945D01*
X566936Y178474D01*
X568990Y179325D01*
X599410Y179325D01*
X601464Y178474D01*
X624169Y155769D01*
X625020Y153715D01*
X625020Y43810D01*
X625032Y43711D01*
X625035Y43612D01*
X625052Y43554D01*
X625060Y43494D01*
X625096Y43402D01*
X625124Y43307D01*
X625154Y43255D01*
X625177Y43198D01*
X625235Y43118D01*
X625285Y43033D01*
X625351Y42958D01*
X625363Y42941D01*
X625373Y42933D01*
X625391Y42912D01*
X629491Y38813D01*
X629514Y38795D01*
X629533Y38772D01*
X629639Y38698D01*
X629742Y38618D01*
X629769Y38606D01*
X629793Y38589D01*
X629914Y38543D01*
X630034Y38492D01*
X630063Y38487D01*
X630091Y38477D01*
X630220Y38462D01*
X630348Y38442D01*
X630377Y38445D01*
X630407Y38441D01*
X630535Y38459D01*
X630665Y38472D01*
X630692Y38482D01*
X630722Y38486D01*
X630874Y38538D01*
X632272Y39117D01*
X637728Y39117D01*
X642770Y37029D01*
X646629Y33170D01*
X648717Y28128D01*
X648717Y22672D01*
X646629Y17630D01*
X642770Y13771D01*
X637728Y11683D01*
X632272Y11683D01*
X627230Y13771D01*
X623197Y17804D01*
X623103Y17877D01*
X623014Y17956D01*
X622978Y17974D01*
X622946Y17999D01*
X622837Y18046D01*
X622731Y18100D01*
X622692Y18109D01*
X622654Y18125D01*
X622537Y18144D01*
X622421Y18170D01*
X622380Y18169D01*
X622340Y18175D01*
X622222Y18164D01*
X622103Y18160D01*
X622064Y18149D01*
X622024Y18145D01*
X621911Y18105D01*
X621797Y18072D01*
X621762Y18052D01*
X621724Y18038D01*
X621626Y17971D01*
X621523Y17910D01*
X621478Y17871D01*
X621461Y17859D01*
X621448Y17844D01*
X621402Y17804D01*
X617370Y13771D01*
X612328Y11683D01*
X606872Y11683D01*
X601830Y13771D01*
X597798Y17804D01*
X597703Y17877D01*
X597614Y17956D01*
X597578Y17974D01*
X597546Y17999D01*
X597437Y18046D01*
X597331Y18100D01*
X597292Y18109D01*
X597254Y18125D01*
X597137Y18144D01*
X597021Y18170D01*
X596980Y18169D01*
X596940Y18175D01*
X596822Y18164D01*
X596703Y18160D01*
X596664Y18149D01*
X596624Y18145D01*
X596511Y18105D01*
X596397Y18072D01*
X596363Y18052D01*
X596324Y18038D01*
X596226Y17971D01*
X596123Y17911D01*
X596078Y17871D01*
X596061Y17859D01*
X596048Y17844D01*
X596003Y17804D01*
X591970Y13771D01*
X586928Y11683D01*
X581472Y11683D01*
X576430Y13771D01*
X572397Y17804D01*
X572303Y17877D01*
X572214Y17956D01*
X572178Y17974D01*
X572146Y17999D01*
X572037Y18046D01*
X571931Y18100D01*
X571892Y18109D01*
X571854Y18125D01*
X571737Y18144D01*
X571621Y18170D01*
X571580Y18169D01*
X571540Y18175D01*
X571422Y18164D01*
X571303Y18160D01*
X571264Y18149D01*
X571224Y18145D01*
X571111Y18105D01*
X570997Y18072D01*
X570962Y18052D01*
X570924Y18038D01*
X570826Y17971D01*
X570723Y17910D01*
X570678Y17871D01*
X570661Y17859D01*
X570648Y17844D01*
X570602Y17804D01*
X566570Y13771D01*
X561528Y11683D01*
X556072Y11683D01*
X551030Y13771D01*
X546997Y17804D01*
X546903Y17877D01*
X546814Y17956D01*
X546778Y17974D01*
X546746Y17999D01*
X546637Y18046D01*
X546531Y18100D01*
X546492Y18109D01*
X546454Y18125D01*
X546337Y18144D01*
X546221Y18170D01*
X546180Y18169D01*
X546140Y18175D01*
X546022Y18164D01*
X545903Y18160D01*
X545864Y18149D01*
X545824Y18145D01*
X545711Y18105D01*
X545597Y18072D01*
X545562Y18052D01*
X545524Y18038D01*
X545426Y17971D01*
X545323Y17910D01*
X545278Y17871D01*
X545261Y17859D01*
X545248Y17844D01*
X545202Y17804D01*
X541170Y13771D01*
X536128Y11683D01*
X530672Y11683D01*
X525630Y13771D01*
X521597Y17804D01*
X521503Y17877D01*
X521414Y17956D01*
X521378Y17974D01*
X521346Y17999D01*
X521237Y18046D01*
X521131Y18100D01*
X521092Y18109D01*
X521054Y18125D01*
X520937Y18144D01*
X520821Y18170D01*
X520780Y18169D01*
X520740Y18175D01*
X520622Y18164D01*
X520503Y18160D01*
X520464Y18149D01*
X520424Y18145D01*
X520311Y18105D01*
X520197Y18072D01*
X520162Y18052D01*
X520124Y18038D01*
X520026Y17971D01*
X519923Y17910D01*
X519878Y17871D01*
X519861Y17859D01*
X519848Y17844D01*
X519802Y17804D01*
X515770Y13771D01*
X510728Y11683D01*
X505272Y11683D01*
X500230Y13771D01*
X496371Y17630D01*
X494283Y22672D01*
X494283Y28128D01*
X496371Y33170D01*
X500230Y37029D01*
X505272Y39117D01*
X510728Y39117D01*
X512126Y38538D01*
X512154Y38530D01*
X512181Y38517D01*
X512308Y38488D01*
X512433Y38454D01*
X512462Y38453D01*
X512491Y38447D01*
X512621Y38451D01*
X512751Y38449D01*
X512780Y38456D01*
X512809Y38457D01*
X512934Y38493D01*
X513060Y38523D01*
X513086Y38537D01*
X513115Y38545D01*
X513226Y38611D01*
X513341Y38672D01*
X513363Y38692D01*
X513388Y38707D01*
X513509Y38813D01*
X526885Y52189D01*
X526970Y52298D01*
X527059Y52405D01*
X527067Y52424D01*
X527080Y52440D01*
X527135Y52568D01*
X527194Y52693D01*
X527198Y52713D01*
X527206Y52732D01*
X527228Y52870D01*
X527254Y53006D01*
X527253Y53026D01*
X527256Y53046D01*
X527243Y53185D01*
X527234Y53323D01*
X527228Y53342D01*
X527226Y53362D01*
X527179Y53494D01*
X527136Y53625D01*
X527125Y53643D01*
X527119Y53662D01*
X527041Y53777D01*
X526966Y53894D01*
X526951Y53908D01*
X526940Y53925D01*
X526836Y54017D01*
X526735Y54112D01*
X526717Y54122D01*
X526702Y54135D01*
X526578Y54198D01*
X526456Y54266D01*
X526436Y54271D01*
X526418Y54280D01*
X526283Y54310D01*
X526148Y54345D01*
X526120Y54347D01*
X526108Y54350D01*
X526088Y54349D01*
X525987Y54355D01*
X398014Y54355D01*
X397915Y54343D01*
X397816Y54340D01*
X397758Y54323D01*
X397698Y54315D01*
X397606Y54279D01*
X397511Y54251D01*
X397459Y54221D01*
X397402Y54198D01*
X397322Y54140D01*
X397237Y54090D01*
X397162Y54024D01*
X397145Y54012D01*
X397137Y54002D01*
X397116Y53984D01*
X384026Y40893D01*
X383995Y40854D01*
X383959Y40820D01*
X383898Y40729D01*
X383831Y40642D01*
X383811Y40596D01*
X383784Y40555D01*
X383748Y40451D01*
X383704Y40350D01*
X383697Y40301D01*
X383681Y40254D01*
X383672Y40145D01*
X383655Y40036D01*
X383659Y39986D01*
X383655Y39937D01*
X383674Y39829D01*
X383684Y39719D01*
X383701Y39673D01*
X383710Y39624D01*
X383755Y39523D01*
X383792Y39420D01*
X383820Y39379D01*
X383840Y39334D01*
X383909Y39248D01*
X383971Y39157D01*
X384008Y39124D01*
X384039Y39085D01*
X384127Y39019D01*
X384209Y38946D01*
X384253Y38924D01*
X384293Y38894D01*
X384438Y38823D01*
X388770Y37029D01*
X392629Y33170D01*
X393389Y31333D01*
X393434Y31256D01*
X393469Y31173D01*
X393512Y31118D01*
X393547Y31057D01*
X393609Y30993D01*
X393664Y30922D01*
X393719Y30879D01*
X393768Y30829D01*
X393844Y30782D01*
X393915Y30727D01*
X393980Y30699D01*
X394039Y30662D01*
X394125Y30636D01*
X394207Y30600D01*
X394276Y30589D01*
X394343Y30569D01*
X394433Y30564D01*
X394521Y30550D01*
X394591Y30557D01*
X394661Y30554D01*
X394749Y30572D01*
X394838Y30580D01*
X394904Y30604D01*
X394972Y30618D01*
X395053Y30657D01*
X395137Y30687D01*
X395195Y30727D01*
X395258Y30758D01*
X395326Y30816D01*
X395400Y30866D01*
X395447Y30919D01*
X395500Y30964D01*
X395551Y31037D01*
X395611Y31104D01*
X395675Y31212D01*
X395683Y31224D01*
X395685Y31230D01*
X395693Y31243D01*
X395972Y31790D01*
X397100Y33343D01*
X398457Y34700D01*
X400010Y35828D01*
X401720Y36699D01*
X403545Y37293D01*
X403861Y37343D01*
X403861Y26670D01*
X403876Y26552D01*
X403883Y26433D01*
X403896Y26395D01*
X403901Y26355D01*
X403944Y26244D01*
X403981Y26131D01*
X404003Y26097D01*
X404018Y26059D01*
X404088Y25963D01*
X404151Y25862D01*
X404181Y25834D01*
X404204Y25802D01*
X404296Y25726D01*
X404383Y25644D01*
X404418Y25625D01*
X404449Y25599D01*
X404557Y25548D01*
X404661Y25491D01*
X404701Y25480D01*
X404737Y25463D01*
X404854Y25441D01*
X404969Y25411D01*
X405030Y25407D01*
X405050Y25403D01*
X405070Y25405D01*
X405130Y25401D01*
X406401Y25401D01*
X406401Y25399D01*
X405130Y25399D01*
X405012Y25384D01*
X404893Y25377D01*
X404855Y25364D01*
X404814Y25359D01*
X404704Y25315D01*
X404591Y25279D01*
X404556Y25257D01*
X404519Y25242D01*
X404423Y25172D01*
X404322Y25109D01*
X404294Y25079D01*
X404261Y25055D01*
X404186Y24964D01*
X404104Y24877D01*
X404084Y24842D01*
X404059Y24810D01*
X404008Y24703D01*
X403950Y24598D01*
X403940Y24559D01*
X403923Y24523D01*
X403901Y24406D01*
X403871Y24291D01*
X403867Y24230D01*
X403863Y24210D01*
X403865Y24190D01*
X403861Y24130D01*
X403861Y13457D01*
X403545Y13507D01*
X401720Y14101D01*
X400010Y14972D01*
X398457Y16100D01*
X397100Y17457D01*
X395972Y19010D01*
X395693Y19557D01*
X395643Y19631D01*
X395601Y19710D01*
X395553Y19762D01*
X395514Y19820D01*
X395447Y19879D01*
X395387Y19946D01*
X395328Y19984D01*
X395276Y20031D01*
X395196Y20071D01*
X395121Y20121D01*
X395055Y20143D01*
X394992Y20175D01*
X394905Y20195D01*
X394820Y20224D01*
X394750Y20229D01*
X394682Y20245D01*
X394592Y20242D01*
X394503Y20249D01*
X394434Y20237D01*
X394364Y20235D01*
X394278Y20210D01*
X394190Y20195D01*
X394126Y20166D01*
X394059Y20146D01*
X393982Y20101D01*
X393900Y20064D01*
X393845Y20020D01*
X393785Y19985D01*
X393721Y19921D01*
X393651Y19865D01*
X393609Y19809D01*
X393560Y19760D01*
X393514Y19683D01*
X393460Y19611D01*
X393405Y19499D01*
X393398Y19486D01*
X393396Y19480D01*
X393389Y19467D01*
X392629Y17630D01*
X388770Y13771D01*
X383728Y11683D01*
X378272Y11683D01*
X373230Y13771D01*
X369197Y17804D01*
X369103Y17877D01*
X369014Y17956D01*
X368978Y17974D01*
X368946Y17999D01*
X368837Y18046D01*
X368731Y18100D01*
X368692Y18109D01*
X368654Y18125D01*
X368537Y18144D01*
X368421Y18170D01*
X368380Y18169D01*
X368340Y18175D01*
X368222Y18164D01*
X368103Y18160D01*
X368064Y18149D01*
X368024Y18145D01*
X367911Y18105D01*
X367797Y18072D01*
X367762Y18052D01*
X367724Y18038D01*
X367626Y17971D01*
X367523Y17910D01*
X367478Y17871D01*
X367461Y17859D01*
X367448Y17844D01*
X367402Y17804D01*
X363370Y13771D01*
X358328Y11683D01*
X352872Y11683D01*
X347830Y13771D01*
X343797Y17804D01*
X343703Y17877D01*
X343614Y17956D01*
X343578Y17974D01*
X343546Y17999D01*
X343437Y18046D01*
X343331Y18100D01*
X343292Y18109D01*
X343254Y18125D01*
X343137Y18144D01*
X343021Y18170D01*
X342980Y18169D01*
X342940Y18175D01*
X342822Y18164D01*
X342703Y18160D01*
X342664Y18149D01*
X342624Y18145D01*
X342511Y18105D01*
X342397Y18072D01*
X342362Y18052D01*
X342324Y18038D01*
X342226Y17971D01*
X342123Y17910D01*
X342078Y17871D01*
X342061Y17859D01*
X342048Y17844D01*
X342002Y17804D01*
X337970Y13771D01*
X332928Y11683D01*
X327472Y11683D01*
X322430Y13771D01*
X318397Y17804D01*
X318303Y17877D01*
X318214Y17956D01*
X318178Y17974D01*
X318146Y17999D01*
X318037Y18046D01*
X317931Y18100D01*
X317892Y18109D01*
X317854Y18125D01*
X317737Y18144D01*
X317621Y18170D01*
X317580Y18169D01*
X317540Y18175D01*
X317422Y18164D01*
X317303Y18160D01*
X317264Y18149D01*
X317224Y18145D01*
X317111Y18105D01*
X316997Y18072D01*
X316962Y18052D01*
X316924Y18038D01*
X316826Y17971D01*
X316723Y17910D01*
X316678Y17871D01*
X316661Y17859D01*
X316648Y17844D01*
X316602Y17804D01*
X312570Y13771D01*
X307528Y11683D01*
X302072Y11683D01*
X297030Y13771D01*
X292997Y17804D01*
X292903Y17877D01*
X292814Y17956D01*
X292778Y17974D01*
X292746Y17999D01*
X292637Y18046D01*
X292531Y18100D01*
X292492Y18109D01*
X292454Y18125D01*
X292337Y18144D01*
X292221Y18170D01*
X292180Y18169D01*
X292140Y18175D01*
X292022Y18164D01*
X291903Y18160D01*
X291864Y18149D01*
X291824Y18145D01*
X291711Y18105D01*
X291597Y18072D01*
X291562Y18052D01*
X291524Y18038D01*
X291426Y17971D01*
X291323Y17910D01*
X291278Y17871D01*
X291261Y17859D01*
X291248Y17844D01*
X291202Y17804D01*
X287170Y13771D01*
X282128Y11683D01*
X276672Y11683D01*
X271630Y13771D01*
X267771Y17630D01*
X265683Y22672D01*
X265683Y28128D01*
X267771Y33170D01*
X270915Y36314D01*
X271000Y36423D01*
X271089Y36530D01*
X271098Y36549D01*
X271110Y36565D01*
X271166Y36693D01*
X271225Y36818D01*
X271228Y36838D01*
X271236Y36857D01*
X271258Y36995D01*
X271284Y37131D01*
X271283Y37151D01*
X271286Y37171D01*
X271273Y37310D01*
X271265Y37448D01*
X271258Y37467D01*
X271256Y37487D01*
X271209Y37619D01*
X271167Y37750D01*
X271156Y37768D01*
X271149Y37787D01*
X271071Y37902D01*
X270996Y38019D01*
X270982Y38033D01*
X270970Y38050D01*
X270866Y38142D01*
X270765Y38237D01*
X270747Y38247D01*
X270732Y38260D01*
X270608Y38324D01*
X270486Y38391D01*
X270467Y38396D01*
X270449Y38405D01*
X270313Y38435D01*
X270178Y38470D01*
X270150Y38472D01*
X270138Y38475D01*
X270118Y38474D01*
X270018Y38480D01*
X220431Y38480D01*
X217070Y39872D01*
X195447Y61495D01*
X194721Y63250D01*
X194686Y63310D01*
X194660Y63375D01*
X194608Y63448D01*
X194563Y63526D01*
X194515Y63576D01*
X194474Y63633D01*
X194404Y63690D01*
X194342Y63754D01*
X194282Y63791D01*
X194229Y63835D01*
X194147Y63874D01*
X194071Y63921D01*
X194004Y63941D01*
X193941Y63971D01*
X193853Y63988D01*
X193767Y64014D01*
X193697Y64018D01*
X193628Y64031D01*
X193539Y64025D01*
X193449Y64029D01*
X193381Y64015D01*
X193311Y64011D01*
X193226Y63983D01*
X193138Y63965D01*
X193075Y63934D01*
X193009Y63913D01*
X192933Y63865D01*
X192852Y63825D01*
X192799Y63780D01*
X192740Y63743D01*
X192678Y63677D01*
X192610Y63619D01*
X192570Y63562D01*
X192522Y63511D01*
X192479Y63433D01*
X192427Y63359D01*
X192402Y63294D01*
X192368Y63233D01*
X192346Y63146D01*
X192314Y63062D01*
X192306Y62992D01*
X192289Y62925D01*
X192279Y62764D01*
X192279Y55533D01*
X191041Y52545D01*
X182405Y43909D01*
X179417Y42671D01*
X173361Y42671D01*
X173263Y42659D01*
X173164Y42656D01*
X173106Y42639D01*
X173046Y42631D01*
X172954Y42595D01*
X172858Y42567D01*
X172806Y42537D01*
X172750Y42514D01*
X172670Y42456D01*
X172585Y42406D01*
X172509Y42340D01*
X172493Y42328D01*
X172485Y42318D01*
X172464Y42300D01*
X169551Y39387D01*
X164603Y37337D01*
X159247Y37337D01*
X158567Y37619D01*
X158432Y37656D01*
X158300Y37697D01*
X158279Y37698D01*
X158260Y37703D01*
X158120Y37705D01*
X157982Y37712D01*
X157962Y37708D01*
X157942Y37708D01*
X157806Y37676D01*
X157670Y37648D01*
X157652Y37639D01*
X157633Y37634D01*
X157510Y37569D01*
X157385Y37508D01*
X157369Y37495D01*
X157351Y37485D01*
X157249Y37392D01*
X157143Y37302D01*
X157131Y37285D01*
X157116Y37271D01*
X157039Y37155D01*
X156960Y37042D01*
X156952Y37023D01*
X156941Y37006D01*
X156896Y36874D01*
X156847Y36744D01*
X156845Y36724D01*
X156838Y36705D01*
X156827Y36566D01*
X156812Y36428D01*
X156814Y36408D01*
X156813Y36388D01*
X156837Y36251D01*
X156856Y36113D01*
X156865Y36087D01*
X156867Y36075D01*
X156876Y36056D01*
X156908Y35961D01*
X159640Y29366D01*
X159640Y21434D01*
X156604Y14105D01*
X150995Y8496D01*
X146192Y6507D01*
X146132Y6472D01*
X146067Y6446D01*
X145994Y6394D01*
X145916Y6349D01*
X145866Y6301D01*
X145809Y6260D01*
X145752Y6190D01*
X145688Y6128D01*
X145651Y6068D01*
X145607Y6015D01*
X145568Y5933D01*
X145521Y5857D01*
X145501Y5790D01*
X145471Y5727D01*
X145454Y5639D01*
X145428Y5553D01*
X145424Y5483D01*
X145411Y5414D01*
X145417Y5325D01*
X145413Y5235D01*
X145427Y5167D01*
X145431Y5097D01*
X145459Y5012D01*
X145477Y4924D01*
X145508Y4861D01*
X145529Y4795D01*
X145577Y4719D01*
X145617Y4638D01*
X145662Y4585D01*
X145699Y4526D01*
X145765Y4464D01*
X145823Y4396D01*
X145880Y4356D01*
X145931Y4308D01*
X146009Y4265D01*
X146083Y4213D01*
X146148Y4188D01*
X146209Y4154D01*
X146296Y4132D01*
X146380Y4100D01*
X146450Y4092D01*
X146517Y4075D01*
X146678Y4065D01*
X654907Y4065D01*
X655020Y4079D01*
G37*
G36*
X132791Y4073D02*
X132791Y4073D01*
X132861Y4072D01*
X132948Y4093D01*
X133038Y4105D01*
X133102Y4130D01*
X133170Y4147D01*
X133250Y4189D01*
X133333Y4222D01*
X133390Y4263D01*
X133451Y4295D01*
X133518Y4356D01*
X133591Y4408D01*
X133635Y4462D01*
X133687Y4509D01*
X133736Y4584D01*
X133793Y4653D01*
X133823Y4717D01*
X133861Y4775D01*
X133891Y4860D01*
X133929Y4941D01*
X133942Y5010D01*
X133965Y5076D01*
X133972Y5165D01*
X133989Y5253D01*
X133984Y5323D01*
X133990Y5393D01*
X133974Y5481D01*
X133969Y5571D01*
X133947Y5637D01*
X133935Y5706D01*
X133899Y5788D01*
X133871Y5873D01*
X133834Y5932D01*
X133805Y5996D01*
X133749Y6066D01*
X133701Y6142D01*
X133650Y6190D01*
X133606Y6244D01*
X133535Y6299D01*
X133469Y6360D01*
X133408Y6394D01*
X133352Y6436D01*
X133208Y6507D01*
X128405Y8496D01*
X122796Y14105D01*
X119760Y21434D01*
X119760Y29366D01*
X122796Y36695D01*
X128405Y42304D01*
X135734Y45340D01*
X143666Y45340D01*
X148016Y43538D01*
X148150Y43501D01*
X148283Y43460D01*
X148303Y43460D01*
X148323Y43454D01*
X148462Y43452D01*
X148600Y43445D01*
X148620Y43449D01*
X148640Y43449D01*
X148777Y43482D01*
X148912Y43510D01*
X148930Y43519D01*
X148950Y43523D01*
X149073Y43588D01*
X149198Y43649D01*
X149213Y43663D01*
X149231Y43672D01*
X149334Y43765D01*
X149440Y43856D01*
X149451Y43872D01*
X149466Y43886D01*
X149543Y44002D01*
X149623Y44116D01*
X149630Y44135D01*
X149641Y44152D01*
X149686Y44283D01*
X149735Y44413D01*
X149738Y44433D01*
X149744Y44452D01*
X149755Y44591D01*
X149771Y44729D01*
X149768Y44749D01*
X149769Y44769D01*
X149746Y44907D01*
X149726Y45044D01*
X149717Y45071D01*
X149715Y45083D01*
X149707Y45102D01*
X149674Y45196D01*
X148462Y48122D01*
X148462Y53478D01*
X150512Y58426D01*
X154299Y62213D01*
X156598Y63165D01*
X156676Y63210D01*
X156758Y63245D01*
X156813Y63288D01*
X156874Y63323D01*
X156939Y63385D01*
X157009Y63440D01*
X157052Y63495D01*
X157103Y63544D01*
X157150Y63621D01*
X157204Y63691D01*
X157232Y63756D01*
X157269Y63815D01*
X157295Y63901D01*
X157331Y63983D01*
X157342Y64052D01*
X157363Y64119D01*
X157367Y64209D01*
X157381Y64297D01*
X157374Y64367D01*
X157378Y64437D01*
X157360Y64525D01*
X157351Y64614D01*
X157328Y64680D01*
X157313Y64748D01*
X157274Y64829D01*
X157244Y64913D01*
X157204Y64971D01*
X157174Y65034D01*
X157115Y65102D01*
X157065Y65176D01*
X157013Y65223D01*
X156967Y65276D01*
X156894Y65328D01*
X156827Y65387D01*
X156720Y65451D01*
X156707Y65459D01*
X156701Y65462D01*
X156688Y65469D01*
X155668Y65989D01*
X154147Y67094D01*
X152819Y68422D01*
X151714Y69943D01*
X150861Y71617D01*
X150280Y73404D01*
X150233Y73701D01*
X160695Y73701D01*
X160813Y73716D01*
X160932Y73723D01*
X160970Y73735D01*
X161010Y73741D01*
X161121Y73784D01*
X161234Y73821D01*
X161268Y73843D01*
X161306Y73858D01*
X161402Y73927D01*
X161503Y73991D01*
X161531Y74021D01*
X161563Y74044D01*
X161639Y74136D01*
X161721Y74223D01*
X161740Y74258D01*
X161766Y74289D01*
X161817Y74397D01*
X161874Y74501D01*
X161884Y74541D01*
X161902Y74577D01*
X161924Y74694D01*
X161954Y74809D01*
X161958Y74869D01*
X161961Y74889D01*
X161960Y74910D01*
X161964Y74970D01*
X161964Y77430D01*
X161949Y77548D01*
X161942Y77667D01*
X161929Y77705D01*
X161924Y77746D01*
X161880Y77856D01*
X161844Y77969D01*
X161822Y78004D01*
X161807Y78041D01*
X161737Y78137D01*
X161674Y78238D01*
X161644Y78266D01*
X161620Y78299D01*
X161529Y78375D01*
X161442Y78456D01*
X161407Y78476D01*
X161375Y78501D01*
X161268Y78552D01*
X161163Y78610D01*
X161124Y78620D01*
X161088Y78637D01*
X160971Y78659D01*
X160855Y78689D01*
X160795Y78693D01*
X160775Y78697D01*
X160755Y78695D01*
X160695Y78699D01*
X150233Y78699D01*
X150280Y78996D01*
X150861Y80783D01*
X151714Y82457D01*
X152819Y83978D01*
X154147Y85306D01*
X154884Y85841D01*
X154942Y85896D01*
X155006Y85942D01*
X155057Y86004D01*
X155115Y86059D01*
X155158Y86126D01*
X155209Y86187D01*
X155243Y86260D01*
X155286Y86327D01*
X155311Y86403D01*
X155344Y86475D01*
X155359Y86554D01*
X155384Y86630D01*
X155389Y86709D01*
X155404Y86788D01*
X155399Y86867D01*
X155404Y86947D01*
X155389Y87025D01*
X155384Y87105D01*
X155360Y87181D01*
X155345Y87260D01*
X155311Y87332D01*
X155286Y87407D01*
X155244Y87475D01*
X155210Y87547D01*
X155159Y87609D01*
X155116Y87676D01*
X155058Y87731D01*
X155007Y87793D01*
X154943Y87839D01*
X154885Y87894D01*
X154815Y87933D01*
X154750Y87980D01*
X154676Y88009D01*
X154606Y88048D01*
X154529Y88068D01*
X154454Y88097D01*
X154375Y88107D01*
X154298Y88127D01*
X154140Y88137D01*
X154139Y88137D01*
X154138Y88137D01*
X150843Y88137D01*
X148462Y90518D01*
X148462Y111252D01*
X148447Y111370D01*
X148440Y111489D01*
X148427Y111527D01*
X148422Y111568D01*
X148379Y111678D01*
X148342Y111791D01*
X148320Y111826D01*
X148305Y111863D01*
X148236Y111959D01*
X148172Y112060D01*
X148142Y112088D01*
X148119Y112121D01*
X148027Y112197D01*
X147940Y112278D01*
X147905Y112298D01*
X147874Y112323D01*
X147766Y112374D01*
X147662Y112432D01*
X147622Y112442D01*
X147586Y112459D01*
X147469Y112481D01*
X147354Y112511D01*
X147294Y112515D01*
X147274Y112519D01*
X147253Y112517D01*
X147193Y112521D01*
X39658Y112521D01*
X36670Y113759D01*
X34205Y116224D01*
X6231Y144198D01*
X6122Y144283D01*
X6015Y144372D01*
X5996Y144380D01*
X5980Y144393D01*
X5852Y144448D01*
X5727Y144507D01*
X5707Y144511D01*
X5688Y144519D01*
X5550Y144541D01*
X5414Y144567D01*
X5394Y144566D01*
X5374Y144569D01*
X5235Y144556D01*
X5097Y144547D01*
X5078Y144541D01*
X5058Y144539D01*
X4926Y144492D01*
X4795Y144449D01*
X4777Y144438D01*
X4758Y144431D01*
X4643Y144353D01*
X4526Y144279D01*
X4512Y144264D01*
X4495Y144253D01*
X4403Y144149D01*
X4308Y144047D01*
X4298Y144030D01*
X4285Y144014D01*
X4221Y143891D01*
X4154Y143769D01*
X4149Y143749D01*
X4140Y143731D01*
X4110Y143595D01*
X4075Y143461D01*
X4073Y143433D01*
X4070Y143421D01*
X4071Y143400D01*
X4065Y143300D01*
X4065Y5334D01*
X4080Y5216D01*
X4087Y5097D01*
X4100Y5059D01*
X4105Y5018D01*
X4148Y4908D01*
X4185Y4795D01*
X4207Y4760D01*
X4222Y4723D01*
X4291Y4627D01*
X4355Y4526D01*
X4385Y4498D01*
X4408Y4465D01*
X4500Y4389D01*
X4587Y4308D01*
X4622Y4288D01*
X4653Y4263D01*
X4761Y4212D01*
X4865Y4154D01*
X4905Y4144D01*
X4941Y4127D01*
X5058Y4105D01*
X5173Y4075D01*
X5233Y4071D01*
X5253Y4067D01*
X5274Y4069D01*
X5334Y4065D01*
X132722Y4065D01*
X132791Y4073D01*
G37*
G36*
X504722Y109920D02*
X504722Y109920D01*
X504860Y109929D01*
X504879Y109935D01*
X504899Y109937D01*
X505031Y109984D01*
X505162Y110027D01*
X505180Y110038D01*
X505199Y110045D01*
X505314Y110123D01*
X505431Y110197D01*
X505445Y110212D01*
X505462Y110223D01*
X505554Y110327D01*
X505649Y110429D01*
X505659Y110446D01*
X505672Y110462D01*
X505736Y110585D01*
X505803Y110707D01*
X505808Y110727D01*
X505817Y110745D01*
X505847Y110881D01*
X505882Y111015D01*
X505884Y111043D01*
X505887Y111055D01*
X505886Y111076D01*
X505892Y111176D01*
X505892Y140975D01*
X506743Y143029D01*
X523630Y159915D01*
X523690Y159993D01*
X523758Y160065D01*
X523787Y160118D01*
X523824Y160166D01*
X523864Y160257D01*
X523912Y160344D01*
X523927Y160402D01*
X523951Y160458D01*
X523966Y160556D01*
X523991Y160652D01*
X523997Y160752D01*
X524001Y160772D01*
X523999Y160784D01*
X524001Y160812D01*
X524001Y195080D01*
X523989Y195178D01*
X523986Y195277D01*
X523969Y195336D01*
X523961Y195396D01*
X523925Y195488D01*
X523897Y195583D01*
X523867Y195635D01*
X523844Y195691D01*
X523786Y195771D01*
X523736Y195857D01*
X523670Y195932D01*
X523658Y195949D01*
X523648Y195956D01*
X523630Y195978D01*
X522463Y197144D01*
X522408Y197187D01*
X522359Y197237D01*
X522283Y197284D01*
X522212Y197339D01*
X522148Y197367D01*
X522088Y197403D01*
X522002Y197430D01*
X521920Y197465D01*
X521851Y197476D01*
X521784Y197497D01*
X521695Y197501D01*
X521606Y197515D01*
X521536Y197509D01*
X521467Y197512D01*
X521379Y197494D01*
X521289Y197486D01*
X521223Y197462D01*
X521155Y197448D01*
X521074Y197408D01*
X520990Y197378D01*
X520932Y197339D01*
X520869Y197308D01*
X520801Y197250D01*
X520727Y197199D01*
X520680Y197147D01*
X520627Y197102D01*
X520576Y197028D01*
X520516Y196961D01*
X520484Y196899D01*
X520444Y196842D01*
X520412Y196758D01*
X520372Y196678D01*
X520356Y196610D01*
X520332Y196544D01*
X520322Y196455D01*
X520302Y196367D01*
X520304Y196298D01*
X520296Y196228D01*
X520309Y196139D01*
X520312Y196049D01*
X520331Y195982D01*
X520341Y195913D01*
X520393Y195761D01*
X521463Y193178D01*
X521463Y187822D01*
X519413Y182874D01*
X515626Y179087D01*
X510678Y177037D01*
X505322Y177037D01*
X500374Y179087D01*
X496587Y182874D01*
X495635Y185173D01*
X495590Y185251D01*
X495555Y185333D01*
X495512Y185388D01*
X495477Y185449D01*
X495415Y185514D01*
X495360Y185584D01*
X495305Y185627D01*
X495256Y185678D01*
X495179Y185725D01*
X495109Y185779D01*
X495044Y185807D01*
X494985Y185844D01*
X494899Y185870D01*
X494817Y185906D01*
X494748Y185917D01*
X494681Y185938D01*
X494591Y185942D01*
X494503Y185956D01*
X494433Y185949D01*
X494363Y185953D01*
X494275Y185935D01*
X494186Y185926D01*
X494120Y185903D01*
X494052Y185888D01*
X493971Y185849D01*
X493887Y185819D01*
X493829Y185780D01*
X493766Y185749D01*
X493698Y185690D01*
X493624Y185640D01*
X493577Y185588D01*
X493524Y185542D01*
X493472Y185469D01*
X493413Y185402D01*
X493349Y185294D01*
X493341Y185282D01*
X493338Y185276D01*
X493331Y185263D01*
X492811Y184243D01*
X491706Y182722D01*
X490378Y181394D01*
X488857Y180289D01*
X487183Y179436D01*
X485396Y178855D01*
X485139Y178815D01*
X485139Y189230D01*
X485124Y189348D01*
X485117Y189467D01*
X485104Y189505D01*
X485099Y189545D01*
X485056Y189656D01*
X485019Y189769D01*
X484997Y189803D01*
X484982Y189841D01*
X484912Y189937D01*
X484849Y190038D01*
X484819Y190066D01*
X484795Y190098D01*
X484704Y190174D01*
X484617Y190256D01*
X484582Y190275D01*
X484551Y190301D01*
X484443Y190352D01*
X484339Y190409D01*
X484299Y190420D01*
X484263Y190437D01*
X484146Y190459D01*
X484031Y190489D01*
X483970Y190493D01*
X483950Y190497D01*
X483930Y190495D01*
X483870Y190499D01*
X481330Y190499D01*
X481212Y190484D01*
X481093Y190477D01*
X481055Y190464D01*
X481014Y190459D01*
X480904Y190415D01*
X480791Y190379D01*
X480756Y190357D01*
X480719Y190342D01*
X480623Y190272D01*
X480522Y190209D01*
X480494Y190179D01*
X480461Y190155D01*
X480386Y190064D01*
X480304Y189977D01*
X480284Y189942D01*
X480259Y189910D01*
X480208Y189803D01*
X480150Y189698D01*
X480140Y189659D01*
X480123Y189623D01*
X480101Y189506D01*
X480071Y189391D01*
X480067Y189330D01*
X480063Y189310D01*
X480065Y189290D01*
X480061Y189230D01*
X480061Y178815D01*
X479804Y178855D01*
X478017Y179436D01*
X476343Y180289D01*
X474822Y181394D01*
X473494Y182722D01*
X472389Y184243D01*
X471869Y185263D01*
X471819Y185338D01*
X471777Y185417D01*
X471730Y185469D01*
X471690Y185527D01*
X471623Y185586D01*
X471563Y185652D01*
X471504Y185691D01*
X471452Y185737D01*
X471372Y185778D01*
X471297Y185827D01*
X471231Y185850D01*
X471168Y185881D01*
X471081Y185901D01*
X470996Y185930D01*
X470926Y185936D01*
X470858Y185951D01*
X470769Y185948D01*
X470679Y185955D01*
X470610Y185943D01*
X470540Y185941D01*
X470454Y185916D01*
X470366Y185901D01*
X470302Y185872D01*
X470235Y185852D01*
X470158Y185807D01*
X470076Y185770D01*
X470021Y185726D01*
X469961Y185691D01*
X469898Y185628D01*
X469828Y185572D01*
X469785Y185516D01*
X469736Y185466D01*
X469690Y185389D01*
X469636Y185318D01*
X469581Y185205D01*
X469574Y185193D01*
X469572Y185186D01*
X469565Y185173D01*
X468613Y182874D01*
X464826Y179087D01*
X459878Y177037D01*
X454522Y177037D01*
X449574Y179087D01*
X445787Y182874D01*
X445673Y183150D01*
X445604Y183271D01*
X445539Y183393D01*
X445525Y183408D01*
X445515Y183426D01*
X445418Y183526D01*
X445325Y183629D01*
X445308Y183640D01*
X445294Y183654D01*
X445176Y183727D01*
X445059Y183804D01*
X445040Y183810D01*
X445023Y183821D01*
X444890Y183862D01*
X444758Y183907D01*
X444738Y183908D01*
X444719Y183914D01*
X444580Y183921D01*
X444441Y183932D01*
X444421Y183928D01*
X444401Y183929D01*
X444265Y183901D01*
X444128Y183877D01*
X444109Y183869D01*
X444090Y183865D01*
X443964Y183804D01*
X443838Y183747D01*
X443822Y183734D01*
X443804Y183725D01*
X443698Y183635D01*
X443589Y183548D01*
X443577Y183532D01*
X443562Y183519D01*
X443481Y183405D01*
X443398Y183294D01*
X443386Y183269D01*
X443379Y183259D01*
X443372Y183240D01*
X443327Y183150D01*
X443213Y182874D01*
X439426Y179087D01*
X434478Y177037D01*
X429122Y177037D01*
X424174Y179087D01*
X420387Y182874D01*
X420273Y183150D01*
X420204Y183271D01*
X420139Y183393D01*
X420125Y183408D01*
X420115Y183426D01*
X420018Y183526D01*
X419925Y183629D01*
X419908Y183640D01*
X419894Y183654D01*
X419776Y183727D01*
X419659Y183804D01*
X419640Y183810D01*
X419623Y183821D01*
X419490Y183862D01*
X419358Y183907D01*
X419338Y183908D01*
X419319Y183914D01*
X419180Y183921D01*
X419041Y183932D01*
X419021Y183928D01*
X419001Y183929D01*
X418865Y183901D01*
X418728Y183877D01*
X418709Y183869D01*
X418690Y183865D01*
X418564Y183804D01*
X418438Y183747D01*
X418422Y183734D01*
X418404Y183725D01*
X418298Y183635D01*
X418189Y183548D01*
X418177Y183532D01*
X418162Y183519D01*
X418081Y183405D01*
X417998Y183294D01*
X417986Y183269D01*
X417979Y183259D01*
X417972Y183240D01*
X417927Y183150D01*
X417813Y182874D01*
X414026Y179087D01*
X409078Y177037D01*
X403722Y177037D01*
X398774Y179087D01*
X394987Y182874D01*
X394873Y183150D01*
X394804Y183271D01*
X394739Y183393D01*
X394725Y183408D01*
X394715Y183426D01*
X394618Y183526D01*
X394525Y183629D01*
X394508Y183640D01*
X394494Y183654D01*
X394376Y183727D01*
X394259Y183804D01*
X394240Y183810D01*
X394223Y183821D01*
X394090Y183862D01*
X393958Y183907D01*
X393938Y183908D01*
X393919Y183914D01*
X393780Y183921D01*
X393641Y183932D01*
X393621Y183928D01*
X393601Y183929D01*
X393465Y183901D01*
X393328Y183877D01*
X393309Y183869D01*
X393290Y183865D01*
X393164Y183804D01*
X393038Y183747D01*
X393022Y183734D01*
X393004Y183725D01*
X392898Y183635D01*
X392789Y183548D01*
X392777Y183532D01*
X392762Y183519D01*
X392681Y183405D01*
X392598Y183294D01*
X392586Y183269D01*
X392579Y183259D01*
X392572Y183240D01*
X392527Y183150D01*
X392413Y182874D01*
X388626Y179087D01*
X383678Y177037D01*
X378322Y177037D01*
X373374Y179087D01*
X369587Y182874D01*
X369473Y183150D01*
X369404Y183270D01*
X369339Y183393D01*
X369325Y183408D01*
X369315Y183426D01*
X369219Y183525D01*
X369125Y183629D01*
X369108Y183640D01*
X369094Y183654D01*
X368975Y183727D01*
X368859Y183803D01*
X368840Y183810D01*
X368823Y183821D01*
X368690Y183862D01*
X368558Y183907D01*
X368538Y183908D01*
X368519Y183914D01*
X368380Y183921D01*
X368241Y183932D01*
X368221Y183928D01*
X368201Y183929D01*
X368065Y183901D01*
X367928Y183878D01*
X367909Y183869D01*
X367890Y183865D01*
X367765Y183804D01*
X367638Y183747D01*
X367622Y183734D01*
X367604Y183725D01*
X367498Y183635D01*
X367390Y183548D01*
X367377Y183532D01*
X367362Y183519D01*
X367282Y183405D01*
X367198Y183294D01*
X367186Y183269D01*
X367179Y183259D01*
X367172Y183240D01*
X367127Y183150D01*
X367013Y182874D01*
X363226Y179087D01*
X358278Y177037D01*
X352922Y177037D01*
X347974Y179087D01*
X344187Y182874D01*
X344073Y183150D01*
X344004Y183270D01*
X343939Y183393D01*
X343925Y183408D01*
X343915Y183426D01*
X343818Y183526D01*
X343725Y183629D01*
X343708Y183640D01*
X343694Y183654D01*
X343575Y183727D01*
X343459Y183803D01*
X343440Y183810D01*
X343423Y183821D01*
X343290Y183862D01*
X343158Y183907D01*
X343138Y183908D01*
X343119Y183914D01*
X342980Y183921D01*
X342841Y183932D01*
X342821Y183928D01*
X342801Y183929D01*
X342665Y183901D01*
X342528Y183877D01*
X342509Y183869D01*
X342490Y183865D01*
X342365Y183804D01*
X342238Y183747D01*
X342222Y183734D01*
X342204Y183725D01*
X342098Y183635D01*
X341989Y183548D01*
X341977Y183532D01*
X341962Y183519D01*
X341882Y183406D01*
X341798Y183294D01*
X341786Y183269D01*
X341779Y183259D01*
X341772Y183240D01*
X341727Y183150D01*
X341613Y182874D01*
X337826Y179087D01*
X332878Y177037D01*
X332568Y177037D01*
X332430Y177020D01*
X332291Y177007D01*
X332272Y177000D01*
X332252Y176997D01*
X332123Y176946D01*
X331992Y176899D01*
X331975Y176888D01*
X331956Y176880D01*
X331844Y176799D01*
X331729Y176721D01*
X331715Y176705D01*
X331699Y176694D01*
X331610Y176586D01*
X331518Y176482D01*
X331509Y176464D01*
X331496Y176449D01*
X331437Y176323D01*
X331374Y176199D01*
X331369Y176179D01*
X331361Y176161D01*
X331335Y176025D01*
X331304Y175889D01*
X331305Y175868D01*
X331301Y175849D01*
X331310Y175710D01*
X331314Y175571D01*
X331319Y175551D01*
X331321Y175531D01*
X331363Y175399D01*
X331402Y175265D01*
X331412Y175248D01*
X331419Y175229D01*
X331493Y175111D01*
X331564Y174991D01*
X331582Y174970D01*
X331589Y174960D01*
X331604Y174946D01*
X331670Y174871D01*
X382724Y123816D01*
X382802Y123756D01*
X382875Y123688D01*
X382928Y123659D01*
X382975Y123622D01*
X383066Y123582D01*
X383153Y123534D01*
X383212Y123519D01*
X383267Y123495D01*
X383365Y123480D01*
X383461Y123455D01*
X383561Y123449D01*
X383581Y123445D01*
X383594Y123447D01*
X383622Y123445D01*
X489356Y123445D01*
X491410Y122594D01*
X503726Y110278D01*
X503835Y110193D01*
X503942Y110104D01*
X503961Y110096D01*
X503977Y110083D01*
X504105Y110028D01*
X504230Y109969D01*
X504250Y109965D01*
X504269Y109957D01*
X504407Y109935D01*
X504543Y109909D01*
X504563Y109910D01*
X504583Y109907D01*
X504722Y109920D01*
G37*
G36*
X357266Y40458D02*
X357266Y40458D01*
X357385Y40461D01*
X357424Y40472D01*
X357464Y40476D01*
X357576Y40517D01*
X357690Y40550D01*
X357725Y40570D01*
X357763Y40584D01*
X357862Y40651D01*
X357964Y40711D01*
X358009Y40751D01*
X358026Y40762D01*
X358040Y40778D01*
X358085Y40818D01*
X385769Y68502D01*
X388520Y71253D01*
X391881Y72645D01*
X493751Y72645D01*
X493888Y72662D01*
X494027Y72675D01*
X494046Y72682D01*
X494066Y72685D01*
X494195Y72736D01*
X494326Y72783D01*
X494343Y72794D01*
X494362Y72802D01*
X494474Y72883D01*
X494589Y72961D01*
X494603Y72977D01*
X494619Y72988D01*
X494708Y73096D01*
X494800Y73200D01*
X494809Y73218D01*
X494822Y73233D01*
X494881Y73359D01*
X494944Y73483D01*
X494949Y73503D01*
X494957Y73521D01*
X494984Y73657D01*
X495014Y73793D01*
X495013Y73814D01*
X495017Y73833D01*
X495009Y73972D01*
X495004Y74111D01*
X494999Y74131D01*
X494998Y74151D01*
X494955Y74283D01*
X494916Y74417D01*
X494906Y74434D01*
X494899Y74453D01*
X494825Y74571D01*
X494754Y74691D01*
X494736Y74712D01*
X494729Y74722D01*
X494714Y74736D01*
X494648Y74811D01*
X485769Y83691D01*
X485678Y83761D01*
X485653Y83784D01*
X485648Y83787D01*
X485585Y83843D01*
X485549Y83861D01*
X485517Y83886D01*
X485408Y83933D01*
X485302Y83987D01*
X485263Y83996D01*
X485225Y84012D01*
X485108Y84031D01*
X484992Y84057D01*
X484951Y84056D01*
X484911Y84062D01*
X484793Y84051D01*
X484674Y84047D01*
X484635Y84036D01*
X484595Y84032D01*
X484483Y83992D01*
X484368Y83959D01*
X484334Y83938D01*
X484295Y83925D01*
X484197Y83858D01*
X484094Y83797D01*
X484049Y83758D01*
X484032Y83746D01*
X484019Y83731D01*
X483974Y83691D01*
X481430Y81147D01*
X478069Y79755D01*
X302981Y79755D01*
X299620Y81147D01*
X271647Y109120D01*
X270255Y112481D01*
X270255Y126261D01*
X270243Y126359D01*
X270240Y126458D01*
X270223Y126516D01*
X270215Y126576D01*
X270179Y126668D01*
X270151Y126763D01*
X270121Y126815D01*
X270098Y126872D01*
X270040Y126952D01*
X269990Y127037D01*
X269924Y127113D01*
X269912Y127129D01*
X269902Y127137D01*
X269884Y127158D01*
X267280Y129761D01*
X267280Y142012D01*
X267263Y142150D01*
X267250Y142289D01*
X267243Y142308D01*
X267240Y142328D01*
X267189Y142457D01*
X267142Y142588D01*
X267131Y142605D01*
X267123Y142624D01*
X267042Y142736D01*
X266964Y142851D01*
X266948Y142865D01*
X266937Y142881D01*
X266829Y142970D01*
X266725Y143062D01*
X266707Y143071D01*
X266692Y143084D01*
X266566Y143143D01*
X266442Y143206D01*
X266422Y143211D01*
X266404Y143219D01*
X266268Y143245D01*
X266132Y143276D01*
X266111Y143275D01*
X266092Y143279D01*
X265953Y143270D01*
X265814Y143266D01*
X265794Y143261D01*
X265774Y143259D01*
X265642Y143217D01*
X265508Y143178D01*
X265491Y143168D01*
X265472Y143161D01*
X265354Y143087D01*
X265234Y143016D01*
X265213Y142998D01*
X265203Y142991D01*
X265189Y142976D01*
X265114Y142910D01*
X246216Y124013D01*
X244466Y122262D01*
X242412Y121411D01*
X214302Y121411D01*
X214100Y121495D01*
X214052Y121508D01*
X214007Y121529D01*
X213899Y121550D01*
X213793Y121579D01*
X213743Y121580D01*
X213694Y121589D01*
X213585Y121582D01*
X213475Y121584D01*
X213427Y121572D01*
X213377Y121569D01*
X213273Y121535D01*
X213166Y121510D01*
X213122Y121486D01*
X213075Y121471D01*
X212982Y121412D01*
X212885Y121361D01*
X212848Y121328D01*
X212806Y121301D01*
X212731Y121221D01*
X212649Y121147D01*
X212622Y121106D01*
X212588Y121069D01*
X212535Y120973D01*
X212475Y120881D01*
X212458Y120834D01*
X212434Y120791D01*
X212407Y120685D01*
X212371Y120581D01*
X212367Y120531D01*
X212355Y120483D01*
X212345Y120322D01*
X212345Y70989D01*
X212357Y70890D01*
X212360Y70791D01*
X212377Y70733D01*
X212385Y70673D01*
X212421Y70581D01*
X212449Y70486D01*
X212479Y70434D01*
X212502Y70377D01*
X212560Y70297D01*
X212610Y70212D01*
X212676Y70137D01*
X212688Y70120D01*
X212698Y70112D01*
X212716Y70091D01*
X225666Y57141D01*
X225744Y57081D01*
X225816Y57013D01*
X225869Y56984D01*
X225917Y56947D01*
X226008Y56907D01*
X226095Y56859D01*
X226154Y56844D01*
X226209Y56820D01*
X226307Y56805D01*
X226403Y56780D01*
X226503Y56774D01*
X226523Y56770D01*
X226536Y56772D01*
X226564Y56770D01*
X338369Y56770D01*
X341730Y55378D01*
X356290Y40818D01*
X356384Y40745D01*
X356473Y40666D01*
X356509Y40647D01*
X356541Y40623D01*
X356651Y40575D01*
X356757Y40521D01*
X356796Y40512D01*
X356833Y40496D01*
X356951Y40478D01*
X357067Y40452D01*
X357107Y40453D01*
X357147Y40446D01*
X357266Y40458D01*
G37*
%LPC*%
G36*
X110762Y55625D02*
X110762Y55625D01*
X104238Y57374D01*
X98388Y60751D01*
X93611Y65528D01*
X90234Y71378D01*
X88485Y77902D01*
X88485Y84658D01*
X90234Y91182D01*
X93611Y97032D01*
X98388Y101809D01*
X104238Y105186D01*
X110762Y106935D01*
X117518Y106935D01*
X124042Y105186D01*
X129892Y101809D01*
X134669Y97032D01*
X138046Y91182D01*
X139795Y84658D01*
X139795Y77902D01*
X138046Y71378D01*
X134669Y65528D01*
X129892Y60751D01*
X124042Y57374D01*
X117518Y55625D01*
X110762Y55625D01*
G37*
%LPD*%
G36*
X361025Y98062D02*
X361025Y98062D01*
X361164Y98075D01*
X361183Y98082D01*
X361203Y98085D01*
X361332Y98136D01*
X361463Y98183D01*
X361480Y98194D01*
X361499Y98202D01*
X361611Y98283D01*
X361726Y98361D01*
X361740Y98377D01*
X361756Y98388D01*
X361845Y98496D01*
X361937Y98600D01*
X361946Y98618D01*
X361959Y98633D01*
X362018Y98759D01*
X362081Y98883D01*
X362086Y98903D01*
X362094Y98921D01*
X362120Y99057D01*
X362151Y99193D01*
X362150Y99214D01*
X362154Y99233D01*
X362145Y99372D01*
X362141Y99511D01*
X362136Y99531D01*
X362134Y99551D01*
X362092Y99683D01*
X362053Y99817D01*
X362043Y99834D01*
X362036Y99853D01*
X361962Y99971D01*
X361891Y100091D01*
X361873Y100112D01*
X361866Y100122D01*
X361851Y100136D01*
X361785Y100211D01*
X316586Y145410D01*
X316492Y145484D01*
X316402Y145562D01*
X316367Y145581D01*
X316335Y145605D01*
X316225Y145653D01*
X316119Y145707D01*
X316080Y145716D01*
X316043Y145732D01*
X315925Y145750D01*
X315808Y145776D01*
X315769Y145775D01*
X315729Y145781D01*
X315610Y145770D01*
X315491Y145766D01*
X315452Y145755D01*
X315412Y145752D01*
X315300Y145711D01*
X315185Y145678D01*
X315151Y145658D01*
X315113Y145644D01*
X315014Y145577D01*
X314911Y145516D01*
X314883Y145488D01*
X314850Y145465D01*
X314771Y145376D01*
X314686Y145291D01*
X314666Y145257D01*
X314639Y145227D01*
X314585Y145121D01*
X314524Y145018D01*
X314513Y144979D01*
X314495Y144944D01*
X314469Y144827D01*
X314435Y144712D01*
X314434Y144672D01*
X314425Y144633D01*
X314429Y144514D01*
X314425Y144395D01*
X314434Y144356D01*
X314435Y144316D01*
X314468Y144201D01*
X314494Y144084D01*
X314518Y144029D01*
X314523Y144010D01*
X314534Y143992D01*
X314558Y143936D01*
X314605Y143844D01*
X315130Y142228D01*
X315253Y141449D01*
X305080Y141449D01*
X304962Y141434D01*
X304843Y141427D01*
X304805Y141414D01*
X304765Y141409D01*
X304654Y141366D01*
X304541Y141329D01*
X304507Y141307D01*
X304469Y141292D01*
X304373Y141223D01*
X304272Y141159D01*
X304244Y141129D01*
X304212Y141106D01*
X304136Y141014D01*
X304054Y140927D01*
X304035Y140892D01*
X304009Y140861D01*
X303958Y140753D01*
X303901Y140649D01*
X303891Y140609D01*
X303873Y140573D01*
X303851Y140456D01*
X303845Y140454D01*
X303804Y140449D01*
X303694Y140405D01*
X303581Y140369D01*
X303546Y140347D01*
X303509Y140332D01*
X303412Y140262D01*
X303312Y140199D01*
X303284Y140169D01*
X303251Y140145D01*
X303175Y140054D01*
X303094Y139967D01*
X303074Y139932D01*
X303049Y139900D01*
X302998Y139793D01*
X302940Y139688D01*
X302930Y139649D01*
X302913Y139613D01*
X302891Y139496D01*
X302861Y139380D01*
X302857Y139320D01*
X302853Y139300D01*
X302855Y139280D01*
X302851Y139220D01*
X302851Y129047D01*
X302072Y129170D01*
X300456Y129695D01*
X298942Y130467D01*
X297567Y131465D01*
X296365Y132667D01*
X295367Y134042D01*
X294595Y135556D01*
X294396Y136169D01*
X294345Y136277D01*
X294301Y136388D01*
X294278Y136420D01*
X294261Y136456D01*
X294185Y136548D01*
X294115Y136645D01*
X294084Y136671D01*
X294058Y136701D01*
X293962Y136772D01*
X293870Y136848D01*
X293833Y136865D01*
X293801Y136889D01*
X293689Y136933D01*
X293582Y136983D01*
X293543Y136991D01*
X293505Y137006D01*
X293386Y137021D01*
X293269Y137043D01*
X293230Y137041D01*
X293190Y137046D01*
X293071Y137031D01*
X292952Y137023D01*
X292914Y137011D01*
X292874Y137006D01*
X292763Y136962D01*
X292650Y136925D01*
X292616Y136904D01*
X292578Y136889D01*
X292482Y136819D01*
X292381Y136755D01*
X292353Y136726D01*
X292321Y136702D01*
X292245Y136611D01*
X292163Y136524D01*
X292144Y136488D01*
X292118Y136458D01*
X292067Y136350D01*
X292009Y136245D01*
X291999Y136206D01*
X291982Y136170D01*
X291960Y136052D01*
X291930Y135937D01*
X291926Y135878D01*
X291922Y135858D01*
X291924Y135837D01*
X291920Y135776D01*
X291920Y129761D01*
X289499Y127340D01*
X289498Y127340D01*
X289388Y127297D01*
X289275Y127260D01*
X289240Y127238D01*
X289203Y127223D01*
X289107Y127154D01*
X289006Y127090D01*
X288978Y127060D01*
X288945Y127037D01*
X288869Y126945D01*
X288788Y126858D01*
X288768Y126823D01*
X288743Y126792D01*
X288692Y126684D01*
X288634Y126580D01*
X288624Y126540D01*
X288607Y126504D01*
X288585Y126387D01*
X288555Y126272D01*
X288551Y126212D01*
X288547Y126192D01*
X288549Y126171D01*
X288545Y126111D01*
X288545Y118614D01*
X288557Y118515D01*
X288560Y118416D01*
X288577Y118358D01*
X288585Y118298D01*
X288621Y118206D01*
X288649Y118111D01*
X288679Y118059D01*
X288702Y118002D01*
X288760Y117922D01*
X288810Y117837D01*
X288876Y117762D01*
X288888Y117745D01*
X288898Y117737D01*
X288916Y117716D01*
X308216Y98416D01*
X308294Y98356D01*
X308366Y98288D01*
X308419Y98259D01*
X308467Y98222D01*
X308558Y98182D01*
X308645Y98134D01*
X308704Y98119D01*
X308759Y98095D01*
X308857Y98080D01*
X308953Y98055D01*
X309053Y98049D01*
X309073Y98045D01*
X309086Y98047D01*
X309114Y98045D01*
X360887Y98045D01*
X361025Y98062D01*
G37*
G36*
X121305Y370201D02*
X121305Y370201D01*
X121395Y370206D01*
X121461Y370228D01*
X121530Y370240D01*
X121612Y370277D01*
X121697Y370304D01*
X121756Y370342D01*
X121820Y370370D01*
X121890Y370426D01*
X121966Y370474D01*
X122014Y370525D01*
X122068Y370569D01*
X122122Y370640D01*
X122184Y370706D01*
X122218Y370767D01*
X122260Y370823D01*
X122331Y370967D01*
X122477Y371322D01*
X124157Y373001D01*
X154626Y403471D01*
X154711Y403580D01*
X154800Y403687D01*
X154809Y403706D01*
X154821Y403722D01*
X154876Y403850D01*
X154936Y403975D01*
X154939Y403995D01*
X154947Y404014D01*
X154969Y404152D01*
X154995Y404288D01*
X154994Y404308D01*
X154997Y404328D01*
X154984Y404467D01*
X154976Y404605D01*
X154969Y404624D01*
X154967Y404644D01*
X154920Y404776D01*
X154878Y404907D01*
X154867Y404925D01*
X154860Y404944D01*
X154782Y405059D01*
X154707Y405176D01*
X154693Y405190D01*
X154681Y405207D01*
X154577Y405299D01*
X154476Y405394D01*
X154458Y405404D01*
X154443Y405417D01*
X154319Y405480D01*
X154197Y405548D01*
X154178Y405553D01*
X154160Y405562D01*
X154024Y405592D01*
X153889Y405627D01*
X153861Y405629D01*
X153849Y405632D01*
X153829Y405631D01*
X153729Y405637D01*
X149722Y405637D01*
X144774Y407687D01*
X140987Y411474D01*
X140035Y413773D01*
X139990Y413851D01*
X139955Y413933D01*
X139912Y413988D01*
X139877Y414049D01*
X139815Y414114D01*
X139760Y414184D01*
X139705Y414227D01*
X139656Y414278D01*
X139579Y414325D01*
X139509Y414379D01*
X139444Y414407D01*
X139385Y414444D01*
X139299Y414470D01*
X139217Y414506D01*
X139148Y414517D01*
X139081Y414538D01*
X138991Y414542D01*
X138903Y414556D01*
X138833Y414549D01*
X138763Y414553D01*
X138675Y414535D01*
X138586Y414526D01*
X138520Y414503D01*
X138452Y414488D01*
X138371Y414449D01*
X138287Y414419D01*
X138229Y414380D01*
X138166Y414349D01*
X138098Y414290D01*
X138024Y414240D01*
X137977Y414188D01*
X137924Y414142D01*
X137872Y414069D01*
X137813Y414002D01*
X137749Y413894D01*
X137741Y413882D01*
X137738Y413876D01*
X137731Y413863D01*
X137211Y412843D01*
X136106Y411322D01*
X134778Y409994D01*
X133257Y408889D01*
X131583Y408036D01*
X129796Y407455D01*
X129539Y407415D01*
X129539Y417830D01*
X129524Y417948D01*
X129517Y418067D01*
X129504Y418105D01*
X129499Y418145D01*
X129456Y418256D01*
X129419Y418369D01*
X129397Y418403D01*
X129382Y418441D01*
X129312Y418537D01*
X129249Y418638D01*
X129219Y418666D01*
X129195Y418698D01*
X129104Y418774D01*
X129017Y418856D01*
X128982Y418875D01*
X128951Y418901D01*
X128843Y418952D01*
X128739Y419009D01*
X128699Y419020D01*
X128663Y419037D01*
X128546Y419059D01*
X128431Y419089D01*
X128370Y419093D01*
X128350Y419097D01*
X128330Y419095D01*
X128270Y419099D01*
X125730Y419099D01*
X125612Y419084D01*
X125493Y419077D01*
X125455Y419064D01*
X125414Y419059D01*
X125304Y419015D01*
X125191Y418979D01*
X125156Y418957D01*
X125119Y418942D01*
X125023Y418872D01*
X124922Y418809D01*
X124894Y418779D01*
X124861Y418755D01*
X124786Y418664D01*
X124704Y418577D01*
X124684Y418542D01*
X124659Y418510D01*
X124608Y418403D01*
X124550Y418298D01*
X124540Y418259D01*
X124523Y418223D01*
X124501Y418106D01*
X124471Y417991D01*
X124467Y417930D01*
X124463Y417910D01*
X124465Y417890D01*
X124461Y417830D01*
X124461Y407415D01*
X124204Y407455D01*
X122417Y408036D01*
X121734Y408384D01*
X121641Y408418D01*
X121551Y408460D01*
X121492Y408471D01*
X121435Y408492D01*
X121336Y408501D01*
X121238Y408520D01*
X121178Y408516D01*
X121118Y408522D01*
X121020Y408506D01*
X120921Y408500D01*
X120864Y408481D01*
X120804Y408472D01*
X120713Y408433D01*
X120619Y408402D01*
X120568Y408370D01*
X120512Y408346D01*
X120434Y408285D01*
X120350Y408232D01*
X120309Y408188D01*
X120261Y408151D01*
X120200Y408072D01*
X120132Y408000D01*
X120103Y407947D01*
X120066Y407900D01*
X120026Y407809D01*
X119978Y407722D01*
X119963Y407663D01*
X119939Y407608D01*
X119924Y407510D01*
X119899Y407414D01*
X119893Y407314D01*
X119889Y407294D01*
X119891Y407282D01*
X119889Y407253D01*
X119889Y371453D01*
X119897Y371384D01*
X119896Y371314D01*
X119917Y371227D01*
X119929Y371138D01*
X119954Y371073D01*
X119971Y371005D01*
X120013Y370925D01*
X120046Y370842D01*
X120087Y370785D01*
X120119Y370724D01*
X120180Y370657D01*
X120232Y370585D01*
X120286Y370540D01*
X120333Y370488D01*
X120408Y370439D01*
X120477Y370382D01*
X120541Y370352D01*
X120599Y370314D01*
X120684Y370284D01*
X120765Y370246D01*
X120834Y370233D01*
X120900Y370210D01*
X120989Y370203D01*
X121077Y370186D01*
X121147Y370191D01*
X121217Y370185D01*
X121305Y370201D01*
G37*
%LPC*%
G36*
X454472Y11683D02*
X454472Y11683D01*
X449430Y13771D01*
X445571Y17630D01*
X444811Y19467D01*
X444766Y19544D01*
X444731Y19627D01*
X444688Y19682D01*
X444653Y19743D01*
X444591Y19807D01*
X444536Y19878D01*
X444481Y19921D01*
X444432Y19971D01*
X444356Y20018D01*
X444285Y20073D01*
X444221Y20101D01*
X444161Y20138D01*
X444075Y20164D01*
X443993Y20200D01*
X443924Y20211D01*
X443857Y20231D01*
X443768Y20236D01*
X443679Y20250D01*
X443609Y20243D01*
X443539Y20246D01*
X443452Y20228D01*
X443362Y20220D01*
X443296Y20196D01*
X443228Y20182D01*
X443147Y20143D01*
X443063Y20113D01*
X443005Y20073D01*
X442942Y20042D01*
X442874Y19984D01*
X442800Y19934D01*
X442754Y19882D01*
X442700Y19836D01*
X442648Y19763D01*
X442589Y19696D01*
X442526Y19588D01*
X442517Y19576D01*
X442515Y19570D01*
X442507Y19557D01*
X442228Y19010D01*
X441100Y17457D01*
X439743Y16100D01*
X438190Y14972D01*
X436480Y14101D01*
X434655Y13507D01*
X434339Y13457D01*
X434339Y24130D01*
X434324Y24248D01*
X434317Y24367D01*
X434304Y24405D01*
X434299Y24445D01*
X434256Y24556D01*
X434219Y24669D01*
X434197Y24703D01*
X434182Y24741D01*
X434112Y24837D01*
X434049Y24938D01*
X434019Y24966D01*
X433995Y24998D01*
X433904Y25074D01*
X433817Y25156D01*
X433782Y25175D01*
X433751Y25201D01*
X433643Y25252D01*
X433539Y25309D01*
X433499Y25320D01*
X433463Y25337D01*
X433346Y25359D01*
X433231Y25389D01*
X433170Y25393D01*
X433150Y25397D01*
X433130Y25395D01*
X433070Y25399D01*
X431799Y25399D01*
X431799Y25401D01*
X433070Y25401D01*
X433188Y25416D01*
X433307Y25423D01*
X433345Y25436D01*
X433385Y25441D01*
X433496Y25485D01*
X433609Y25521D01*
X433644Y25543D01*
X433681Y25558D01*
X433777Y25628D01*
X433878Y25691D01*
X433906Y25721D01*
X433939Y25745D01*
X434014Y25836D01*
X434096Y25923D01*
X434116Y25958D01*
X434141Y25990D01*
X434192Y26097D01*
X434250Y26202D01*
X434260Y26241D01*
X434277Y26277D01*
X434299Y26394D01*
X434329Y26509D01*
X434333Y26570D01*
X434337Y26590D01*
X434335Y26610D01*
X434339Y26670D01*
X434339Y37343D01*
X434655Y37293D01*
X436480Y36699D01*
X438190Y35828D01*
X439743Y34700D01*
X441100Y33343D01*
X442228Y31790D01*
X442507Y31243D01*
X442557Y31169D01*
X442599Y31090D01*
X442646Y31038D01*
X442686Y30980D01*
X442753Y30921D01*
X442813Y30854D01*
X442872Y30816D01*
X442924Y30769D01*
X443004Y30729D01*
X443079Y30680D01*
X443145Y30657D01*
X443208Y30625D01*
X443295Y30605D01*
X443380Y30576D01*
X443450Y30571D01*
X443518Y30555D01*
X443607Y30558D01*
X443697Y30551D01*
X443766Y30563D01*
X443836Y30565D01*
X443922Y30590D01*
X444010Y30605D01*
X444074Y30634D01*
X444141Y30654D01*
X444219Y30699D01*
X444300Y30736D01*
X444355Y30780D01*
X444415Y30815D01*
X444479Y30879D01*
X444549Y30935D01*
X444591Y30991D01*
X444640Y31040D01*
X444686Y31117D01*
X444740Y31189D01*
X444795Y31301D01*
X444802Y31314D01*
X444804Y31320D01*
X444811Y31333D01*
X445571Y33170D01*
X449430Y37029D01*
X454472Y39117D01*
X459928Y39117D01*
X464970Y37029D01*
X468829Y33170D01*
X470917Y28128D01*
X470917Y22672D01*
X468829Y17630D01*
X464970Y13771D01*
X459928Y11683D01*
X454472Y11683D01*
G37*
%LPD*%
%LPC*%
G36*
X231561Y63880D02*
X231561Y63880D01*
X229180Y66261D01*
X229180Y86139D01*
X231561Y88520D01*
X251439Y88520D01*
X253820Y86139D01*
X253820Y80123D01*
X253835Y80005D01*
X253842Y79886D01*
X253855Y79848D01*
X253860Y79808D01*
X253904Y79697D01*
X253940Y79583D01*
X253962Y79550D01*
X253977Y79512D01*
X254047Y79416D01*
X254111Y79315D01*
X254140Y79287D01*
X254163Y79255D01*
X254256Y79179D01*
X254342Y79097D01*
X254377Y79078D01*
X254408Y79052D01*
X254517Y79001D01*
X254621Y78944D01*
X254660Y78934D01*
X254696Y78917D01*
X254813Y78894D01*
X254929Y78864D01*
X254969Y78864D01*
X255008Y78857D01*
X255128Y78864D01*
X255247Y78864D01*
X255286Y78874D01*
X255326Y78877D01*
X255439Y78913D01*
X255555Y78943D01*
X255590Y78962D01*
X255628Y78975D01*
X255729Y79039D01*
X255834Y79096D01*
X255863Y79123D01*
X255897Y79145D01*
X255979Y79232D01*
X256066Y79313D01*
X256088Y79347D01*
X256115Y79376D01*
X256173Y79481D01*
X256237Y79582D01*
X256259Y79637D01*
X256269Y79655D01*
X256274Y79675D01*
X256296Y79731D01*
X256495Y80344D01*
X257267Y81858D01*
X258265Y83233D01*
X259467Y84435D01*
X260842Y85433D01*
X262356Y86205D01*
X263972Y86730D01*
X264751Y86853D01*
X264751Y76680D01*
X264766Y76562D01*
X264773Y76443D01*
X264785Y76405D01*
X264791Y76365D01*
X264834Y76254D01*
X264850Y76206D01*
X264840Y76188D01*
X264830Y76149D01*
X264813Y76113D01*
X264791Y75996D01*
X264761Y75880D01*
X264757Y75820D01*
X264753Y75800D01*
X264755Y75780D01*
X264751Y75720D01*
X264751Y65547D01*
X263972Y65670D01*
X262356Y66195D01*
X260842Y66967D01*
X259467Y67965D01*
X258265Y69167D01*
X257267Y70542D01*
X256495Y72056D01*
X256296Y72669D01*
X256245Y72777D01*
X256201Y72888D01*
X256178Y72920D01*
X256161Y72956D01*
X256085Y73048D01*
X256015Y73145D01*
X255984Y73171D01*
X255958Y73202D01*
X255862Y73272D01*
X255770Y73348D01*
X255733Y73365D01*
X255701Y73389D01*
X255590Y73433D01*
X255482Y73483D01*
X255443Y73491D01*
X255405Y73506D01*
X255287Y73521D01*
X255169Y73543D01*
X255130Y73541D01*
X255090Y73546D01*
X254971Y73531D01*
X254852Y73523D01*
X254814Y73511D01*
X254774Y73506D01*
X254663Y73462D01*
X254550Y73425D01*
X254516Y73404D01*
X254478Y73389D01*
X254382Y73319D01*
X254281Y73255D01*
X254253Y73226D01*
X254221Y73203D01*
X254145Y73111D01*
X254063Y73024D01*
X254044Y72989D01*
X254018Y72958D01*
X253967Y72850D01*
X253909Y72745D01*
X253899Y72706D01*
X253882Y72670D01*
X253860Y72553D01*
X253830Y72437D01*
X253826Y72378D01*
X253822Y72358D01*
X253824Y72337D01*
X253820Y72277D01*
X253820Y66261D01*
X251439Y63880D01*
X231561Y63880D01*
G37*
%LPD*%
%LPC*%
G36*
X86679Y36819D02*
X86679Y36819D01*
X86679Y58277D01*
X88188Y58107D01*
X90831Y57504D01*
X93389Y56609D01*
X95831Y55433D01*
X98126Y53991D01*
X100245Y52301D01*
X102161Y50385D01*
X103851Y48266D01*
X105293Y45971D01*
X106469Y43529D01*
X107364Y40971D01*
X107967Y38328D01*
X108137Y36819D01*
X86679Y36819D01*
G37*
%LPD*%
%LPC*%
G36*
X56679Y83819D02*
X56679Y83819D01*
X56679Y105277D01*
X58188Y105107D01*
X60831Y104504D01*
X63389Y103609D01*
X65831Y102433D01*
X68126Y100991D01*
X70245Y99301D01*
X72161Y97385D01*
X73851Y95266D01*
X75293Y92971D01*
X76469Y90529D01*
X77364Y87971D01*
X77967Y85328D01*
X78137Y83819D01*
X56679Y83819D01*
G37*
%LPD*%
%LPC*%
G36*
X30143Y83819D02*
X30143Y83819D01*
X30313Y85328D01*
X30916Y87971D01*
X31811Y90529D01*
X32987Y92971D01*
X34429Y95266D01*
X36119Y97385D01*
X38035Y99301D01*
X40154Y100991D01*
X42449Y102433D01*
X44891Y103609D01*
X47449Y104504D01*
X50092Y105107D01*
X51601Y105277D01*
X51601Y83819D01*
X30143Y83819D01*
G37*
%LPD*%
%LPC*%
G36*
X86679Y31741D02*
X86679Y31741D01*
X108137Y31741D01*
X107967Y30232D01*
X107364Y27589D01*
X106469Y25031D01*
X105293Y22589D01*
X103851Y20294D01*
X102161Y18175D01*
X100245Y16259D01*
X98126Y14569D01*
X95831Y13127D01*
X93389Y11951D01*
X90831Y11056D01*
X88188Y10453D01*
X86679Y10283D01*
X86679Y31741D01*
G37*
%LPD*%
%LPC*%
G36*
X56679Y78741D02*
X56679Y78741D01*
X78137Y78741D01*
X77967Y77232D01*
X77364Y74589D01*
X76469Y72031D01*
X75293Y69589D01*
X73851Y67294D01*
X72161Y65175D01*
X70245Y63259D01*
X68126Y61569D01*
X65831Y60127D01*
X63389Y58951D01*
X60831Y58056D01*
X58188Y57453D01*
X56679Y57283D01*
X56679Y78741D01*
G37*
%LPD*%
%LPC*%
G36*
X60143Y36819D02*
X60143Y36819D01*
X60313Y38328D01*
X60916Y40971D01*
X61811Y43529D01*
X62987Y45971D01*
X64429Y48266D01*
X66119Y50385D01*
X68035Y52301D01*
X70154Y53991D01*
X72449Y55433D01*
X74891Y56609D01*
X77449Y57504D01*
X80092Y58107D01*
X81601Y58277D01*
X81601Y36819D01*
X60143Y36819D01*
G37*
%LPD*%
%LPC*%
G36*
X80092Y10453D02*
X80092Y10453D01*
X77449Y11056D01*
X74891Y11951D01*
X72449Y13127D01*
X70154Y14569D01*
X68035Y16259D01*
X66119Y18175D01*
X64429Y20294D01*
X62987Y22589D01*
X61811Y25031D01*
X60916Y27589D01*
X60313Y30232D01*
X60143Y31741D01*
X81601Y31741D01*
X81601Y10283D01*
X80092Y10453D01*
G37*
%LPD*%
%LPC*%
G36*
X50092Y57453D02*
X50092Y57453D01*
X47449Y58056D01*
X44891Y58951D01*
X42449Y60127D01*
X40154Y61569D01*
X38035Y63259D01*
X36119Y65175D01*
X34429Y67294D01*
X32987Y69589D01*
X31811Y72031D01*
X30916Y74589D01*
X30313Y77232D01*
X30143Y78741D01*
X51601Y78741D01*
X51601Y57283D01*
X50092Y57453D01*
G37*
%LPD*%
%LPC*%
G36*
X592071Y362285D02*
X592071Y362285D01*
X589015Y363551D01*
X586676Y365890D01*
X585410Y368946D01*
X585410Y372254D01*
X586676Y375310D01*
X589015Y377649D01*
X592071Y378915D01*
X595379Y378915D01*
X598435Y377649D01*
X600774Y375310D01*
X602040Y372254D01*
X602040Y368946D01*
X600774Y365890D01*
X598435Y363551D01*
X595379Y362285D01*
X592071Y362285D01*
G37*
%LPD*%
%LPC*%
G36*
X592071Y332285D02*
X592071Y332285D01*
X589015Y333551D01*
X586676Y335890D01*
X585410Y338946D01*
X585410Y342254D01*
X586676Y345310D01*
X589015Y347649D01*
X592071Y348915D01*
X595379Y348915D01*
X598435Y347649D01*
X600774Y345310D01*
X602040Y342254D01*
X602040Y338946D01*
X600774Y335890D01*
X598435Y333551D01*
X595379Y332285D01*
X592071Y332285D01*
G37*
%LPD*%
%LPC*%
G36*
X408939Y27939D02*
X408939Y27939D01*
X408939Y37343D01*
X409255Y37293D01*
X411080Y36699D01*
X412790Y35828D01*
X414343Y34700D01*
X415700Y33343D01*
X416828Y31790D01*
X417699Y30081D01*
X417893Y29485D01*
X417927Y29413D01*
X417951Y29337D01*
X417994Y29270D01*
X418028Y29197D01*
X418079Y29136D01*
X418122Y29069D01*
X418180Y29014D01*
X418231Y28952D01*
X418295Y28905D01*
X418353Y28851D01*
X418423Y28812D01*
X418488Y28765D01*
X418562Y28736D01*
X418632Y28697D01*
X418709Y28677D01*
X418784Y28648D01*
X418863Y28638D01*
X418940Y28618D01*
X419020Y28618D01*
X419099Y28608D01*
X419178Y28618D01*
X419258Y28618D01*
X419335Y28638D01*
X419415Y28648D01*
X419489Y28677D01*
X419566Y28697D01*
X419636Y28735D01*
X419711Y28765D01*
X419775Y28811D01*
X419845Y28850D01*
X419903Y28904D01*
X419968Y28951D01*
X420019Y29013D01*
X420077Y29067D01*
X420120Y29134D01*
X420171Y29196D01*
X420205Y29268D01*
X420248Y29335D01*
X420306Y29483D01*
X420307Y29484D01*
X420307Y29485D01*
X420501Y30080D01*
X421372Y31790D01*
X422500Y33343D01*
X423857Y34700D01*
X425410Y35828D01*
X427120Y36699D01*
X428945Y37293D01*
X429261Y37343D01*
X429261Y27939D01*
X408939Y27939D01*
G37*
%LPD*%
%LPC*%
G36*
X428945Y13507D02*
X428945Y13507D01*
X427120Y14101D01*
X425410Y14972D01*
X423857Y16100D01*
X422500Y17457D01*
X421372Y19010D01*
X420501Y20720D01*
X420307Y21315D01*
X420273Y21387D01*
X420249Y21463D01*
X420206Y21530D01*
X420172Y21603D01*
X420121Y21664D01*
X420078Y21731D01*
X420020Y21786D01*
X419969Y21848D01*
X419905Y21895D01*
X419847Y21949D01*
X419777Y21988D01*
X419712Y22035D01*
X419638Y22064D01*
X419568Y22103D01*
X419491Y22123D01*
X419416Y22152D01*
X419337Y22162D01*
X419260Y22182D01*
X419180Y22182D01*
X419101Y22192D01*
X419022Y22182D01*
X418942Y22182D01*
X418864Y22162D01*
X418785Y22152D01*
X418711Y22123D01*
X418634Y22103D01*
X418564Y22065D01*
X418489Y22035D01*
X418425Y21989D01*
X418355Y21950D01*
X418297Y21896D01*
X418232Y21849D01*
X418181Y21787D01*
X418123Y21733D01*
X418080Y21665D01*
X418029Y21604D01*
X417995Y21532D01*
X417952Y21465D01*
X417894Y21317D01*
X417893Y21316D01*
X417893Y21315D01*
X417699Y20719D01*
X416828Y19010D01*
X415700Y17457D01*
X414343Y16100D01*
X412790Y14972D01*
X411080Y14101D01*
X409255Y13507D01*
X408939Y13457D01*
X408939Y22861D01*
X429261Y22861D01*
X429261Y13457D01*
X428945Y13507D01*
G37*
%LPD*%
%LPC*%
G36*
X664339Y250961D02*
X664339Y250961D01*
X673743Y250961D01*
X673693Y250645D01*
X673100Y248819D01*
X672228Y247110D01*
X671100Y245557D01*
X669743Y244200D01*
X668190Y243072D01*
X666480Y242200D01*
X664655Y241607D01*
X664339Y241557D01*
X664339Y250961D01*
G37*
%LPD*%
%LPC*%
G36*
X268249Y77949D02*
X268249Y77949D01*
X268249Y86853D01*
X269028Y86730D01*
X270644Y86205D01*
X272158Y85433D01*
X273533Y84435D01*
X274735Y83233D01*
X275733Y81858D01*
X276505Y80344D01*
X277030Y78728D01*
X277153Y77949D01*
X268249Y77949D01*
G37*
%LPD*%
%LPC*%
G36*
X306349Y137951D02*
X306349Y137951D01*
X315253Y137951D01*
X315130Y137172D01*
X314605Y135556D01*
X313833Y134042D01*
X312835Y132667D01*
X311633Y131465D01*
X310258Y130467D01*
X308744Y129695D01*
X307128Y129170D01*
X306349Y129047D01*
X306349Y137951D01*
G37*
%LPD*%
%LPC*%
G36*
X268249Y74451D02*
X268249Y74451D01*
X277153Y74451D01*
X277030Y73672D01*
X276505Y72056D01*
X275733Y70542D01*
X274735Y69167D01*
X273533Y67965D01*
X272158Y66967D01*
X270644Y66195D01*
X269028Y65670D01*
X268249Y65547D01*
X268249Y74451D01*
G37*
%LPD*%
%LPC*%
G36*
X84139Y34279D02*
X84139Y34279D01*
X84139Y34281D01*
X84141Y34281D01*
X84141Y34279D01*
X84139Y34279D01*
G37*
%LPD*%
%LPC*%
G36*
X54139Y81279D02*
X54139Y81279D01*
X54139Y81281D01*
X54141Y81281D01*
X54141Y81279D01*
X54139Y81279D01*
G37*
%LPD*%
D10*
X279400Y25400D03*
X304800Y25400D03*
X330200Y25400D03*
X355600Y25400D03*
X381000Y25400D03*
X406400Y25400D03*
X431800Y25400D03*
X457200Y25400D03*
X508000Y25400D03*
X533400Y25400D03*
X558800Y25400D03*
X584200Y25400D03*
X609600Y25400D03*
X635000Y25400D03*
X635000Y508000D03*
X609600Y508000D03*
X584200Y508000D03*
X558800Y508000D03*
X533400Y508000D03*
X508000Y508000D03*
X482600Y508000D03*
X457200Y508000D03*
X416560Y508000D03*
X391160Y508000D03*
X365760Y508000D03*
X340360Y508000D03*
X314960Y508000D03*
X289560Y508000D03*
X264160Y508000D03*
X238760Y508000D03*
X213360Y508000D03*
X187960Y508000D03*
X636400Y304300D03*
X661800Y304300D03*
X636400Y278900D03*
X661800Y278900D03*
X636400Y253500D03*
X661800Y253500D03*
D11*
X25400Y419100D03*
X50800Y419100D03*
X76200Y419100D03*
X101600Y419100D03*
X127000Y419100D03*
X152400Y419100D03*
X177800Y419100D03*
X203200Y419100D03*
X228600Y419100D03*
X254000Y419100D03*
X279400Y419100D03*
X304800Y419100D03*
X330200Y419100D03*
X355600Y419100D03*
X381000Y419100D03*
X406400Y419100D03*
X431800Y419100D03*
X457200Y419100D03*
X482600Y419100D03*
X508000Y419100D03*
X25400Y190500D03*
X50800Y190500D03*
X76200Y190500D03*
X101600Y190500D03*
X127000Y190500D03*
X152400Y190500D03*
X177800Y190500D03*
X203200Y190500D03*
X228600Y190500D03*
X254000Y190500D03*
X279400Y190500D03*
X304800Y190500D03*
X330200Y190500D03*
X355600Y190500D03*
X381000Y190500D03*
X406400Y190500D03*
X431800Y190500D03*
X457200Y190500D03*
X482600Y190500D03*
X508000Y190500D03*
D12*
X161925Y101600D03*
D11*
X161925Y76200D03*
X161925Y50800D03*
D13*
X114140Y81280D03*
X54140Y81280D03*
X84140Y34280D03*
D14*
X304600Y139700D03*
D15*
X279600Y139700D03*
D11*
X38100Y152400D03*
X88900Y152400D03*
X127000Y152400D03*
X228600Y152400D03*
D14*
X266500Y76200D03*
D15*
X241500Y76200D03*
D16*
X38100Y279400D03*
D17*
X38100Y231400D03*
X38100Y327400D03*
D16*
X38100Y299400D03*
X38100Y260400D03*
D18*
X165100Y349250D03*
X263525Y349250D03*
X292100Y349250D03*
X628650Y114300D03*
X492125Y349250D03*
X415925Y349250D03*
X342900Y69850D03*
X631825Y85725D03*
X520700Y168275D03*
X558800Y203200D03*
X339725Y349250D03*
X139700Y349250D03*
D19*
X482600Y419100D02*
X495300Y431800D01*
X622300Y431800D02*
X635000Y444500D01*
X635000Y508000D01*
X622300Y431800D02*
X495300Y431800D01*
D18*
X584200Y393700D03*
D19*
X508000Y393700D01*
X482600Y419100D01*
X609600Y448818D02*
X609600Y508000D01*
X609600Y448818D02*
X597662Y436880D01*
X474980Y436880D01*
X457200Y419100D01*
X584200Y457200D02*
X584200Y508000D01*
X584200Y457200D02*
X568960Y441960D01*
X454660Y441960D02*
X431800Y419100D01*
X454660Y441960D02*
X568960Y441960D01*
D20*
X482600Y381000D02*
X476250Y387350D01*
X482600Y361950D02*
X469900Y349250D01*
D18*
X469900Y349250D03*
D20*
X463550Y387350D02*
X431800Y419100D01*
X463550Y387350D02*
X476250Y387350D01*
X482600Y381000D02*
X482600Y361950D01*
D19*
X558800Y459740D02*
X558800Y508000D01*
X558800Y459740D02*
X546100Y447040D01*
X434340Y447040D02*
X406400Y419100D01*
X434340Y447040D02*
X546100Y447040D01*
D20*
X447675Y377825D02*
X406400Y419100D01*
X447675Y377825D02*
X469900Y377825D01*
D18*
X469900Y377825D03*
D19*
X533400Y464820D02*
X533400Y508000D01*
X533400Y464820D02*
X520700Y452120D01*
X414020Y452120D02*
X381000Y419100D01*
X414020Y452120D02*
X520700Y452120D01*
D18*
X393700Y349250D03*
D20*
X393700Y363287D01*
X402665Y372252D01*
X402665Y397435D02*
X381000Y419100D01*
X402665Y397435D02*
X402665Y372252D01*
D19*
X508000Y469900D02*
X508000Y508000D01*
X508000Y469900D02*
X495300Y457200D01*
X393700Y457200D02*
X355600Y419100D01*
X393700Y457200D02*
X495300Y457200D01*
D20*
X393700Y381000D02*
X355600Y419100D01*
X393700Y381000D02*
X393700Y377825D01*
D18*
X393700Y377825D03*
D19*
X482600Y474980D02*
X482600Y508000D01*
X482600Y474980D02*
X469900Y462280D01*
X373380Y462280D02*
X330200Y419100D01*
X373380Y462280D02*
X469900Y462280D01*
D18*
X317500Y342900D03*
D20*
X317500Y366462D01*
X326465Y375427D01*
X326465Y415365D02*
X330200Y419100D01*
X326465Y415365D02*
X326465Y375427D01*
D19*
X304800Y419100D02*
X353060Y467360D01*
X448310Y467360D02*
X457200Y476250D01*
X457200Y508000D01*
X448310Y467360D02*
X353060Y467360D01*
D20*
X304800Y419100D02*
X317500Y406400D01*
X317500Y381000D01*
D18*
X317500Y381000D03*
D19*
X416560Y482600D02*
X416560Y508000D01*
X416560Y482600D02*
X406400Y472440D01*
X332740Y472440D02*
X279400Y419100D01*
X332740Y472440D02*
X406400Y472440D01*
D20*
X279400Y419100D02*
X258572Y398272D01*
X258572Y380559D01*
D18*
X241300Y349250D03*
D20*
X241300Y363287D01*
X258572Y380559D01*
D19*
X391160Y484505D02*
X391160Y508000D01*
X391160Y484505D02*
X384175Y477520D01*
X312420Y477520D02*
X254000Y419100D01*
X312420Y477520D02*
X384175Y477520D01*
D20*
X254000Y419100D02*
X254000Y387350D01*
X241300Y374650D01*
D18*
X241300Y374650D03*
D19*
X365760Y489585D02*
X365760Y508000D01*
X365760Y489585D02*
X358775Y482600D01*
X292100Y482600D02*
X228600Y419100D01*
X292100Y482600D02*
X358775Y482600D01*
D18*
X201370Y349250D03*
D20*
X201370Y374157D01*
X212165Y384952D01*
X212165Y402665D02*
X228600Y419100D01*
X212165Y402665D02*
X212165Y384952D01*
D19*
X340360Y494665D02*
X340360Y508000D01*
X340360Y494665D02*
X333375Y487680D01*
X279938Y487680D01*
X224058Y431800D01*
D20*
X203200Y419100D02*
X203200Y387350D01*
D18*
X203200Y387350D03*
D19*
X203200Y419100D02*
X215900Y431800D01*
X224058Y431800D01*
X299720Y492760D02*
X314960Y508000D01*
X299720Y492760D02*
X277834Y492760D01*
X223224Y438150D01*
X196850Y438150D02*
X177800Y419100D01*
X196850Y438150D02*
X223224Y438150D01*
D20*
X177800Y419100D02*
X127000Y368300D01*
X127000Y349250D01*
D21*
X127000Y349250D03*
D19*
X279400Y497840D02*
X289560Y508000D01*
X279400Y497840D02*
X275729Y497840D01*
X157383Y419100D02*
X152400Y419100D01*
X181513Y443230D02*
X221119Y443230D01*
X181513Y443230D02*
X157383Y419100D01*
X221119Y443230D02*
X275729Y497840D01*
X131264Y441325D02*
X114300Y424361D01*
X146685Y441325D02*
X213360Y508000D01*
X146685Y441325D02*
X131264Y441325D01*
X114300Y292100D02*
X184150Y222250D01*
X527050Y222250D02*
X542925Y206375D01*
X542925Y165100D01*
D18*
X542925Y165100D03*
D19*
X114300Y292100D02*
X114300Y424361D01*
X184150Y222250D02*
X527050Y222250D01*
X121739Y457200D02*
X88900Y424361D01*
X187960Y501650D02*
X187960Y508000D01*
X187960Y501650D02*
X143510Y457200D01*
X121739Y457200D01*
X88900Y424361D02*
X88900Y295275D01*
X521970Y215900D02*
X534670Y203200D01*
D18*
X520700Y107950D03*
D19*
X534670Y155868D02*
X534670Y203200D01*
X168275Y215900D02*
X88900Y295275D01*
X168275Y215900D02*
X521970Y215900D01*
X520700Y141898D02*
X520700Y107950D01*
X520700Y141898D02*
X534670Y155868D01*
D18*
X444500Y238125D03*
D19*
X444500Y246673D01*
X464527Y266700D01*
D18*
X622300Y317500D03*
D19*
X571500Y266700D02*
X464527Y266700D01*
X571500Y266700D02*
X622300Y317500D01*
D18*
X431800Y234950D03*
D19*
X431800Y244475D01*
X466725Y279400D02*
X558800Y279400D01*
X565150Y285750D01*
X565150Y311150D01*
D18*
X565150Y311150D03*
D19*
X466725Y279400D02*
X431800Y244475D01*
X271145Y207645D02*
X254000Y190500D01*
X519866Y207645D02*
X529590Y197921D01*
X529590Y157972D02*
X511481Y139863D01*
X511481Y105446D01*
X519391Y97536D01*
X543996Y97536D02*
X550164Y103704D01*
X570102Y173736D02*
X598298Y173736D01*
X519866Y207645D02*
X271145Y207645D01*
X529590Y197921D02*
X529590Y157972D01*
X519391Y97536D02*
X543996Y97536D01*
X550164Y103704D02*
X550164Y153798D01*
X570102Y173736D01*
X619431Y40969D02*
X635000Y25400D01*
X619431Y152603D02*
X598298Y173736D01*
X619431Y152603D02*
X619431Y40969D01*
X246380Y172720D02*
X228600Y190500D01*
X546100Y92456D02*
X555244Y101600D01*
X572206Y168656D02*
X596194Y168656D01*
X613156Y151694D01*
X325917Y172720D02*
X246380Y172720D01*
X325917Y172720D02*
X380781Y117856D01*
X488244Y117856D01*
X513644Y92456D01*
X546100Y92456D01*
X555244Y101600D02*
X555244Y151694D01*
X572206Y168656D01*
X613156Y67056D02*
X609600Y63500D01*
X609600Y25400D01*
X613156Y67056D02*
X613156Y151694D01*
X584200Y55134D02*
X584200Y25400D01*
X584200Y55134D02*
X608076Y79010D01*
X608076Y149590D02*
X594090Y163576D01*
X574310Y163576D01*
X560324Y149590D01*
X213360Y167640D02*
X203200Y177800D01*
X203200Y190500D01*
X608076Y149590D02*
X608076Y79010D01*
X560324Y98790D02*
X560324Y149590D01*
X560324Y98790D02*
X548910Y87376D01*
X511540Y87376D01*
X486140Y112776D01*
X378677Y112776D01*
X323813Y167640D01*
X213360Y167640D01*
X558800Y36918D02*
X558800Y25400D01*
X602996Y147486D02*
X591986Y158496D01*
X576414Y158496D02*
X565404Y147486D01*
X177800Y178982D02*
X177800Y190500D01*
X558800Y36918D02*
X602996Y81114D01*
X602996Y147486D01*
X591986Y158496D02*
X576414Y158496D01*
X565404Y147486D02*
X565404Y96686D01*
X551014Y82296D01*
X509436Y82296D01*
X484036Y107696D01*
X376573Y107696D01*
X321709Y162560D01*
X262492Y162560D01*
X237092Y137160D01*
X219622Y137160D01*
X177800Y178982D01*
X159097Y190500D02*
X152400Y190500D01*
X159097Y190500D02*
X217517Y132080D01*
X570484Y145381D02*
X570484Y94581D01*
X570484Y145381D02*
X578519Y153416D01*
X589881Y153416D01*
X597916Y145381D01*
X597916Y83219D01*
X564481Y49784D01*
X545084Y49784D02*
X533400Y38100D01*
X533400Y25400D01*
X239196Y132080D02*
X217517Y132080D01*
X239196Y132080D02*
X264596Y157480D01*
X319604Y157480D01*
X374468Y102616D01*
X481931Y102616D01*
X507331Y77216D01*
X553119Y77216D02*
X570484Y94581D01*
X564481Y49784D02*
X545084Y49784D01*
X553119Y77216D02*
X507331Y77216D01*
X537464Y54864D02*
X508000Y25400D01*
X537464Y54864D02*
X562377Y54864D01*
X592836Y143277D02*
X587777Y148336D01*
X580623Y148336D01*
X575564Y143277D01*
X575564Y92477D01*
X592836Y85323D02*
X562377Y54864D01*
X592836Y85323D02*
X592836Y143277D01*
X575564Y92477D02*
X555223Y72136D01*
X505227Y72136D01*
X479827Y97536D01*
X372364Y97536D01*
X317500Y152400D01*
X215413Y127000D02*
X175027Y167386D01*
X150114Y167386D02*
X127000Y190500D01*
X150114Y167386D02*
X175027Y167386D01*
X266700Y152400D02*
X317500Y152400D01*
X266700Y152400D02*
X241300Y127000D01*
X215413Y127000D01*
D22*
X101600Y177800D02*
X101600Y190500D01*
X101600Y177800D02*
X107950Y171450D01*
X107950Y146050D01*
X120650Y133350D01*
X190500Y133350D02*
X203200Y120650D01*
X190500Y133350D02*
X120650Y133350D01*
X355600Y25400D02*
X393700Y63500D01*
X558800Y63500D02*
X584200Y88900D01*
X584200Y139700D01*
D18*
X584200Y139700D03*
D22*
X558800Y63500D02*
X393700Y63500D01*
X355600Y28575D02*
X355600Y25400D01*
X355600Y28575D02*
X336550Y47625D01*
X222250Y47625D01*
X203200Y66675D01*
X203200Y120650D01*
D19*
X463050Y253500D02*
X636400Y253500D01*
X463050Y253500D02*
X457200Y247650D01*
D18*
X457200Y247650D03*
X476250Y88900D03*
D22*
X304800Y88900D01*
X279400Y114300D02*
X279400Y139500D01*
X279600Y139700D01*
X279400Y114300D02*
X304800Y88900D01*
D23*
X41275Y120650D02*
X9525Y152400D01*
X9525Y263525D01*
X25400Y279400D01*
X38100Y279400D01*
X177800Y120650D02*
X184150Y114300D01*
X184150Y57150D01*
X177800Y50800D01*
X161925Y50800D01*
X177800Y120650D02*
X41275Y120650D01*
D18*
X609600Y266700D03*
D19*
X609600Y277500D01*
X636400Y304300D01*
M02*
