G04 EAGLE Gerber RS-274X export*
G75*
%MOMM*%
%FSLAX34Y34*%
%LPD*%
%INBoard Outline*%
%IPPOS*%
%AMOC8*
5,1,8,0,0,1.08239X$1,22.5*%
G01*
%ADD10C,0.000000*%
%ADD11C,0.254000*%


D10*
X0Y0D02*
X660200Y0D01*
X660200Y200D01*
X660400Y25400D01*
X685800Y50800D01*
X685800Y381000D01*
X660400Y406400D01*
X660200Y431600D01*
X660400Y520700D01*
X647700Y533400D01*
X634800Y545900D01*
X622100Y558800D01*
X0Y558800D01*
X0Y0D01*
X136525Y508000D02*
X136530Y508390D01*
X136544Y508779D01*
X136568Y509168D01*
X136601Y509556D01*
X136644Y509943D01*
X136697Y510329D01*
X136759Y510714D01*
X136830Y511097D01*
X136911Y511478D01*
X137001Y511857D01*
X137100Y512234D01*
X137209Y512608D01*
X137326Y512980D01*
X137453Y513348D01*
X137589Y513713D01*
X137733Y514075D01*
X137887Y514433D01*
X138049Y514787D01*
X138220Y515138D01*
X138399Y515483D01*
X138587Y515825D01*
X138784Y516161D01*
X138988Y516493D01*
X139200Y516820D01*
X139421Y517141D01*
X139649Y517457D01*
X139885Y517767D01*
X140128Y518071D01*
X140379Y518369D01*
X140637Y518661D01*
X140903Y518946D01*
X141175Y519225D01*
X141454Y519497D01*
X141739Y519763D01*
X142031Y520021D01*
X142329Y520272D01*
X142633Y520515D01*
X142943Y520751D01*
X143259Y520979D01*
X143580Y521200D01*
X143907Y521412D01*
X144239Y521616D01*
X144575Y521813D01*
X144917Y522001D01*
X145262Y522180D01*
X145613Y522351D01*
X145967Y522513D01*
X146325Y522667D01*
X146687Y522811D01*
X147052Y522947D01*
X147420Y523074D01*
X147792Y523191D01*
X148166Y523300D01*
X148543Y523399D01*
X148922Y523489D01*
X149303Y523570D01*
X149686Y523641D01*
X150071Y523703D01*
X150457Y523756D01*
X150844Y523799D01*
X151232Y523832D01*
X151621Y523856D01*
X152010Y523870D01*
X152400Y523875D01*
X152790Y523870D01*
X153179Y523856D01*
X153568Y523832D01*
X153956Y523799D01*
X154343Y523756D01*
X154729Y523703D01*
X155114Y523641D01*
X155497Y523570D01*
X155878Y523489D01*
X156257Y523399D01*
X156634Y523300D01*
X157008Y523191D01*
X157380Y523074D01*
X157748Y522947D01*
X158113Y522811D01*
X158475Y522667D01*
X158833Y522513D01*
X159187Y522351D01*
X159538Y522180D01*
X159883Y522001D01*
X160225Y521813D01*
X160561Y521616D01*
X160893Y521412D01*
X161220Y521200D01*
X161541Y520979D01*
X161857Y520751D01*
X162167Y520515D01*
X162471Y520272D01*
X162769Y520021D01*
X163061Y519763D01*
X163346Y519497D01*
X163625Y519225D01*
X163897Y518946D01*
X164163Y518661D01*
X164421Y518369D01*
X164672Y518071D01*
X164915Y517767D01*
X165151Y517457D01*
X165379Y517141D01*
X165600Y516820D01*
X165812Y516493D01*
X166016Y516161D01*
X166213Y515825D01*
X166401Y515483D01*
X166580Y515138D01*
X166751Y514787D01*
X166913Y514433D01*
X167067Y514075D01*
X167211Y513713D01*
X167347Y513348D01*
X167474Y512980D01*
X167591Y512608D01*
X167700Y512234D01*
X167799Y511857D01*
X167889Y511478D01*
X167970Y511097D01*
X168041Y510714D01*
X168103Y510329D01*
X168156Y509943D01*
X168199Y509556D01*
X168232Y509168D01*
X168256Y508779D01*
X168270Y508390D01*
X168275Y508000D01*
X168270Y507610D01*
X168256Y507221D01*
X168232Y506832D01*
X168199Y506444D01*
X168156Y506057D01*
X168103Y505671D01*
X168041Y505286D01*
X167970Y504903D01*
X167889Y504522D01*
X167799Y504143D01*
X167700Y503766D01*
X167591Y503392D01*
X167474Y503020D01*
X167347Y502652D01*
X167211Y502287D01*
X167067Y501925D01*
X166913Y501567D01*
X166751Y501213D01*
X166580Y500862D01*
X166401Y500517D01*
X166213Y500175D01*
X166016Y499839D01*
X165812Y499507D01*
X165600Y499180D01*
X165379Y498859D01*
X165151Y498543D01*
X164915Y498233D01*
X164672Y497929D01*
X164421Y497631D01*
X164163Y497339D01*
X163897Y497054D01*
X163625Y496775D01*
X163346Y496503D01*
X163061Y496237D01*
X162769Y495979D01*
X162471Y495728D01*
X162167Y495485D01*
X161857Y495249D01*
X161541Y495021D01*
X161220Y494800D01*
X160893Y494588D01*
X160561Y494384D01*
X160225Y494187D01*
X159883Y493999D01*
X159538Y493820D01*
X159187Y493649D01*
X158833Y493487D01*
X158475Y493333D01*
X158113Y493189D01*
X157748Y493053D01*
X157380Y492926D01*
X157008Y492809D01*
X156634Y492700D01*
X156257Y492601D01*
X155878Y492511D01*
X155497Y492430D01*
X155114Y492359D01*
X154729Y492297D01*
X154343Y492244D01*
X153956Y492201D01*
X153568Y492168D01*
X153179Y492144D01*
X152790Y492130D01*
X152400Y492125D01*
X152010Y492130D01*
X151621Y492144D01*
X151232Y492168D01*
X150844Y492201D01*
X150457Y492244D01*
X150071Y492297D01*
X149686Y492359D01*
X149303Y492430D01*
X148922Y492511D01*
X148543Y492601D01*
X148166Y492700D01*
X147792Y492809D01*
X147420Y492926D01*
X147052Y493053D01*
X146687Y493189D01*
X146325Y493333D01*
X145967Y493487D01*
X145613Y493649D01*
X145262Y493820D01*
X144917Y493999D01*
X144575Y494187D01*
X144239Y494384D01*
X143907Y494588D01*
X143580Y494800D01*
X143259Y495021D01*
X142943Y495249D01*
X142633Y495485D01*
X142329Y495728D01*
X142031Y495979D01*
X141739Y496237D01*
X141454Y496503D01*
X141175Y496775D01*
X140903Y497054D01*
X140637Y497339D01*
X140379Y497631D01*
X140128Y497929D01*
X139885Y498233D01*
X139649Y498543D01*
X139421Y498859D01*
X139200Y499180D01*
X138988Y499507D01*
X138784Y499839D01*
X138587Y500175D01*
X138399Y500517D01*
X138220Y500862D01*
X138049Y501213D01*
X137887Y501567D01*
X137733Y501925D01*
X137589Y502287D01*
X137453Y502652D01*
X137326Y503020D01*
X137209Y503392D01*
X137100Y503766D01*
X137001Y504143D01*
X136911Y504522D01*
X136830Y504903D01*
X136759Y505286D01*
X136697Y505671D01*
X136644Y506057D01*
X136601Y506444D01*
X136568Y506832D01*
X136544Y507221D01*
X136530Y507610D01*
X136525Y508000D01*
X644525Y355600D02*
X644530Y355990D01*
X644544Y356379D01*
X644568Y356768D01*
X644601Y357156D01*
X644644Y357543D01*
X644697Y357929D01*
X644759Y358314D01*
X644830Y358697D01*
X644911Y359078D01*
X645001Y359457D01*
X645100Y359834D01*
X645209Y360208D01*
X645326Y360580D01*
X645453Y360948D01*
X645589Y361313D01*
X645733Y361675D01*
X645887Y362033D01*
X646049Y362387D01*
X646220Y362738D01*
X646399Y363083D01*
X646587Y363425D01*
X646784Y363761D01*
X646988Y364093D01*
X647200Y364420D01*
X647421Y364741D01*
X647649Y365057D01*
X647885Y365367D01*
X648128Y365671D01*
X648379Y365969D01*
X648637Y366261D01*
X648903Y366546D01*
X649175Y366825D01*
X649454Y367097D01*
X649739Y367363D01*
X650031Y367621D01*
X650329Y367872D01*
X650633Y368115D01*
X650943Y368351D01*
X651259Y368579D01*
X651580Y368800D01*
X651907Y369012D01*
X652239Y369216D01*
X652575Y369413D01*
X652917Y369601D01*
X653262Y369780D01*
X653613Y369951D01*
X653967Y370113D01*
X654325Y370267D01*
X654687Y370411D01*
X655052Y370547D01*
X655420Y370674D01*
X655792Y370791D01*
X656166Y370900D01*
X656543Y370999D01*
X656922Y371089D01*
X657303Y371170D01*
X657686Y371241D01*
X658071Y371303D01*
X658457Y371356D01*
X658844Y371399D01*
X659232Y371432D01*
X659621Y371456D01*
X660010Y371470D01*
X660400Y371475D01*
X660790Y371470D01*
X661179Y371456D01*
X661568Y371432D01*
X661956Y371399D01*
X662343Y371356D01*
X662729Y371303D01*
X663114Y371241D01*
X663497Y371170D01*
X663878Y371089D01*
X664257Y370999D01*
X664634Y370900D01*
X665008Y370791D01*
X665380Y370674D01*
X665748Y370547D01*
X666113Y370411D01*
X666475Y370267D01*
X666833Y370113D01*
X667187Y369951D01*
X667538Y369780D01*
X667883Y369601D01*
X668225Y369413D01*
X668561Y369216D01*
X668893Y369012D01*
X669220Y368800D01*
X669541Y368579D01*
X669857Y368351D01*
X670167Y368115D01*
X670471Y367872D01*
X670769Y367621D01*
X671061Y367363D01*
X671346Y367097D01*
X671625Y366825D01*
X671897Y366546D01*
X672163Y366261D01*
X672421Y365969D01*
X672672Y365671D01*
X672915Y365367D01*
X673151Y365057D01*
X673379Y364741D01*
X673600Y364420D01*
X673812Y364093D01*
X674016Y363761D01*
X674213Y363425D01*
X674401Y363083D01*
X674580Y362738D01*
X674751Y362387D01*
X674913Y362033D01*
X675067Y361675D01*
X675211Y361313D01*
X675347Y360948D01*
X675474Y360580D01*
X675591Y360208D01*
X675700Y359834D01*
X675799Y359457D01*
X675889Y359078D01*
X675970Y358697D01*
X676041Y358314D01*
X676103Y357929D01*
X676156Y357543D01*
X676199Y357156D01*
X676232Y356768D01*
X676256Y356379D01*
X676270Y355990D01*
X676275Y355600D01*
X676270Y355210D01*
X676256Y354821D01*
X676232Y354432D01*
X676199Y354044D01*
X676156Y353657D01*
X676103Y353271D01*
X676041Y352886D01*
X675970Y352503D01*
X675889Y352122D01*
X675799Y351743D01*
X675700Y351366D01*
X675591Y350992D01*
X675474Y350620D01*
X675347Y350252D01*
X675211Y349887D01*
X675067Y349525D01*
X674913Y349167D01*
X674751Y348813D01*
X674580Y348462D01*
X674401Y348117D01*
X674213Y347775D01*
X674016Y347439D01*
X673812Y347107D01*
X673600Y346780D01*
X673379Y346459D01*
X673151Y346143D01*
X672915Y345833D01*
X672672Y345529D01*
X672421Y345231D01*
X672163Y344939D01*
X671897Y344654D01*
X671625Y344375D01*
X671346Y344103D01*
X671061Y343837D01*
X670769Y343579D01*
X670471Y343328D01*
X670167Y343085D01*
X669857Y342849D01*
X669541Y342621D01*
X669220Y342400D01*
X668893Y342188D01*
X668561Y341984D01*
X668225Y341787D01*
X667883Y341599D01*
X667538Y341420D01*
X667187Y341249D01*
X666833Y341087D01*
X666475Y340933D01*
X666113Y340789D01*
X665748Y340653D01*
X665380Y340526D01*
X665008Y340409D01*
X664634Y340300D01*
X664257Y340201D01*
X663878Y340111D01*
X663497Y340030D01*
X663114Y339959D01*
X662729Y339897D01*
X662343Y339844D01*
X661956Y339801D01*
X661568Y339768D01*
X661179Y339744D01*
X660790Y339730D01*
X660400Y339725D01*
X660010Y339730D01*
X659621Y339744D01*
X659232Y339768D01*
X658844Y339801D01*
X658457Y339844D01*
X658071Y339897D01*
X657686Y339959D01*
X657303Y340030D01*
X656922Y340111D01*
X656543Y340201D01*
X656166Y340300D01*
X655792Y340409D01*
X655420Y340526D01*
X655052Y340653D01*
X654687Y340789D01*
X654325Y340933D01*
X653967Y341087D01*
X653613Y341249D01*
X653262Y341420D01*
X652917Y341599D01*
X652575Y341787D01*
X652239Y341984D01*
X651907Y342188D01*
X651580Y342400D01*
X651259Y342621D01*
X650943Y342849D01*
X650633Y343085D01*
X650329Y343328D01*
X650031Y343579D01*
X649739Y343837D01*
X649454Y344103D01*
X649175Y344375D01*
X648903Y344654D01*
X648637Y344939D01*
X648379Y345231D01*
X648128Y345529D01*
X647885Y345833D01*
X647649Y346143D01*
X647421Y346459D01*
X647200Y346780D01*
X646988Y347107D01*
X646784Y347439D01*
X646587Y347775D01*
X646399Y348117D01*
X646220Y348462D01*
X646049Y348813D01*
X645887Y349167D01*
X645733Y349525D01*
X645589Y349887D01*
X645453Y350252D01*
X645326Y350620D01*
X645209Y350992D01*
X645100Y351366D01*
X645001Y351743D01*
X644911Y352122D01*
X644830Y352503D01*
X644759Y352886D01*
X644697Y353271D01*
X644644Y353657D01*
X644601Y354044D01*
X644568Y354432D01*
X644544Y354821D01*
X644530Y355210D01*
X644525Y355600D01*
X644525Y76200D02*
X644530Y76590D01*
X644544Y76979D01*
X644568Y77368D01*
X644601Y77756D01*
X644644Y78143D01*
X644697Y78529D01*
X644759Y78914D01*
X644830Y79297D01*
X644911Y79678D01*
X645001Y80057D01*
X645100Y80434D01*
X645209Y80808D01*
X645326Y81180D01*
X645453Y81548D01*
X645589Y81913D01*
X645733Y82275D01*
X645887Y82633D01*
X646049Y82987D01*
X646220Y83338D01*
X646399Y83683D01*
X646587Y84025D01*
X646784Y84361D01*
X646988Y84693D01*
X647200Y85020D01*
X647421Y85341D01*
X647649Y85657D01*
X647885Y85967D01*
X648128Y86271D01*
X648379Y86569D01*
X648637Y86861D01*
X648903Y87146D01*
X649175Y87425D01*
X649454Y87697D01*
X649739Y87963D01*
X650031Y88221D01*
X650329Y88472D01*
X650633Y88715D01*
X650943Y88951D01*
X651259Y89179D01*
X651580Y89400D01*
X651907Y89612D01*
X652239Y89816D01*
X652575Y90013D01*
X652917Y90201D01*
X653262Y90380D01*
X653613Y90551D01*
X653967Y90713D01*
X654325Y90867D01*
X654687Y91011D01*
X655052Y91147D01*
X655420Y91274D01*
X655792Y91391D01*
X656166Y91500D01*
X656543Y91599D01*
X656922Y91689D01*
X657303Y91770D01*
X657686Y91841D01*
X658071Y91903D01*
X658457Y91956D01*
X658844Y91999D01*
X659232Y92032D01*
X659621Y92056D01*
X660010Y92070D01*
X660400Y92075D01*
X660790Y92070D01*
X661179Y92056D01*
X661568Y92032D01*
X661956Y91999D01*
X662343Y91956D01*
X662729Y91903D01*
X663114Y91841D01*
X663497Y91770D01*
X663878Y91689D01*
X664257Y91599D01*
X664634Y91500D01*
X665008Y91391D01*
X665380Y91274D01*
X665748Y91147D01*
X666113Y91011D01*
X666475Y90867D01*
X666833Y90713D01*
X667187Y90551D01*
X667538Y90380D01*
X667883Y90201D01*
X668225Y90013D01*
X668561Y89816D01*
X668893Y89612D01*
X669220Y89400D01*
X669541Y89179D01*
X669857Y88951D01*
X670167Y88715D01*
X670471Y88472D01*
X670769Y88221D01*
X671061Y87963D01*
X671346Y87697D01*
X671625Y87425D01*
X671897Y87146D01*
X672163Y86861D01*
X672421Y86569D01*
X672672Y86271D01*
X672915Y85967D01*
X673151Y85657D01*
X673379Y85341D01*
X673600Y85020D01*
X673812Y84693D01*
X674016Y84361D01*
X674213Y84025D01*
X674401Y83683D01*
X674580Y83338D01*
X674751Y82987D01*
X674913Y82633D01*
X675067Y82275D01*
X675211Y81913D01*
X675347Y81548D01*
X675474Y81180D01*
X675591Y80808D01*
X675700Y80434D01*
X675799Y80057D01*
X675889Y79678D01*
X675970Y79297D01*
X676041Y78914D01*
X676103Y78529D01*
X676156Y78143D01*
X676199Y77756D01*
X676232Y77368D01*
X676256Y76979D01*
X676270Y76590D01*
X676275Y76200D01*
X676270Y75810D01*
X676256Y75421D01*
X676232Y75032D01*
X676199Y74644D01*
X676156Y74257D01*
X676103Y73871D01*
X676041Y73486D01*
X675970Y73103D01*
X675889Y72722D01*
X675799Y72343D01*
X675700Y71966D01*
X675591Y71592D01*
X675474Y71220D01*
X675347Y70852D01*
X675211Y70487D01*
X675067Y70125D01*
X674913Y69767D01*
X674751Y69413D01*
X674580Y69062D01*
X674401Y68717D01*
X674213Y68375D01*
X674016Y68039D01*
X673812Y67707D01*
X673600Y67380D01*
X673379Y67059D01*
X673151Y66743D01*
X672915Y66433D01*
X672672Y66129D01*
X672421Y65831D01*
X672163Y65539D01*
X671897Y65254D01*
X671625Y64975D01*
X671346Y64703D01*
X671061Y64437D01*
X670769Y64179D01*
X670471Y63928D01*
X670167Y63685D01*
X669857Y63449D01*
X669541Y63221D01*
X669220Y63000D01*
X668893Y62788D01*
X668561Y62584D01*
X668225Y62387D01*
X667883Y62199D01*
X667538Y62020D01*
X667187Y61849D01*
X666833Y61687D01*
X666475Y61533D01*
X666113Y61389D01*
X665748Y61253D01*
X665380Y61126D01*
X665008Y61009D01*
X664634Y60900D01*
X664257Y60801D01*
X663878Y60711D01*
X663497Y60630D01*
X663114Y60559D01*
X662729Y60497D01*
X662343Y60444D01*
X661956Y60401D01*
X661568Y60368D01*
X661179Y60344D01*
X660790Y60330D01*
X660400Y60325D01*
X660010Y60330D01*
X659621Y60344D01*
X659232Y60368D01*
X658844Y60401D01*
X658457Y60444D01*
X658071Y60497D01*
X657686Y60559D01*
X657303Y60630D01*
X656922Y60711D01*
X656543Y60801D01*
X656166Y60900D01*
X655792Y61009D01*
X655420Y61126D01*
X655052Y61253D01*
X654687Y61389D01*
X654325Y61533D01*
X653967Y61687D01*
X653613Y61849D01*
X653262Y62020D01*
X652917Y62199D01*
X652575Y62387D01*
X652239Y62584D01*
X651907Y62788D01*
X651580Y63000D01*
X651259Y63221D01*
X650943Y63449D01*
X650633Y63685D01*
X650329Y63928D01*
X650031Y64179D01*
X649739Y64437D01*
X649454Y64703D01*
X649175Y64975D01*
X648903Y65254D01*
X648637Y65539D01*
X648379Y65831D01*
X648128Y66129D01*
X647885Y66433D01*
X647649Y66743D01*
X647421Y67059D01*
X647200Y67380D01*
X646988Y67707D01*
X646784Y68039D01*
X646587Y68375D01*
X646399Y68717D01*
X646220Y69062D01*
X646049Y69413D01*
X645887Y69767D01*
X645733Y70125D01*
X645589Y70487D01*
X645453Y70852D01*
X645326Y71220D01*
X645209Y71592D01*
X645100Y71966D01*
X645001Y72343D01*
X644911Y72722D01*
X644830Y73103D01*
X644759Y73486D01*
X644697Y73871D01*
X644644Y74257D01*
X644601Y74644D01*
X644568Y75032D01*
X644544Y75421D01*
X644530Y75810D01*
X644525Y76200D01*
X123825Y25400D02*
X123830Y25790D01*
X123844Y26179D01*
X123868Y26568D01*
X123901Y26956D01*
X123944Y27343D01*
X123997Y27729D01*
X124059Y28114D01*
X124130Y28497D01*
X124211Y28878D01*
X124301Y29257D01*
X124400Y29634D01*
X124509Y30008D01*
X124626Y30380D01*
X124753Y30748D01*
X124889Y31113D01*
X125033Y31475D01*
X125187Y31833D01*
X125349Y32187D01*
X125520Y32538D01*
X125699Y32883D01*
X125887Y33225D01*
X126084Y33561D01*
X126288Y33893D01*
X126500Y34220D01*
X126721Y34541D01*
X126949Y34857D01*
X127185Y35167D01*
X127428Y35471D01*
X127679Y35769D01*
X127937Y36061D01*
X128203Y36346D01*
X128475Y36625D01*
X128754Y36897D01*
X129039Y37163D01*
X129331Y37421D01*
X129629Y37672D01*
X129933Y37915D01*
X130243Y38151D01*
X130559Y38379D01*
X130880Y38600D01*
X131207Y38812D01*
X131539Y39016D01*
X131875Y39213D01*
X132217Y39401D01*
X132562Y39580D01*
X132913Y39751D01*
X133267Y39913D01*
X133625Y40067D01*
X133987Y40211D01*
X134352Y40347D01*
X134720Y40474D01*
X135092Y40591D01*
X135466Y40700D01*
X135843Y40799D01*
X136222Y40889D01*
X136603Y40970D01*
X136986Y41041D01*
X137371Y41103D01*
X137757Y41156D01*
X138144Y41199D01*
X138532Y41232D01*
X138921Y41256D01*
X139310Y41270D01*
X139700Y41275D01*
X140090Y41270D01*
X140479Y41256D01*
X140868Y41232D01*
X141256Y41199D01*
X141643Y41156D01*
X142029Y41103D01*
X142414Y41041D01*
X142797Y40970D01*
X143178Y40889D01*
X143557Y40799D01*
X143934Y40700D01*
X144308Y40591D01*
X144680Y40474D01*
X145048Y40347D01*
X145413Y40211D01*
X145775Y40067D01*
X146133Y39913D01*
X146487Y39751D01*
X146838Y39580D01*
X147183Y39401D01*
X147525Y39213D01*
X147861Y39016D01*
X148193Y38812D01*
X148520Y38600D01*
X148841Y38379D01*
X149157Y38151D01*
X149467Y37915D01*
X149771Y37672D01*
X150069Y37421D01*
X150361Y37163D01*
X150646Y36897D01*
X150925Y36625D01*
X151197Y36346D01*
X151463Y36061D01*
X151721Y35769D01*
X151972Y35471D01*
X152215Y35167D01*
X152451Y34857D01*
X152679Y34541D01*
X152900Y34220D01*
X153112Y33893D01*
X153316Y33561D01*
X153513Y33225D01*
X153701Y32883D01*
X153880Y32538D01*
X154051Y32187D01*
X154213Y31833D01*
X154367Y31475D01*
X154511Y31113D01*
X154647Y30748D01*
X154774Y30380D01*
X154891Y30008D01*
X155000Y29634D01*
X155099Y29257D01*
X155189Y28878D01*
X155270Y28497D01*
X155341Y28114D01*
X155403Y27729D01*
X155456Y27343D01*
X155499Y26956D01*
X155532Y26568D01*
X155556Y26179D01*
X155570Y25790D01*
X155575Y25400D01*
X155570Y25010D01*
X155556Y24621D01*
X155532Y24232D01*
X155499Y23844D01*
X155456Y23457D01*
X155403Y23071D01*
X155341Y22686D01*
X155270Y22303D01*
X155189Y21922D01*
X155099Y21543D01*
X155000Y21166D01*
X154891Y20792D01*
X154774Y20420D01*
X154647Y20052D01*
X154511Y19687D01*
X154367Y19325D01*
X154213Y18967D01*
X154051Y18613D01*
X153880Y18262D01*
X153701Y17917D01*
X153513Y17575D01*
X153316Y17239D01*
X153112Y16907D01*
X152900Y16580D01*
X152679Y16259D01*
X152451Y15943D01*
X152215Y15633D01*
X151972Y15329D01*
X151721Y15031D01*
X151463Y14739D01*
X151197Y14454D01*
X150925Y14175D01*
X150646Y13903D01*
X150361Y13637D01*
X150069Y13379D01*
X149771Y13128D01*
X149467Y12885D01*
X149157Y12649D01*
X148841Y12421D01*
X148520Y12200D01*
X148193Y11988D01*
X147861Y11784D01*
X147525Y11587D01*
X147183Y11399D01*
X146838Y11220D01*
X146487Y11049D01*
X146133Y10887D01*
X145775Y10733D01*
X145413Y10589D01*
X145048Y10453D01*
X144680Y10326D01*
X144308Y10209D01*
X143934Y10100D01*
X143557Y10001D01*
X143178Y9911D01*
X142797Y9830D01*
X142414Y9759D01*
X142029Y9697D01*
X141643Y9644D01*
X141256Y9601D01*
X140868Y9568D01*
X140479Y9544D01*
X140090Y9530D01*
X139700Y9525D01*
X139310Y9530D01*
X138921Y9544D01*
X138532Y9568D01*
X138144Y9601D01*
X137757Y9644D01*
X137371Y9697D01*
X136986Y9759D01*
X136603Y9830D01*
X136222Y9911D01*
X135843Y10001D01*
X135466Y10100D01*
X135092Y10209D01*
X134720Y10326D01*
X134352Y10453D01*
X133987Y10589D01*
X133625Y10733D01*
X133267Y10887D01*
X132913Y11049D01*
X132562Y11220D01*
X132217Y11399D01*
X131875Y11587D01*
X131539Y11784D01*
X131207Y11988D01*
X130880Y12200D01*
X130559Y12421D01*
X130243Y12649D01*
X129933Y12885D01*
X129629Y13128D01*
X129331Y13379D01*
X129039Y13637D01*
X128754Y13903D01*
X128475Y14175D01*
X128203Y14454D01*
X127937Y14739D01*
X127679Y15031D01*
X127428Y15329D01*
X127185Y15633D01*
X126949Y15943D01*
X126721Y16259D01*
X126500Y16580D01*
X126288Y16907D01*
X126084Y17239D01*
X125887Y17575D01*
X125699Y17917D01*
X125520Y18262D01*
X125349Y18613D01*
X125187Y18967D01*
X125033Y19325D01*
X124889Y19687D01*
X124753Y20052D01*
X124626Y20420D01*
X124509Y20792D01*
X124400Y21166D01*
X124301Y21543D01*
X124211Y21922D01*
X124130Y22303D01*
X124059Y22686D01*
X123997Y23071D01*
X123944Y23457D01*
X123901Y23844D01*
X123868Y24232D01*
X123844Y24621D01*
X123830Y25010D01*
X123825Y25400D01*
X589475Y370600D02*
X589477Y370730D01*
X589483Y370860D01*
X589493Y370990D01*
X589507Y371120D01*
X589525Y371249D01*
X589547Y371377D01*
X589572Y371505D01*
X589602Y371632D01*
X589636Y371758D01*
X589673Y371882D01*
X589714Y372006D01*
X589759Y372128D01*
X589808Y372249D01*
X589860Y372368D01*
X589916Y372486D01*
X589976Y372602D01*
X590039Y372716D01*
X590106Y372828D01*
X590176Y372937D01*
X590249Y373045D01*
X590325Y373150D01*
X590405Y373253D01*
X590488Y373354D01*
X590574Y373452D01*
X590663Y373547D01*
X590755Y373640D01*
X590849Y373729D01*
X590946Y373816D01*
X591046Y373899D01*
X591149Y373980D01*
X591253Y374057D01*
X591360Y374131D01*
X591470Y374202D01*
X591581Y374270D01*
X591695Y374334D01*
X591810Y374394D01*
X591927Y374451D01*
X592046Y374504D01*
X592167Y374554D01*
X592288Y374600D01*
X592412Y374642D01*
X592536Y374680D01*
X592662Y374715D01*
X592788Y374746D01*
X592916Y374772D01*
X593044Y374795D01*
X593173Y374814D01*
X593302Y374829D01*
X593432Y374840D01*
X593562Y374847D01*
X593692Y374850D01*
X593823Y374849D01*
X593953Y374844D01*
X594083Y374835D01*
X594212Y374822D01*
X594342Y374805D01*
X594470Y374784D01*
X594598Y374759D01*
X594725Y374731D01*
X594851Y374698D01*
X594976Y374662D01*
X595100Y374621D01*
X595223Y374577D01*
X595344Y374530D01*
X595464Y374478D01*
X595582Y374423D01*
X595698Y374364D01*
X595812Y374302D01*
X595925Y374236D01*
X596035Y374167D01*
X596143Y374095D01*
X596249Y374019D01*
X596353Y373940D01*
X596454Y373858D01*
X596553Y373773D01*
X596649Y373685D01*
X596742Y373594D01*
X596832Y373500D01*
X596919Y373403D01*
X597004Y373304D01*
X597085Y373202D01*
X597163Y373098D01*
X597238Y372992D01*
X597310Y372883D01*
X597378Y372772D01*
X597443Y372659D01*
X597504Y372544D01*
X597562Y372427D01*
X597616Y372309D01*
X597667Y372189D01*
X597714Y372067D01*
X597757Y371944D01*
X597796Y371820D01*
X597832Y371695D01*
X597863Y371568D01*
X597891Y371441D01*
X597915Y371313D01*
X597935Y371184D01*
X597951Y371055D01*
X597963Y370925D01*
X597971Y370795D01*
X597975Y370665D01*
X597975Y370535D01*
X597971Y370405D01*
X597963Y370275D01*
X597951Y370145D01*
X597935Y370016D01*
X597915Y369887D01*
X597891Y369759D01*
X597863Y369632D01*
X597832Y369505D01*
X597796Y369380D01*
X597757Y369256D01*
X597714Y369133D01*
X597667Y369011D01*
X597616Y368891D01*
X597562Y368773D01*
X597504Y368656D01*
X597443Y368541D01*
X597378Y368428D01*
X597310Y368317D01*
X597238Y368208D01*
X597163Y368102D01*
X597085Y367998D01*
X597004Y367896D01*
X596919Y367797D01*
X596832Y367700D01*
X596742Y367606D01*
X596649Y367515D01*
X596553Y367427D01*
X596454Y367342D01*
X596353Y367260D01*
X596249Y367181D01*
X596143Y367105D01*
X596035Y367033D01*
X595925Y366964D01*
X595812Y366898D01*
X595698Y366836D01*
X595582Y366777D01*
X595464Y366722D01*
X595344Y366670D01*
X595223Y366623D01*
X595100Y366579D01*
X594976Y366538D01*
X594851Y366502D01*
X594725Y366469D01*
X594598Y366441D01*
X594470Y366416D01*
X594342Y366395D01*
X594212Y366378D01*
X594083Y366365D01*
X593953Y366356D01*
X593823Y366351D01*
X593692Y366350D01*
X593562Y366353D01*
X593432Y366360D01*
X593302Y366371D01*
X593173Y366386D01*
X593044Y366405D01*
X592916Y366428D01*
X592788Y366454D01*
X592662Y366485D01*
X592536Y366520D01*
X592412Y366558D01*
X592288Y366600D01*
X592167Y366646D01*
X592046Y366696D01*
X591927Y366749D01*
X591810Y366806D01*
X591695Y366866D01*
X591581Y366930D01*
X591470Y366998D01*
X591360Y367069D01*
X591253Y367143D01*
X591149Y367220D01*
X591046Y367301D01*
X590946Y367384D01*
X590849Y367471D01*
X590755Y367560D01*
X590663Y367653D01*
X590574Y367748D01*
X590488Y367846D01*
X590405Y367947D01*
X590325Y368050D01*
X590249Y368155D01*
X590176Y368263D01*
X590106Y368372D01*
X590039Y368484D01*
X589976Y368598D01*
X589916Y368714D01*
X589860Y368832D01*
X589808Y368951D01*
X589759Y369072D01*
X589714Y369194D01*
X589673Y369318D01*
X589636Y369442D01*
X589602Y369568D01*
X589572Y369695D01*
X589547Y369823D01*
X589525Y369951D01*
X589507Y370080D01*
X589493Y370210D01*
X589483Y370340D01*
X589477Y370470D01*
X589475Y370600D01*
X589475Y340600D02*
X589477Y340730D01*
X589483Y340860D01*
X589493Y340990D01*
X589507Y341120D01*
X589525Y341249D01*
X589547Y341377D01*
X589572Y341505D01*
X589602Y341632D01*
X589636Y341758D01*
X589673Y341882D01*
X589714Y342006D01*
X589759Y342128D01*
X589808Y342249D01*
X589860Y342368D01*
X589916Y342486D01*
X589976Y342602D01*
X590039Y342716D01*
X590106Y342828D01*
X590176Y342937D01*
X590249Y343045D01*
X590325Y343150D01*
X590405Y343253D01*
X590488Y343354D01*
X590574Y343452D01*
X590663Y343547D01*
X590755Y343640D01*
X590849Y343729D01*
X590946Y343816D01*
X591046Y343899D01*
X591149Y343980D01*
X591253Y344057D01*
X591360Y344131D01*
X591470Y344202D01*
X591581Y344270D01*
X591695Y344334D01*
X591810Y344394D01*
X591927Y344451D01*
X592046Y344504D01*
X592167Y344554D01*
X592288Y344600D01*
X592412Y344642D01*
X592536Y344680D01*
X592662Y344715D01*
X592788Y344746D01*
X592916Y344772D01*
X593044Y344795D01*
X593173Y344814D01*
X593302Y344829D01*
X593432Y344840D01*
X593562Y344847D01*
X593692Y344850D01*
X593823Y344849D01*
X593953Y344844D01*
X594083Y344835D01*
X594212Y344822D01*
X594342Y344805D01*
X594470Y344784D01*
X594598Y344759D01*
X594725Y344731D01*
X594851Y344698D01*
X594976Y344662D01*
X595100Y344621D01*
X595223Y344577D01*
X595344Y344530D01*
X595464Y344478D01*
X595582Y344423D01*
X595698Y344364D01*
X595812Y344302D01*
X595925Y344236D01*
X596035Y344167D01*
X596143Y344095D01*
X596249Y344019D01*
X596353Y343940D01*
X596454Y343858D01*
X596553Y343773D01*
X596649Y343685D01*
X596742Y343594D01*
X596832Y343500D01*
X596919Y343403D01*
X597004Y343304D01*
X597085Y343202D01*
X597163Y343098D01*
X597238Y342992D01*
X597310Y342883D01*
X597378Y342772D01*
X597443Y342659D01*
X597504Y342544D01*
X597562Y342427D01*
X597616Y342309D01*
X597667Y342189D01*
X597714Y342067D01*
X597757Y341944D01*
X597796Y341820D01*
X597832Y341695D01*
X597863Y341568D01*
X597891Y341441D01*
X597915Y341313D01*
X597935Y341184D01*
X597951Y341055D01*
X597963Y340925D01*
X597971Y340795D01*
X597975Y340665D01*
X597975Y340535D01*
X597971Y340405D01*
X597963Y340275D01*
X597951Y340145D01*
X597935Y340016D01*
X597915Y339887D01*
X597891Y339759D01*
X597863Y339632D01*
X597832Y339505D01*
X597796Y339380D01*
X597757Y339256D01*
X597714Y339133D01*
X597667Y339011D01*
X597616Y338891D01*
X597562Y338773D01*
X597504Y338656D01*
X597443Y338541D01*
X597378Y338428D01*
X597310Y338317D01*
X597238Y338208D01*
X597163Y338102D01*
X597085Y337998D01*
X597004Y337896D01*
X596919Y337797D01*
X596832Y337700D01*
X596742Y337606D01*
X596649Y337515D01*
X596553Y337427D01*
X596454Y337342D01*
X596353Y337260D01*
X596249Y337181D01*
X596143Y337105D01*
X596035Y337033D01*
X595925Y336964D01*
X595812Y336898D01*
X595698Y336836D01*
X595582Y336777D01*
X595464Y336722D01*
X595344Y336670D01*
X595223Y336623D01*
X595100Y336579D01*
X594976Y336538D01*
X594851Y336502D01*
X594725Y336469D01*
X594598Y336441D01*
X594470Y336416D01*
X594342Y336395D01*
X594212Y336378D01*
X594083Y336365D01*
X593953Y336356D01*
X593823Y336351D01*
X593692Y336350D01*
X593562Y336353D01*
X593432Y336360D01*
X593302Y336371D01*
X593173Y336386D01*
X593044Y336405D01*
X592916Y336428D01*
X592788Y336454D01*
X592662Y336485D01*
X592536Y336520D01*
X592412Y336558D01*
X592288Y336600D01*
X592167Y336646D01*
X592046Y336696D01*
X591927Y336749D01*
X591810Y336806D01*
X591695Y336866D01*
X591581Y336930D01*
X591470Y336998D01*
X591360Y337069D01*
X591253Y337143D01*
X591149Y337220D01*
X591046Y337301D01*
X590946Y337384D01*
X590849Y337471D01*
X590755Y337560D01*
X590663Y337653D01*
X590574Y337748D01*
X590488Y337846D01*
X590405Y337947D01*
X590325Y338050D01*
X590249Y338155D01*
X590176Y338263D01*
X590106Y338372D01*
X590039Y338484D01*
X589976Y338598D01*
X589916Y338714D01*
X589860Y338832D01*
X589808Y338951D01*
X589759Y339072D01*
X589714Y339194D01*
X589673Y339318D01*
X589636Y339442D01*
X589602Y339568D01*
X589572Y339695D01*
X589547Y339823D01*
X589525Y339951D01*
X589507Y340080D01*
X589493Y340210D01*
X589483Y340340D01*
X589477Y340470D01*
X589475Y340600D01*
D11*
X0Y0D02*
X660200Y0D01*
X660200Y200D01*
X660400Y25400D01*
X685800Y50800D01*
X685800Y381000D01*
X660400Y406400D01*
X660200Y431600D01*
X660400Y520700D01*
X647700Y533400D01*
X634800Y545900D01*
X622100Y558800D01*
X0Y558800D01*
X0Y0D01*
X168275Y507480D02*
X168207Y506443D01*
X168071Y505413D01*
X167869Y504393D01*
X167600Y503389D01*
X167265Y502405D01*
X166868Y501445D01*
X166408Y500513D01*
X165888Y499612D01*
X165311Y498748D01*
X164678Y497924D01*
X163993Y497142D01*
X163258Y496407D01*
X162476Y495722D01*
X161652Y495089D01*
X160788Y494512D01*
X159887Y493992D01*
X158955Y493532D01*
X157995Y493135D01*
X157011Y492800D01*
X156007Y492531D01*
X154987Y492329D01*
X153957Y492193D01*
X152920Y492125D01*
X151880Y492125D01*
X150843Y492193D01*
X149813Y492329D01*
X148793Y492531D01*
X147789Y492800D01*
X146805Y493135D01*
X145845Y493532D01*
X144913Y493992D01*
X144012Y494512D01*
X143148Y495089D01*
X142324Y495722D01*
X141542Y496407D01*
X140807Y497142D01*
X140122Y497924D01*
X139489Y498748D01*
X138912Y499612D01*
X138392Y500513D01*
X137932Y501445D01*
X137535Y502405D01*
X137200Y503389D01*
X136931Y504393D01*
X136729Y505413D01*
X136593Y506443D01*
X136525Y507480D01*
X136525Y508520D01*
X136593Y509557D01*
X136729Y510587D01*
X136931Y511607D01*
X137200Y512611D01*
X137535Y513595D01*
X137932Y514555D01*
X138392Y515487D01*
X138912Y516388D01*
X139489Y517252D01*
X140122Y518076D01*
X140807Y518858D01*
X141542Y519593D01*
X142324Y520278D01*
X143148Y520911D01*
X144012Y521488D01*
X144913Y522008D01*
X145845Y522468D01*
X146805Y522865D01*
X147789Y523200D01*
X148793Y523469D01*
X149813Y523671D01*
X150843Y523807D01*
X151880Y523875D01*
X152920Y523875D01*
X153957Y523807D01*
X154987Y523671D01*
X156007Y523469D01*
X157011Y523200D01*
X157995Y522865D01*
X158955Y522468D01*
X159887Y522008D01*
X160788Y521488D01*
X161652Y520911D01*
X162476Y520278D01*
X163258Y519593D01*
X163993Y518858D01*
X164678Y518076D01*
X165311Y517252D01*
X165888Y516388D01*
X166408Y515487D01*
X166868Y514555D01*
X167265Y513595D01*
X167600Y512611D01*
X167869Y511607D01*
X168071Y510587D01*
X168207Y509557D01*
X168275Y508520D01*
X168275Y507480D01*
X676275Y355080D02*
X676207Y354043D01*
X676071Y353013D01*
X675869Y351993D01*
X675600Y350989D01*
X675265Y350005D01*
X674868Y349045D01*
X674408Y348113D01*
X673888Y347212D01*
X673311Y346348D01*
X672678Y345524D01*
X671993Y344742D01*
X671258Y344007D01*
X670476Y343322D01*
X669652Y342689D01*
X668788Y342112D01*
X667887Y341592D01*
X666955Y341132D01*
X665995Y340735D01*
X665011Y340400D01*
X664007Y340131D01*
X662987Y339929D01*
X661957Y339793D01*
X660920Y339725D01*
X659880Y339725D01*
X658843Y339793D01*
X657813Y339929D01*
X656793Y340131D01*
X655789Y340400D01*
X654805Y340735D01*
X653845Y341132D01*
X652913Y341592D01*
X652012Y342112D01*
X651148Y342689D01*
X650324Y343322D01*
X649542Y344007D01*
X648807Y344742D01*
X648122Y345524D01*
X647489Y346348D01*
X646912Y347212D01*
X646392Y348113D01*
X645932Y349045D01*
X645535Y350005D01*
X645200Y350989D01*
X644931Y351993D01*
X644729Y353013D01*
X644593Y354043D01*
X644525Y355080D01*
X644525Y356120D01*
X644593Y357157D01*
X644729Y358187D01*
X644931Y359207D01*
X645200Y360211D01*
X645535Y361195D01*
X645932Y362155D01*
X646392Y363087D01*
X646912Y363988D01*
X647489Y364852D01*
X648122Y365676D01*
X648807Y366458D01*
X649542Y367193D01*
X650324Y367878D01*
X651148Y368511D01*
X652012Y369088D01*
X652913Y369608D01*
X653845Y370068D01*
X654805Y370465D01*
X655789Y370800D01*
X656793Y371069D01*
X657813Y371271D01*
X658843Y371407D01*
X659880Y371475D01*
X660920Y371475D01*
X661957Y371407D01*
X662987Y371271D01*
X664007Y371069D01*
X665011Y370800D01*
X665995Y370465D01*
X666955Y370068D01*
X667887Y369608D01*
X668788Y369088D01*
X669652Y368511D01*
X670476Y367878D01*
X671258Y367193D01*
X671993Y366458D01*
X672678Y365676D01*
X673311Y364852D01*
X673888Y363988D01*
X674408Y363087D01*
X674868Y362155D01*
X675265Y361195D01*
X675600Y360211D01*
X675869Y359207D01*
X676071Y358187D01*
X676207Y357157D01*
X676275Y356120D01*
X676275Y355080D01*
X676275Y75680D02*
X676207Y74643D01*
X676071Y73613D01*
X675869Y72593D01*
X675600Y71589D01*
X675265Y70605D01*
X674868Y69645D01*
X674408Y68713D01*
X673888Y67812D01*
X673311Y66948D01*
X672678Y66124D01*
X671993Y65342D01*
X671258Y64607D01*
X670476Y63922D01*
X669652Y63289D01*
X668788Y62712D01*
X667887Y62192D01*
X666955Y61732D01*
X665995Y61335D01*
X665011Y61000D01*
X664007Y60731D01*
X662987Y60529D01*
X661957Y60393D01*
X660920Y60325D01*
X659880Y60325D01*
X658843Y60393D01*
X657813Y60529D01*
X656793Y60731D01*
X655789Y61000D01*
X654805Y61335D01*
X653845Y61732D01*
X652913Y62192D01*
X652012Y62712D01*
X651148Y63289D01*
X650324Y63922D01*
X649542Y64607D01*
X648807Y65342D01*
X648122Y66124D01*
X647489Y66948D01*
X646912Y67812D01*
X646392Y68713D01*
X645932Y69645D01*
X645535Y70605D01*
X645200Y71589D01*
X644931Y72593D01*
X644729Y73613D01*
X644593Y74643D01*
X644525Y75680D01*
X644525Y76720D01*
X644593Y77757D01*
X644729Y78787D01*
X644931Y79807D01*
X645200Y80811D01*
X645535Y81795D01*
X645932Y82755D01*
X646392Y83687D01*
X646912Y84588D01*
X647489Y85452D01*
X648122Y86276D01*
X648807Y87058D01*
X649542Y87793D01*
X650324Y88478D01*
X651148Y89111D01*
X652012Y89688D01*
X652913Y90208D01*
X653845Y90668D01*
X654805Y91065D01*
X655789Y91400D01*
X656793Y91669D01*
X657813Y91871D01*
X658843Y92007D01*
X659880Y92075D01*
X660920Y92075D01*
X661957Y92007D01*
X662987Y91871D01*
X664007Y91669D01*
X665011Y91400D01*
X665995Y91065D01*
X666955Y90668D01*
X667887Y90208D01*
X668788Y89688D01*
X669652Y89111D01*
X670476Y88478D01*
X671258Y87793D01*
X671993Y87058D01*
X672678Y86276D01*
X673311Y85452D01*
X673888Y84588D01*
X674408Y83687D01*
X674868Y82755D01*
X675265Y81795D01*
X675600Y80811D01*
X675869Y79807D01*
X676071Y78787D01*
X676207Y77757D01*
X676275Y76720D01*
X676275Y75680D01*
X155575Y24880D02*
X155507Y23843D01*
X155371Y22813D01*
X155169Y21793D01*
X154900Y20789D01*
X154565Y19805D01*
X154168Y18845D01*
X153708Y17913D01*
X153188Y17012D01*
X152611Y16148D01*
X151978Y15324D01*
X151293Y14542D01*
X150558Y13807D01*
X149776Y13122D01*
X148952Y12489D01*
X148088Y11912D01*
X147187Y11392D01*
X146255Y10932D01*
X145295Y10535D01*
X144311Y10200D01*
X143307Y9931D01*
X142287Y9729D01*
X141257Y9593D01*
X140220Y9525D01*
X139180Y9525D01*
X138143Y9593D01*
X137113Y9729D01*
X136093Y9931D01*
X135089Y10200D01*
X134105Y10535D01*
X133145Y10932D01*
X132213Y11392D01*
X131312Y11912D01*
X130448Y12489D01*
X129624Y13122D01*
X128842Y13807D01*
X128107Y14542D01*
X127422Y15324D01*
X126789Y16148D01*
X126212Y17012D01*
X125692Y17913D01*
X125232Y18845D01*
X124835Y19805D01*
X124500Y20789D01*
X124231Y21793D01*
X124029Y22813D01*
X123893Y23843D01*
X123825Y24880D01*
X123825Y25920D01*
X123893Y26957D01*
X124029Y27987D01*
X124231Y29007D01*
X124500Y30011D01*
X124835Y30995D01*
X125232Y31955D01*
X125692Y32887D01*
X126212Y33788D01*
X126789Y34652D01*
X127422Y35476D01*
X128107Y36258D01*
X128842Y36993D01*
X129624Y37678D01*
X130448Y38311D01*
X131312Y38888D01*
X132213Y39408D01*
X133145Y39868D01*
X134105Y40265D01*
X135089Y40600D01*
X136093Y40869D01*
X137113Y41071D01*
X138143Y41207D01*
X139180Y41275D01*
X140220Y41275D01*
X141257Y41207D01*
X142287Y41071D01*
X143307Y40869D01*
X144311Y40600D01*
X145295Y40265D01*
X146255Y39868D01*
X147187Y39408D01*
X148088Y38888D01*
X148952Y38311D01*
X149776Y37678D01*
X150558Y36993D01*
X151293Y36258D01*
X151978Y35476D01*
X152611Y34652D01*
X153188Y33788D01*
X153708Y32887D01*
X154168Y31955D01*
X154565Y30995D01*
X154900Y30011D01*
X155169Y29007D01*
X155371Y27987D01*
X155507Y26957D01*
X155575Y25920D01*
X155575Y24880D01*
X594004Y374850D02*
X594556Y374777D01*
X595094Y374633D01*
X595609Y374420D01*
X596091Y374141D01*
X596533Y373802D01*
X596927Y373408D01*
X597266Y372966D01*
X597545Y372484D01*
X597758Y371969D01*
X597902Y371431D01*
X597975Y370879D01*
X597975Y370321D01*
X597902Y369769D01*
X597758Y369231D01*
X597545Y368716D01*
X597266Y368234D01*
X596927Y367792D01*
X596533Y367398D01*
X596091Y367059D01*
X595609Y366780D01*
X595094Y366567D01*
X594556Y366423D01*
X594004Y366350D01*
X593446Y366350D01*
X592894Y366423D01*
X592356Y366567D01*
X591841Y366780D01*
X591359Y367059D01*
X590917Y367398D01*
X590523Y367792D01*
X590184Y368234D01*
X589905Y368716D01*
X589692Y369231D01*
X589548Y369769D01*
X589475Y370321D01*
X589475Y370879D01*
X589548Y371431D01*
X589692Y371969D01*
X589905Y372484D01*
X590184Y372966D01*
X590523Y373408D01*
X590917Y373802D01*
X591359Y374141D01*
X591841Y374420D01*
X592356Y374633D01*
X592894Y374777D01*
X593446Y374850D01*
X594004Y374850D01*
X594004Y344850D02*
X594556Y344777D01*
X595094Y344633D01*
X595609Y344420D01*
X596091Y344141D01*
X596533Y343802D01*
X596927Y343408D01*
X597266Y342966D01*
X597545Y342484D01*
X597758Y341969D01*
X597902Y341431D01*
X597975Y340879D01*
X597975Y340321D01*
X597902Y339769D01*
X597758Y339231D01*
X597545Y338716D01*
X597266Y338234D01*
X596927Y337792D01*
X596533Y337398D01*
X596091Y337059D01*
X595609Y336780D01*
X595094Y336567D01*
X594556Y336423D01*
X594004Y336350D01*
X593446Y336350D01*
X592894Y336423D01*
X592356Y336567D01*
X591841Y336780D01*
X591359Y337059D01*
X590917Y337398D01*
X590523Y337792D01*
X590184Y338234D01*
X589905Y338716D01*
X589692Y339231D01*
X589548Y339769D01*
X589475Y340321D01*
X589475Y340879D01*
X589548Y341431D01*
X589692Y341969D01*
X589905Y342484D01*
X590184Y342966D01*
X590523Y343408D01*
X590917Y343802D01*
X591359Y344141D01*
X591841Y344420D01*
X592356Y344633D01*
X592894Y344777D01*
X593446Y344850D01*
X594004Y344850D01*
M02*
